<svg width="48" height="48" viewBox="0 0 48 48" fill="none" xmlns="http://www.w3.org/2000/svg">
<path d="M29.9998 20.0833H23.9998V14.2083C23.9998 13.6889 23.7891 13.1908 23.414 12.8236C23.0389 12.4563 22.5302 12.25 21.9998 12.25C21.4694 12.25 20.9607 12.4563 20.5856 12.8236C20.2105 13.1908 19.9998 13.6889 19.9998 14.2083V20.0833H13.9998C13.4694 20.0833 12.9607 20.2897 12.5856 20.6569C12.2105 21.0242 11.9998 21.5223 11.9998 22.0417C11.9998 22.561 12.2105 23.0592 12.5856 23.4264C12.9607 23.7937 13.4694 24 13.9998 24H19.9998V29.875C19.9998 30.3944 20.2105 30.8925 20.5856 31.2597C20.9607 31.627 21.4694 31.8333 21.9998 31.8333C22.5302 31.8333 23.0389 31.627 23.414 31.2597C23.7891 30.8925 23.9998 30.3944 23.9998 29.875V24H29.9998C30.5302 24 31.0389 23.7937 31.414 23.4264C31.7891 23.0592 31.9998 22.561 31.9998 22.0417C31.9998 21.5223 31.7891 21.0242 31.414 20.6569C31.0389 20.2897 30.5302 20.0833 29.9998 20.0833ZM43.4198 40.2346L35.9998 33.0279C38.88 29.5115 40.2748 25.0483 39.8974 20.5559C39.52 16.0635 37.3991 11.8834 33.9708 8.87509C30.5425 5.86682 26.0674 4.25904 21.4657 4.38233C16.8639 4.50563 12.4853 6.35064 9.23009 9.53798C5.97493 12.7253 4.09067 17.0127 3.96475 21.5186C3.83883 26.0245 5.48082 30.4064 8.5531 33.7633C11.6254 37.1202 15.8944 39.1969 20.4824 39.5664C25.0704 39.9359 29.6286 38.5702 33.2198 35.75L40.5798 42.9567C40.7657 43.1402 40.9869 43.2859 41.2307 43.3853C41.4744 43.4847 41.7358 43.5359 41.9998 43.5359C42.2638 43.5359 42.5252 43.4847 42.769 43.3853C43.0127 43.2859 43.2339 43.1402 43.4198 42.9567C43.7803 42.5915 43.9818 42.1035 43.9818 41.5956C43.9818 41.0878 43.7803 40.5997 43.4198 40.2346V40.2346ZM21.9998 35.75C19.2309 35.75 16.5241 34.946 14.2218 33.4397C11.9195 31.9334 10.1251 29.7925 9.0655 27.2876C8.00587 24.7827 7.72862 22.0265 8.26881 19.3673C8.80901 16.7081 10.1424 14.2656 12.1003 12.3484C14.0582 10.4313 16.5528 9.12567 19.2685 8.59673C21.9843 8.06779 24.7992 8.33926 27.3574 9.37681C29.9155 10.4144 32.102 12.1714 33.6404 14.4257C35.1787 16.68 35.9998 19.3304 35.9998 22.0417C35.9998 25.6773 34.5248 29.1641 31.8993 31.7349C29.2738 34.3057 25.7128 35.75 21.9998 35.75V35.75Z" fill="black"/>
</svg>
