<svg width="28" height="28" viewBox="0 0 28 28" fill="none" xmlns="http://www.w3.org/2000/svg">
<path d="M22.1667 12.8337H15.1667V5.83366C15.1667 5.52424 15.0438 5.22749 14.825 5.0087C14.6062 4.78991 14.3095 4.66699 14.0001 4.66699C13.6907 4.66699 13.3939 4.78991 13.1751 5.0087C12.9563 5.22749 12.8334 5.52424 12.8334 5.83366V12.8337H5.83341C5.524 12.8337 5.22725 12.9566 5.00846 13.1754C4.78966 13.3942 4.66675 13.6909 4.66675 14.0003C4.66675 14.3097 4.78966 14.6065 5.00846 14.8253C5.22725 15.0441 5.524 15.167 5.83341 15.167H12.8334V22.167C12.8334 22.4764 12.9563 22.7732 13.1751 22.992C13.3939 23.2107 13.6907 23.3337 14.0001 23.3337C14.3095 23.3337 14.6062 23.2107 14.825 22.992C15.0438 22.7732 15.1667 22.4764 15.1667 22.167V15.167H22.1667C22.4762 15.167 22.7729 15.0441 22.9917 14.8253C23.2105 14.6065 23.3334 14.3097 23.3334 14.0003C23.3334 13.6909 23.2105 13.3942 22.9917 13.1754C22.7729 12.9566 22.4762 12.8337 22.1667 12.8337Z" fill="#BFA07F"/>
</svg>
