<svg width="32" height="33" viewBox="0 0 32 33" fill="none" xmlns="http://www.w3.org/2000/svg">
<path d="M23.8933 15.9934C23.8299 15.8297 23.7347 15.6802 23.6133 15.5534L16.9467 8.88675C16.8223 8.76243 16.6748 8.66382 16.5123 8.59654C16.3499 8.52926 16.1758 8.49463 16 8.49463C15.6449 8.49463 15.3044 8.63568 15.0533 8.88675C14.929 9.01107 14.8304 9.15866 14.7631 9.32109C14.6958 9.48351 14.6612 9.65761 14.6612 9.83342C14.6612 10.1885 14.8023 10.529 15.0533 10.7801L19.4533 15.1668H9.33333C8.97971 15.1668 8.64057 15.3072 8.39052 15.5573C8.14048 15.8073 8 16.1465 8 16.5001C8 16.8537 8.14048 17.1928 8.39052 17.4429C8.64057 17.6929 8.97971 17.8334 9.33333 17.8334H19.4533L15.0533 22.2201C14.9284 22.344 14.8292 22.4915 14.7615 22.654C14.6938 22.8165 14.6589 22.9907 14.6589 23.1667C14.6589 23.3428 14.6938 23.517 14.7615 23.6795C14.8292 23.842 14.9284 23.9895 15.0533 24.1134C15.1773 24.2384 15.3248 24.3376 15.4872 24.4053C15.6497 24.473 15.824 24.5078 16 24.5078C16.176 24.5078 16.3503 24.473 16.5128 24.4053C16.6752 24.3376 16.8227 24.2384 16.9467 24.1134L23.6133 17.4468C23.7347 17.3199 23.8299 17.1704 23.8933 17.0068C24.0267 16.6821 24.0267 16.318 23.8933 15.9934Z" fill="#888888"/>
</svg>
