<svg width="100" height="15" viewBox="0 0 100 15" fill="none" xmlns="http://www.w3.org/2000/svg">
<path fill-rule="evenodd" clip-rule="evenodd" d="M93.3431 0.564866L99.7071 6.92883C100.098 7.31935 100.098 7.95252 99.7071 8.34304L93.3431 14.707C92.9526 15.0975 92.3195 15.0975 91.9289 14.707C91.5384 14.3165 91.5384 13.6833 91.9289 13.2928L96.5858 8.63593L1 8.63592C0.447715 8.63592 -1.19209e-07 8.1882 0 7.63592C1.19209e-07 7.08363 0.447715 6.63592 1 6.63592L96.5858 6.63593L91.9289 1.97908C91.5384 1.58855 91.5384 0.95539 91.9289 0.564866C92.3195 0.174342 92.9526 0.174342 93.3431 0.564866Z" fill="#63636C"/>
</svg>
