<svg width="28" height="28" viewBox="0 0 28 28" fill="none" xmlns="http://www.w3.org/2000/svg">
<path d="M23.235 15.3217C22.7823 14.6917 22.9118 14.4114 23.235 13.8483C23.2408 13.8419 26.9778 8.15129 27.3628 6.22143L27.3651 6.22014C27.5565 5.51686 27.3651 5 26.4399 5H23.3785C22.5991 5 22.2398 5.44357 22.0473 5.93986C22.0473 5.93986 20.4885 10.0516 18.2835 12.7169C17.5718 13.487 17.2428 13.7339 16.8542 13.7339C16.6629 13.7339 16.3654 13.487 16.3654 12.7837V6.22014C16.3654 5.37671 16.1472 5 15.502 5H10.6882C10.1994 5 9.90884 5.39343 9.90884 5.75986C9.90884 6.55957 11.0114 6.74343 11.1257 8.99343V13.8753C11.1257 14.945 10.9495 15.1417 10.5587 15.1417C9.518 15.1417 6.99208 11.0133 5.49519 6.28829C5.19301 5.37157 4.89784 5.00129 4.11264 5.00129H1.05004C0.176173 5.00129 0 5.44486 0 5.94114C0 6.818 1.0407 11.1779 4.8395 16.9379C7.37125 20.8696 10.9367 23 14.1802 23C16.1297 23 16.3677 22.5269 16.3677 21.713C16.3677 17.9561 16.1916 17.6013 17.1681 17.6013C17.6208 17.6013 18.4001 17.8481 20.2202 19.7446C22.3004 21.9933 22.6423 23 23.8067 23H26.8681C27.7408 23 28.183 22.5269 27.9286 21.5934C27.3464 19.6301 23.4123 15.5917 23.235 15.3217Z" fill="#BFA07F"/>
</svg>
