<svg width="28" height="28" viewBox="0 0 28 28" fill="none" xmlns="http://www.w3.org/2000/svg">
<g clip-path="url(#clip0_55_4611)">
<path d="M27.3808 6.91686L27.4158 7.14552C27.2562 6.56363 26.9509 6.03203 26.5288 5.6009C26.1066 5.16978 25.5816 4.85336 25.0032 4.68152L24.9787 4.67569C22.7958 4.08302 14.012 4.08302 14.012 4.08302C14.012 4.08302 5.25034 4.07136 3.04534 4.67569C2.46595 4.84337 1.93881 5.15586 1.51363 5.58369C1.08845 6.01152 0.779248 6.5406 0.615177 7.12102L0.609343 7.14552C-0.206157 11.405 -0.21199 16.5232 0.64551 21.0837L0.609343 20.8527C0.768963 21.4346 1.07426 21.9662 1.4964 22.3973C1.91855 22.8284 2.44361 23.1449 3.02201 23.3167L3.04651 23.3225C5.22701 23.9164 14.0132 23.9164 14.0132 23.9164C14.0132 23.9164 22.7737 23.9164 24.9798 23.3225C25.5595 23.1551 26.0869 22.8427 26.5123 22.4149C26.9378 21.987 27.2471 21.4578 27.4112 20.8772L27.417 20.8527C27.788 18.8717 28.0003 16.592 28.0003 14.2634L27.9992 14.0055L28.0003 13.7372C28.0003 11.4074 27.788 9.12769 27.3808 6.91686ZM11.2097 18.2592V9.75069L18.52 14.0114L11.2097 18.2592Z" fill="#BFA07F"/>
</g>
<defs>
<clipPath id="clip0_55_4611">
<rect width="28" height="28" fill="white"/>
</clipPath>
</defs>
</svg>
