<svg width="22" height="22" viewBox="0 0 22 22" fill="none" xmlns="http://www.w3.org/2000/svg">
<path d="M11.4997 0C12.3499 0 13.0347 0.508593 13.0347 1.29071C13.0347 1.78299 13.0524 2.15031 13.3712 2.24439C16.0824 3.03874 17.8209 4.90067 17.8209 7.31867V11.3828C17.8209 13.2447 18.606 13.6216 19.594 14.3338C21.0248 15.3635 20.6981 17.5077 19.0563 17.5063H3.94372C2.30187 17.5077 1.97525 15.3635 3.40605 14.3338C4.39283 13.6216 5.17908 13.2447 5.17908 11.3828V7.31867C5.17908 4.90067 6.9176 3.03874 9.62879 2.24439C9.94671 2.15031 9.96533 1.78299 9.96533 1.29071C9.96563 0.508593 10.6507 0 11.4997 0Z" fill="#BFA07F"/>
<path d="M14.6169 19.1448C14.6169 20.226 14.0228 21.0536 13.0579 21.5945C12.0934 22.1352 10.9048 22.1352 9.94206 21.5945C8.97689 21.0536 8.38307 20.226 8.38307 19.1448" fill="#BFA07F"/>
</svg>
