<svg width="28" height="28" viewBox="0 0 28 28" fill="none" xmlns="http://www.w3.org/2000/svg">
<path d="M14.829 19.0052L14.654 18.8652C14.5889 18.821 14.5183 18.7857 14.444 18.7602L14.234 18.6668C14.0448 18.6273 13.8487 18.6354 13.6634 18.6903C13.4781 18.7453 13.3093 18.8455 13.1723 18.9818C13.0693 19.0952 12.9864 19.2254 12.9273 19.3668C12.839 19.5794 12.8156 19.8133 12.86 20.0392C12.9043 20.2651 13.0145 20.4727 13.1766 20.6361C13.3388 20.7995 13.5456 20.9113 13.7711 20.9574C13.9966 21.0035 14.2307 20.9818 14.444 20.8952C14.5834 20.8275 14.7129 20.7412 14.829 20.6385C14.9909 20.4744 15.1005 20.2661 15.1441 20.0398C15.1877 19.8135 15.1633 19.5793 15.074 19.3668C15.0158 19.2319 14.9327 19.1092 14.829 19.0052V19.0052ZM18.6673 2.3335H9.33398C8.40573 2.3335 7.51549 2.70225 6.85911 3.35862C6.20273 4.015 5.83398 4.90524 5.83398 5.8335V22.1668C5.83398 23.0951 6.20273 23.9853 6.85911 24.6417C7.51549 25.2981 8.40573 25.6668 9.33398 25.6668H18.6673C19.5956 25.6668 20.4858 25.2981 21.1422 24.6417C21.7986 23.9853 22.1673 23.0951 22.1673 22.1668V5.8335C22.1673 4.90524 21.7986 4.015 21.1422 3.35862C20.4858 2.70225 19.5956 2.3335 18.6673 2.3335ZM19.834 22.1668C19.834 22.4762 19.7111 22.773 19.4923 22.9918C19.2735 23.2106 18.9767 23.3335 18.6673 23.3335H9.33398C9.02457 23.3335 8.72782 23.2106 8.50903 22.9918C8.29023 22.773 8.16732 22.4762 8.16732 22.1668V5.8335C8.16732 5.52408 8.29023 5.22733 8.50903 5.00854C8.72782 4.78975 9.02457 4.66683 9.33398 4.66683H18.6673C18.9767 4.66683 19.2735 4.78975 19.4923 5.00854C19.7111 5.22733 19.834 5.52408 19.834 5.8335V22.1668Z" fill="#BFA07F"/>
</svg>
