<svg width="28" height="28" viewBox="0 0 28 28" fill="none" xmlns="http://www.w3.org/2000/svg">
<path d="M25.9748 2.83241C25.6426 2.55607 25.2418 2.37495 24.8148 2.30835C24.3879 2.24174 23.9509 2.29214 23.5503 2.45416L2.64262 10.8954C2.19549 11.0794 1.81489 11.395 1.55132 11.8003C1.28775 12.2056 1.15368 12.6815 1.16691 13.1648C1.18014 13.6481 1.34003 14.116 1.62538 14.5063C1.91072 14.8966 2.30802 15.1909 2.76454 15.3502L6.9937 16.821L9.35095 24.6163C9.38299 24.7204 9.42948 24.8195 9.48906 24.9107C9.4981 24.9247 9.51086 24.9351 9.52047 24.9487C9.58931 25.0448 9.6725 25.1297 9.76714 25.2005C9.79405 25.221 9.81982 25.2402 9.84859 25.2584C9.95935 25.3319 10.082 25.3856 10.2111 25.4172L10.2249 25.4184L10.2328 25.4217C10.3104 25.4375 10.3894 25.4455 10.4686 25.4457C10.4762 25.4457 10.483 25.442 10.4905 25.4419C10.6101 25.4398 10.7286 25.4192 10.8418 25.3809C10.8681 25.3719 10.8907 25.3569 10.9163 25.346C11.0007 25.311 11.0807 25.2662 11.1546 25.2124C11.2138 25.1625 11.273 25.1127 11.3322 25.0628L14.4847 21.5822L19.1867 25.2246C19.6007 25.5469 20.1102 25.7221 20.6348 25.7225C21.1845 25.7218 21.7173 25.5322 22.1437 25.1853C22.5702 24.8385 22.8645 24.3556 22.9773 23.8176L26.7837 5.13157C26.87 4.71101 26.8403 4.27491 26.6978 3.86992C26.5553 3.46494 26.3054 3.10631 25.9748 2.83241V2.83241ZM10.9312 17.1924C10.7694 17.3536 10.6589 17.5589 10.6133 17.7826L10.2522 19.5373L9.3375 16.512L14.0803 14.0423L10.9312 17.1924ZM20.6166 23.3801L15.0601 19.0757C14.8276 18.8961 14.536 18.8106 14.2434 18.8364C13.9507 18.8621 13.6785 18.9972 13.481 19.2147L12.4714 20.3291L12.8282 18.5949L21.0917 10.3314C21.2889 10.1344 21.4091 9.87332 21.4304 9.59538C21.4518 9.31744 21.3729 9.04105 21.208 8.81627C21.0431 8.5915 20.8032 8.4332 20.5317 8.37005C20.2602 8.3069 19.975 8.34308 19.7279 8.47203L7.86841 14.6468L3.52332 13.0567L24.4982 4.66556L20.6166 23.3801Z" fill="#BFA07F"/>
</svg>
