<svg width="28" height="28" viewBox="0 0 28 28" fill="none" xmlns="http://www.w3.org/2000/svg">
<path d="M5.83398 21.0001H10.7807C10.9342 21.001 11.0864 20.9715 11.2285 20.9135C11.3707 20.8554 11.5 20.7699 11.609 20.6618L19.6823 12.5768L22.9956 9.33342C23.105 9.22497 23.1918 9.09593 23.251 8.95376C23.3103 8.8116 23.3407 8.65911 23.3407 8.50509C23.3407 8.35108 23.3103 8.19859 23.251 8.05642C23.1918 7.91425 23.105 7.78521 22.9956 7.67676L18.049 2.67176C17.9405 2.56241 17.8115 2.47562 17.6693 2.41638C17.5272 2.35715 17.3747 2.32666 17.2207 2.32666C17.0666 2.32666 16.9141 2.35715 16.772 2.41638C16.6298 2.47562 16.5008 2.56241 16.3923 2.67176L13.1023 5.97342L5.00565 14.0584C4.89752 14.1674 4.81198 14.2967 4.75392 14.4389C4.69586 14.581 4.66643 14.7332 4.66732 14.8868V19.8334C4.66732 20.1428 4.79023 20.4396 5.00903 20.6584C5.22782 20.8772 5.52457 21.0001 5.83398 21.0001ZM17.2207 5.14509L20.5223 8.44676L18.8657 10.1034L15.564 6.80176L17.2207 5.14509ZM7.00065 15.3651L13.919 8.44676L17.2207 11.7484L10.3023 18.6668H7.00065V15.3651ZM24.5007 23.3334H3.50065C3.19123 23.3334 2.89449 23.4563 2.67569 23.6751C2.4569 23.8939 2.33398 24.1907 2.33398 24.5001C2.33398 24.8095 2.4569 25.1063 2.67569 25.325C2.89449 25.5438 3.19123 25.6668 3.50065 25.6668H24.5007C24.8101 25.6668 25.1068 25.5438 25.3256 25.325C25.5444 25.1063 25.6673 24.8095 25.6673 24.5001C25.6673 24.1907 25.5444 23.8939 25.3256 23.6751C25.1068 23.4563 24.8101 23.3334 24.5007 23.3334Z" fill="#BFA07F"/>
</svg>
