<svg width="90" height="91" viewBox="0 0 90 91" fill="none" xmlns="http://www.w3.org/2000/svg">
<g clip-path="url(#clip0_1713_5302)">
<path d="M82.8195 35.1881C82.24 29.1153 80.2076 23.2712 76.8941 18.1497C73.5805 13.0282 69.0831 8.77983 63.782 5.76357C58.4809 2.74732 52.5318 1.05182 46.4374 0.820342C40.3431 0.588867 34.2826 1.82822 28.7681 4.43368C23.2536 7.03913 18.4471 10.9341 14.7548 15.7895C11.0624 20.6449 8.59284 26.318 7.55462 32.3294C6.51639 38.3408 6.94006 44.5139 8.78983 50.327C10.6396 56.1401 13.8611 61.4224 18.1821 65.7275L41.8736 89.4704C42.2891 89.8894 42.7835 90.2221 43.3282 90.4491C43.873 90.6761 44.4572 90.793 45.0473 90.793C45.6374 90.793 46.2217 90.6761 46.7664 90.4491C47.3111 90.2221 47.8055 89.8894 48.2211 89.4704L71.8232 65.7275C75.8069 61.7724 78.8606 56.9798 80.7626 51.6976C82.6646 46.4153 83.3672 40.7758 82.8195 35.1881ZM65.565 59.4229L45.0026 79.9911L24.4402 59.4229C21.4099 56.3915 19.0887 52.7262 17.6433 48.6905C16.198 44.6548 15.6645 40.3489 16.0812 36.0824C16.5005 31.7501 17.8771 27.5652 20.1113 23.8302C22.3454 20.0952 25.3814 16.9034 28.9997 14.4857C33.7422 11.3345 39.3091 9.65353 45.0026 9.65353C50.6962 9.65353 56.263 11.3345 61.0055 14.4857C64.6128 16.8941 67.6421 20.0717 69.8758 23.7904C72.1094 27.509 73.492 31.6763 73.9241 35.993C74.3543 40.2739 73.8276 44.5971 72.3818 48.6493C70.9361 52.7016 68.6077 56.3816 65.565 59.4229Z" fill="#ECB86A"/>
<path fill-rule="evenodd" clip-rule="evenodd" d="M45.5 60C56.8218 60 66 50.8218 66 39.5C66 28.1782 56.8218 19 45.5 19C34.1782 19 25 28.1782 25 39.5C25 50.8218 34.1782 60 45.5 60ZM45.5 52C52.4036 52 58 46.4036 58 39.5C58 32.5964 52.4036 27 45.5 27C38.5964 27 33 32.5964 33 39.5C33 46.4036 38.5964 52 45.5 52Z" fill="#ECB86A"/>
</g>
<defs>
<clipPath id="clip0_1713_5302">
<rect width="90" height="90" fill="white" transform="translate(0 0.792969)"/>
</clipPath>
</defs>
</svg>
