<svg width="260" height="36" viewBox="0 0 260 36" fill="none" xmlns="http://www.w3.org/2000/svg">
<g clip-path="url(#clip0_1722_5317)">
<path d="M0.239258 1.25098H5.02454V34.7479H0.239258V1.25098Z" fill="url(#paint0_linear_1722_5317)"/>
<path d="M48.6462 1.25098V34.7479H44.7223L24.6241 9.76878V34.7479H19.8389V1.25098H23.7628L43.861 26.2301V1.25098H48.6462Z" fill="url(#paint1_linear_1722_5317)"/>
<path d="M73.2191 35.1307C70.6988 35.1307 68.2583 34.7479 65.8976 33.9823C63.5688 33.1847 61.7344 32.1639 60.3945 30.9197L62.1651 27.1872C63.4412 28.3356 65.0682 29.2767 67.0461 30.0105C69.0559 30.7123 71.1135 31.0632 73.2191 31.0632C75.9945 31.0632 78.0681 30.6007 79.4399 29.6755C80.8117 28.7185 81.4976 27.4583 81.4976 25.8952C81.4976 24.7467 81.1148 23.8215 80.3491 23.1197C79.6154 22.386 78.6902 21.8277 77.5737 21.4449C76.489 21.062 74.9418 20.6314 72.932 20.1528C70.4117 19.5467 68.37 18.9406 66.8068 18.3344C65.2755 17.7283 63.9516 16.8031 62.835 15.559C61.7504 14.2829 61.208 12.5762 61.208 10.4387C61.208 8.65222 61.6706 7.04118 62.5958 5.6056C63.5528 4.17002 64.9884 3.02154 66.9025 2.16019C68.8166 1.29884 71.1933 0.868164 74.0326 0.868164C76.0105 0.868164 77.9565 1.12338 79.8706 1.63381C81.7847 2.14424 83.4277 2.87798 84.7994 3.83505L83.2203 7.66327C81.8166 6.77002 80.3172 6.10008 78.7221 5.65345C77.127 5.17492 75.5639 4.93566 74.0326 4.93566C71.3209 4.93566 69.2792 5.43014 67.9074 6.4191C66.5675 7.40805 65.8976 8.68413 65.8976 10.2473C65.8976 11.3958 66.2804 12.3369 67.0461 13.0706C67.8117 13.7725 68.7528 14.3308 69.8694 14.7455C71.0178 15.1283 72.5651 15.543 74.5111 15.9896C77.0313 16.5958 79.0571 17.2019 80.5884 17.8081C82.1197 18.4142 83.4277 19.3393 84.5123 20.5835C85.6289 21.8277 86.1872 23.5025 86.1872 25.6081C86.1872 27.3626 85.7086 28.9737 84.7516 30.4412C83.7945 31.8767 82.343 33.0252 80.397 33.8866C78.451 34.716 76.0583 35.1307 73.2191 35.1307Z" fill="url(#paint2_linear_1722_5317)"/>
<path d="M97.9639 1.25098H102.749V34.7479H97.9639V1.25098Z" fill="url(#paint3_linear_1722_5317)"/>
<path d="M117.562 1.25098H131.679C135.22 1.25098 138.362 1.95282 141.106 3.3565C143.85 4.76019 145.971 6.73811 147.47 9.29025C149.002 11.8105 149.767 14.7136 149.767 17.9995C149.767 21.2853 149.002 24.2044 147.47 26.7565C145.971 29.2767 143.85 31.2387 141.106 32.6424C138.362 34.0461 135.22 34.7479 131.679 34.7479H117.562V1.25098ZM131.392 30.5847C134.104 30.5847 136.48 30.0583 138.522 29.0056C140.596 27.9528 142.191 26.4853 143.307 24.6031C144.424 22.689 144.982 20.4878 144.982 17.9995C144.982 15.5111 144.424 13.3258 143.307 11.4436C142.191 9.52952 140.596 8.04608 138.522 6.99332C136.48 5.94056 134.104 5.41418 131.392 5.41418H122.348V30.5847H131.392Z" fill="url(#paint4_linear_1722_5317)"/>
<path d="M161.883 1.25098H166.668V34.7479H161.883V1.25098Z" fill="url(#paint5_linear_1722_5317)"/>
<path d="M195.359 35.1307C190.892 35.1307 187.415 33.8546 184.927 31.3025C182.439 28.7503 181.194 25.0817 181.194 20.2964V1.25098H185.98V20.105C185.98 27.2829 189.122 30.8718 195.407 30.8718C198.469 30.8718 200.814 29.9945 202.441 28.2399C204.068 26.4534 204.881 23.7418 204.881 20.105V1.25098H209.523V20.2964C209.523 25.1136 208.279 28.7982 205.791 31.3503C203.302 33.8706 199.825 35.1307 195.359 35.1307Z" fill="url(#paint6_linear_1722_5317)"/>
<path d="M255.176 34.7479L255.128 10.343L243.021 30.6804H240.82L228.713 10.4866V34.7479H224.119V1.25098H228.043L242.016 24.7945L255.798 1.25098H259.722L259.769 34.7479H255.176Z" fill="url(#paint7_linear_1722_5317)"/>
<path d="M132.731 20.8457C134.092 20.8457 135.195 19.7325 135.195 18.3594C135.195 16.9862 134.092 15.873 132.731 15.873C131.369 15.873 130.266 16.9862 130.266 18.3594C130.266 19.7325 131.369 20.8457 132.731 20.8457Z" fill="url(#paint8_linear_1722_5317)"/>
</g>
<defs>
<linearGradient id="paint0_linear_1722_5317" x1="0.901506" y1="1.25098" x2="13.9052" y2="5.46497" gradientUnits="userSpaceOnUse">
<stop stop-color="#BFA07F"/>
<stop offset="0.462991" stop-color="#AE9881"/>
<stop offset="0.983337" stop-color="#DECDBB"/>
</linearGradient>
<linearGradient id="paint1_linear_1722_5317" x1="23.8256" y1="1.25098" x2="41.8253" y2="36.3657" gradientUnits="userSpaceOnUse">
<stop stop-color="#BFA07F"/>
<stop offset="0.462991" stop-color="#AE9881"/>
<stop offset="0.983337" stop-color="#DECDBB"/>
</linearGradient>
<linearGradient id="paint2_linear_1722_5317" x1="63.964" y1="0.868164" x2="83.7416" y2="34.6413" gradientUnits="userSpaceOnUse">
<stop stop-color="#BFA07F"/>
<stop offset="0.462991" stop-color="#AE9881"/>
<stop offset="0.983337" stop-color="#DECDBB"/>
</linearGradient>
<linearGradient id="paint3_linear_1722_5317" x1="98.6261" y1="1.25098" x2="111.63" y2="5.46497" gradientUnits="userSpaceOnUse">
<stop stop-color="#BFA07F"/>
<stop offset="0.462991" stop-color="#AE9881"/>
<stop offset="0.983337" stop-color="#DECDBB"/>
</linearGradient>
<linearGradient id="paint4_linear_1722_5317" x1="122.019" y1="1.25098" x2="138.819" y2="37.8894" gradientUnits="userSpaceOnUse">
<stop stop-color="#BFA07F"/>
<stop offset="0.462991" stop-color="#AE9881"/>
<stop offset="0.983337" stop-color="#DECDBB"/>
</linearGradient>
<linearGradient id="paint5_linear_1722_5317" x1="162.545" y1="1.25098" x2="175.549" y2="5.46497" gradientUnits="userSpaceOnUse">
<stop stop-color="#BFA07F"/>
<stop offset="0.462991" stop-color="#AE9881"/>
<stop offset="0.983337" stop-color="#DECDBB"/>
</linearGradient>
<linearGradient id="paint6_linear_1722_5317" x1="185.115" y1="1.25098" x2="203.617" y2="36.3446" gradientUnits="userSpaceOnUse">
<stop stop-color="#BFA07F"/>
<stop offset="0.462991" stop-color="#AE9881"/>
<stop offset="0.983337" stop-color="#DECDBB"/>
</linearGradient>
<linearGradient id="paint7_linear_1722_5317" x1="229.053" y1="1.25098" x2="244.73" y2="39.0988" gradientUnits="userSpaceOnUse">
<stop stop-color="#BFA07F"/>
<stop offset="0.462991" stop-color="#AE9881"/>
<stop offset="0.983337" stop-color="#DECDBB"/>
</linearGradient>
<linearGradient id="paint8_linear_1722_5317" x1="130.948" y1="15.873" x2="133.392" y2="21.3688" gradientUnits="userSpaceOnUse">
<stop stop-color="#BFA07F"/>
<stop offset="0.462991" stop-color="#AE9881"/>
<stop offset="0.983337" stop-color="#DECDBB"/>
</linearGradient>
<clipPath id="clip0_1722_5317">
<rect width="260" height="34.5603" fill="white" transform="translate(0 0.719727)"/>
</clipPath>
</defs>
</svg>
