<svg width="316" height="84" viewBox="0 0 316 84" fill="none" xmlns="http://www.w3.org/2000/svg">
<path d="M140.054 27.8822H141.108V30.6841H140.124V28.8068H133.03V19H134.014V27.8822H139.071V19H140.054V27.8822Z" fill="#BFA07F"/>
<path d="M144.696 27.8822H149.472V28.8068H143.712V19H149.402V19.9246H144.696V23.3991H149.051V24.3237H144.696V27.8822Z" fill="#BFA07F"/>
<path d="M158.466 19H159.45V28.8068H158.466V24.2256H153.128V28.8068H152.145V19H153.128V23.301H158.466V19Z" fill="#BFA07F"/>
<path d="M168.857 19V19.9246H165.837V28.8068H164.853V19.9246H161.833V19H168.857Z" fill="#BFA07F"/>
<path d="M174.758 19C175.638 19 176.373 19.2942 176.963 19.8826C177.553 20.471 177.848 21.2042 177.848 22.0821C177.848 22.9601 177.553 23.6933 176.963 24.2817C176.373 24.8701 175.638 25.1643 174.758 25.1643H172.229V28.8068H171.246V19H174.758ZM174.758 24.2396C175.366 24.2396 175.867 24.0388 176.261 23.6372C176.663 23.2263 176.865 22.7079 176.865 22.0821C176.865 21.4564 176.663 20.9427 176.261 20.5411C175.867 20.1301 175.366 19.9246 174.758 19.9246H172.229V24.2396H174.758Z" fill="#BFA07F"/>
<path d="M137.624 46.9875C136.135 46.9875 134.903 46.4971 133.929 45.5164C132.955 44.5358 132.468 43.3356 132.468 41.9159C132.468 40.4963 132.955 39.2961 133.929 38.3154C134.903 37.3348 136.135 36.8444 137.624 36.8444C138.532 36.8444 139.366 37.0639 140.124 37.5029C140.883 37.9325 141.468 38.5162 141.88 39.2541L141.009 39.7584C140.7 39.1607 140.241 38.6844 139.633 38.3294C139.024 37.9745 138.354 37.7971 137.624 37.7971C136.397 37.7971 135.395 38.194 134.618 38.9879C133.84 39.7818 133.452 40.7578 133.452 41.9159C133.452 43.0741 133.84 44.0501 134.618 44.844C135.395 45.6379 136.397 46.0348 137.624 46.0348C138.354 46.0348 139.024 45.8573 139.633 45.5024C140.241 45.1475 140.7 44.6712 141.009 44.0734L141.88 44.5638C141.478 45.3016 140.892 45.89 140.124 46.329C139.366 46.768 138.532 46.9875 137.624 46.9875Z" fill="#BFA07F"/>
<path d="M150.802 46.8194V38.8338L145.324 46.8194H144.481V37.0125H145.464V44.9981L150.943 37.0125H151.785V46.8194H150.802Z" fill="#BFA07F"/>
<path d="M159.605 46.9875C158.116 46.9875 156.885 46.4971 155.911 45.5164C154.937 44.5358 154.45 43.3356 154.45 41.9159C154.45 40.4963 154.937 39.2961 155.911 38.3154C156.885 37.3348 158.116 36.8444 159.605 36.8444C160.514 36.8444 161.347 37.0639 162.106 37.5029C162.865 37.9325 163.45 38.5162 163.862 39.2541L162.991 39.7584C162.682 39.1607 162.223 38.6844 161.614 38.3294C161.006 37.9745 160.336 37.7971 159.605 37.7971C158.379 37.7971 157.377 38.194 156.599 38.9879C155.822 39.7818 155.433 40.7578 155.433 41.9159C155.433 43.0741 155.822 44.0501 156.599 44.844C157.377 45.6379 158.379 46.0348 159.605 46.0348C160.336 46.0348 161.006 45.8573 161.614 45.5024C162.223 45.1475 162.682 44.6712 162.991 44.0734L163.862 44.5638C163.459 45.3016 162.874 45.89 162.106 46.329C161.347 46.768 160.514 46.9875 159.605 46.9875Z" fill="#BFA07F"/>
<path d="M172.506 37.0125V37.9372H169.486V46.8194H168.503V37.9372H165.482V37.0125H172.506Z" fill="#BFA07F"/>
<path d="M175.878 45.8947H180.654V46.8194H174.895V37.0125H180.584V37.9372H175.878V41.4116H180.233V42.3362H175.878V45.8947Z" fill="#BFA07F"/>
<path d="M192.318 37.0125V46.8194H191.334V38.4976L187.893 44.2416H187.752L184.31 38.4976V46.8194H183.327V37.0125H184.549L187.822 42.4763L191.095 37.0125H192.318Z" fill="#BFA07F"/>
<path d="M201.867 37.0125H202.85V46.8194H201.867V42.2382H196.529V46.8194H195.546V37.0125H196.529V41.3135H201.867V37.0125Z" fill="#BFA07F"/>
<path d="M214.21 45.5164C213.227 46.4971 212.024 46.9875 210.6 46.9875C209.177 46.9875 207.973 46.4971 206.99 45.5164C206.007 44.5264 205.515 43.3263 205.515 41.9159C205.515 40.5056 206.007 39.3101 206.99 38.3294C207.973 37.3394 209.177 36.8444 210.6 36.8444C212.024 36.8444 213.227 37.3394 214.21 38.3294C215.194 39.3101 215.685 40.5056 215.685 41.9159C215.685 43.3263 215.194 44.5264 214.21 45.5164ZM207.678 44.844C208.465 45.6379 209.439 46.0348 210.6 46.0348C211.762 46.0348 212.735 45.6379 213.522 44.844C214.309 44.0408 214.702 43.0647 214.702 41.9159C214.702 40.7671 214.309 39.7958 213.522 39.0019C212.735 38.1987 211.762 37.7971 210.6 37.7971C209.439 37.7971 208.465 38.1987 207.678 39.0019C206.892 39.7958 206.498 40.7671 206.498 41.9159C206.498 43.0647 206.892 44.0408 207.678 44.844Z" fill="#BFA07F"/>
<path d="M223.829 37.0125V37.9372H219.334V46.8194H218.35V37.0125H223.829Z" fill="#BFA07F"/>
<path d="M233.654 45.5164C232.671 46.4971 231.468 46.9875 230.044 46.9875C228.621 46.9875 227.417 46.4971 226.434 45.5164C225.45 44.5264 224.959 43.3263 224.959 41.9159C224.959 40.5056 225.45 39.3101 226.434 38.3294C227.417 37.3394 228.621 36.8444 230.044 36.8444C231.468 36.8444 232.671 37.3394 233.654 38.3294C234.638 39.3101 235.129 40.5056 235.129 41.9159C235.129 43.3263 234.638 44.5264 233.654 45.5164ZM227.122 44.844C227.909 45.6379 228.883 46.0348 230.044 46.0348C231.205 46.0348 232.179 45.6379 232.966 44.844C233.753 44.0408 234.146 43.0647 234.146 41.9159C234.146 40.7671 233.753 39.7958 232.966 39.0019C232.179 38.1987 231.205 37.7971 230.044 37.7971C228.883 37.7971 227.909 38.1987 227.122 39.0019C226.335 39.7958 225.942 40.7671 225.942 41.9159C225.942 43.0647 226.335 44.0408 227.122 44.844Z" fill="#BFA07F"/>
<path d="M245.801 37.0125C246.682 37.0125 247.417 37.3067 248.007 37.8951C248.597 38.4836 248.892 39.2167 248.892 40.0947C248.892 40.9726 248.597 41.7058 248.007 42.2942C247.417 42.8826 246.682 43.1768 245.801 43.1768H243.273V46.8194H242.289V37.0125H245.801ZM245.801 42.2522C246.41 42.2522 246.911 42.0514 247.304 41.6498C247.707 41.2388 247.908 40.7204 247.908 40.0947C247.908 39.4689 247.707 38.9552 247.304 38.5536C246.911 38.1426 246.41 37.9372 245.801 37.9372H243.273V42.2522H245.801Z" fill="#BFA07F"/>
<path d="M257.117 46.8194L256.204 44.4097H251.54L250.627 46.8194H249.588L253.366 37.0125H254.378L258.157 46.8194H257.117ZM251.891 43.485H255.853L253.872 38.2314L251.891 43.485Z" fill="#BFA07F"/>
<path d="M264.94 41.7478C265.483 41.9533 265.904 42.2662 266.204 42.6865C266.504 43.1068 266.654 43.6018 266.654 44.1715C266.654 44.9934 266.345 45.6706 265.727 46.2029C265.118 46.726 264.294 46.9875 263.254 46.9875C262.318 46.9875 261.568 46.7773 261.007 46.357C260.445 45.9367 260.056 45.409 259.841 44.7739L260.683 44.2976C260.805 44.7926 261.067 45.2129 261.47 45.5585C261.882 45.8947 262.477 46.0628 263.254 46.0628C264.022 46.0628 264.617 45.89 265.038 45.5445C265.46 45.1896 265.67 44.7319 265.67 44.1715C265.67 43.6111 265.474 43.1581 265.08 42.8126C264.696 42.4577 264.163 42.2802 263.479 42.2802H262.355V41.3556H263.128C263.793 41.3556 264.322 41.1874 264.715 40.8512C265.108 40.515 265.305 40.0807 265.305 39.5483C265.305 39.0253 265.113 38.6003 264.729 38.2734C264.355 37.9372 263.84 37.7691 263.184 37.7691C261.976 37.7691 261.18 38.2827 260.796 39.3101L259.981 38.8338C260.225 38.236 260.609 37.755 261.133 37.3908C261.667 37.0265 262.35 36.8444 263.184 36.8444C264.111 36.8444 264.86 37.1059 265.432 37.629C266.003 38.1426 266.288 38.7871 266.288 39.5623C266.288 40.543 265.839 41.2715 264.94 41.7478Z" fill="#BFA07F"/>
<path d="M274.779 41.7338C275.257 41.9393 275.636 42.2522 275.917 42.6725C276.207 43.0834 276.353 43.5551 276.353 44.0874C276.353 44.844 276.086 45.4884 275.552 46.0208C275.018 46.5532 274.372 46.8194 273.613 46.8194H269.329V37.0125H273.29C274.021 37.0125 274.643 37.274 275.159 37.7971C275.674 38.3108 275.931 38.9272 275.931 39.6464C275.931 40.5617 275.547 41.2575 274.779 41.7338ZM273.29 37.9372H270.312V41.3556H273.29C273.749 41.3556 274.138 41.1921 274.456 40.8652C274.784 40.529 274.948 40.1227 274.948 39.6464C274.948 39.1794 274.784 38.7778 274.456 38.4415C274.138 38.1053 273.749 37.9372 273.29 37.9372ZM273.613 45.8947C274.1 45.8947 274.512 45.7219 274.849 45.3763C275.196 45.0214 275.369 44.5918 275.369 44.0874C275.369 43.5924 275.196 43.1675 274.849 42.8126C274.512 42.4577 274.1 42.2802 273.613 42.2802H270.312V45.8947H273.613Z" fill="#BFA07F"/>
<path d="M285.345 46.8194V38.8338L279.866 46.8194H279.023V37.0125H280.007V44.9981L285.485 37.0125H286.328V46.8194H285.345Z" fill="#BFA07F"/>
<path d="M295.735 37.0125V37.9372H292.715V46.8194H291.732V37.9372H288.712V37.0125H295.735Z" fill="#BFA07F"/>
<path d="M304.445 46.8194V38.8338L298.967 46.8194H298.124V37.0125H299.107V44.9981L304.586 37.0125H305.429V46.8194H304.445Z" fill="#BFA07F"/>
<path d="M315.117 37.0125V46.8194H314.134V42.8966H311.774L309.077 46.8194H307.953L310.692 42.8546C309.99 42.7332 309.405 42.4016 308.936 41.8599C308.468 41.3089 308.234 40.6737 308.234 39.9546C308.234 39.142 308.52 38.4509 309.091 37.8811C309.671 37.3021 310.369 37.0125 311.184 37.0125H315.117ZM311.184 41.972H314.134V37.9372H311.184C310.641 37.9372 310.177 38.1333 309.793 38.5256C309.409 38.9179 309.217 39.3942 309.217 39.9546C309.217 40.5056 309.409 40.982 309.793 41.3836C310.177 41.7758 310.641 41.972 311.184 41.972Z" fill="#BFA07F"/>
<path d="M132.117 64.8319V63.9633C132.801 64.0567 133.311 63.8465 133.648 63.3328C133.995 62.8098 134.168 61.8571 134.168 60.4748V55.0251H140.546V64.8319H139.562V55.9497H135.151V60.5029C135.151 61.3902 135.081 62.1327 134.941 62.7304C134.8 63.3282 134.59 63.7858 134.309 64.1034C134.037 64.4116 133.723 64.6217 133.367 64.7338C133.021 64.8365 132.604 64.8692 132.117 64.8319Z" fill="#BFA07F"/>
<path d="M150.102 64.8319V56.8463L144.624 64.8319H143.781V55.0251H144.764V63.0106L150.243 55.0251H151.086V64.8319H150.102Z" fill="#BFA07F"/>
<path d="M159.861 55.0251H160.844V64.8319H159.861V60.699C159.009 61.1193 158.119 61.3294 157.192 61.3294C156.256 61.3294 155.506 61.0679 154.944 60.5449C154.383 60.0219 154.102 59.3494 154.102 58.5275V55.0251H155.085V58.5275C155.085 59.0972 155.268 59.5549 155.633 59.9005C156.007 60.2367 156.527 60.4048 157.192 60.4048C158.119 60.4048 159.009 60.1947 159.861 59.7744V55.0251Z" fill="#BFA07F"/>
<path d="M170.397 55.0251H171.38V64.8319H170.397V60.2507H165.059V64.8319H164.075V55.0251H165.059V59.3261H170.397V55.0251Z" fill="#BFA07F"/>
<path d="M182.74 63.529C181.757 64.5097 180.553 65 179.13 65C177.706 65 176.503 64.5097 175.52 63.529C174.536 62.539 174.045 61.3388 174.045 59.9285C174.045 58.5182 174.536 57.3227 175.52 56.342C176.503 55.352 177.706 54.8569 179.13 54.8569C180.553 54.8569 181.757 55.352 182.74 56.342C183.723 57.3227 184.215 58.5182 184.215 59.9285C184.215 61.3388 183.723 62.539 182.74 63.529ZM176.208 62.8565C176.995 63.6504 177.969 64.0473 179.13 64.0473C180.291 64.0473 181.265 63.6504 182.052 62.8565C182.838 62.0533 183.232 61.0773 183.232 59.9285C183.232 58.7797 182.838 57.8083 182.052 57.0144C181.265 56.2112 180.291 55.8096 179.13 55.8096C177.969 55.8096 176.995 56.2112 176.208 57.0144C175.421 57.8083 175.028 58.7797 175.028 59.9285C175.028 61.0773 175.421 62.0533 176.208 62.8565Z" fill="#BFA07F"/>
<path d="M191.474 65C189.985 65 188.753 64.5097 187.779 63.529C186.805 62.5483 186.318 61.3481 186.318 59.9285C186.318 58.5088 186.805 57.3086 187.779 56.328C188.753 55.3473 189.985 54.8569 191.474 54.8569C192.382 54.8569 193.216 55.0764 193.974 55.5154C194.733 55.945 195.318 56.5288 195.73 57.2666L194.859 57.771C194.55 57.1732 194.091 56.6969 193.482 56.342C192.874 55.9871 192.204 55.8096 191.474 55.8096C190.247 55.8096 189.245 56.2065 188.467 57.0004C187.69 57.7943 187.302 58.7703 187.302 59.9285C187.302 61.0866 187.69 62.0626 188.467 62.8565C189.245 63.6504 190.247 64.0473 191.474 64.0473C192.204 64.0473 192.874 63.8699 193.482 63.515C194.091 63.1601 194.55 62.6837 194.859 62.086L195.73 62.5763C195.327 63.3142 194.742 63.9026 193.974 64.3415C193.216 64.7805 192.382 65 191.474 65Z" fill="#BFA07F"/>
<path d="M204.374 55.0251V55.9497H201.354V64.8319H200.371V55.9497H197.35V55.0251H204.374Z" fill="#BFA07F"/>
<path d="M213.084 64.8319V56.8463L207.606 64.8319H206.763V55.0251H207.746V63.0106L213.225 55.0251H214.068V64.8319H213.084Z" fill="#BFA07F"/>
<path d="M71.0567 36.9312C71.7291 35.0151 71.8753 33.0196 72.3235 31.1036C72.5866 29.9718 72.8595 28.85 73.142 27.7182C73.5318 26.1397 73.6 24.5215 73.7657 22.9132C73.8436 22.1289 73.9216 21.7914 74.1262 21.0171C74.3114 21.7716 74.1262 22.0793 74.0483 22.8238C74.0093 23.2309 74.136 23.4493 74.4673 23.6479C78.8035 26.2291 83.1203 28.8301 87.4468 31.4213C87.8366 31.6496 88.1777 32.007 88.6552 32.0666C88.7916 31.8184 88.7039 31.6 88.6552 31.3816C88.09 28.4926 87.5346 25.6036 87.0571 22.6948C86.9499 22.0594 86.794 21.434 86.6868 20.7887C86.5893 20.2625 86.3457 19.9746 85.8195 19.7562C82.2628 18.2769 78.7158 16.758 75.1786 15.2291C74.8181 15.0703 74.5842 15.1001 74.3016 15.378C73.4344 16.2318 72.5476 17.0558 71.5537 17.989C72.5963 18.0883 73.561 18.1479 74.1262 19.0712C74.3211 19.3888 74.2139 20.2029 74.1262 20.5702C73.9995 20.6 74.0092 19.2301 74.1067 20.0242C73.9606 19.0314 73.4539 18.5053 72.5086 18.3663C71.047 18.1479 69.9946 18.6939 69.293 20.0441C68.6693 21.2453 68.3575 22.5757 67.9483 23.8563C67.7826 24.3726 67.6364 24.9087 67.3441 25.3753C67.1492 25.3058 67.2077 25.1767 67.2369 25.0874C67.539 24.0847 67.8606 23.0919 68.1626 22.0892C68.2503 21.8013 68.4842 21.4935 68.1529 21.156C67.7729 21.2453 67.5195 21.563 67.2174 21.8013C66.0091 22.7742 64.8203 23.7769 63.6022 24.7399C63.193 25.0675 63.0176 25.4249 63.0663 25.9511C63.1832 27.331 63.0371 28.6911 62.6375 30.0115C62.5986 30.1406 62.5108 30.2499 62.4232 30.3193C62.3646 30.1506 62.2673 29.9818 62.3062 29.7832C62.5791 28.3635 62.8519 26.9538 62.7837 25.4845C62.7155 23.8464 62.6181 22.2183 62.7545 20.5702C62.8714 19.1208 63.1637 17.7111 63.3781 16.2815C63.5438 15.1497 63.612 14.008 63.5145 12.8663C63.4366 11.953 63.3781 11.0396 63.5438 10.1263C63.573 9.93763 63.573 9.749 63.7679 9.59016C63.9238 9.94756 63.7192 10.2652 63.7192 10.5929C63.7289 11.6055 63.7582 12.6181 63.8069 13.6208C63.8264 14.1073 63.9628 14.2761 64.45 14.2761C67.4805 14.2562 70.511 14.2661 73.5416 14.2661C75.5002 14.2661 77.4588 14.2661 79.4174 14.2661C79.7 14.2661 79.9436 14.3058 80.1873 14.4945C83.1203 16.6587 86.0631 18.7932 88.9377 21.0369C92.3678 23.7173 95.8368 26.3383 99.2961 28.989C101.44 30.637 103.593 32.285 105.737 33.9429C106.244 34.3301 106.234 34.4592 105.766 34.896C102.541 37.8942 99.3253 40.9023 96.0999 43.9005C92.0267 47.6929 87.9438 51.4654 83.8609 55.2578C80.7135 58.1766 77.5757 61.0953 74.438 64.0141C70.5695 67.6179 66.701 71.2117 62.8422 74.8155C60.8056 76.7216 58.7788 78.6476 56.7519 80.5636C55.6216 81.6259 54.4717 82.6782 53.3511 83.7604C52.9126 84.1773 52.6105 83.9887 52.2597 83.6611C51.0124 82.4698 49.7554 81.2884 48.5081 80.097C46.1305 77.8434 43.7529 75.5799 41.3752 73.3263C37.6334 69.7821 33.8915 66.228 30.1594 62.6838C26.2616 58.9807 22.3541 55.2777 18.4563 51.5647C15.4161 48.6658 12.3856 45.7669 9.34529 42.868C6.39273 40.0683 3.44017 37.2787 0.487611 34.479C-0.00935463 34.0025 -0.019099 33.8536 0.536333 33.4267C2.83602 31.6993 5.1357 29.9718 7.43538 28.2444C11.2844 25.3455 15.153 22.4764 18.9825 19.5477C21.1166 17.9096 23.1921 16.1921 25.2774 14.4945C25.5113 14.3058 25.7257 14.2661 25.9888 14.2661C27.7038 14.2661 29.4286 14.2661 31.1436 14.2661C31.3385 14.2661 31.5528 14.3158 31.7672 14.1867C31.7185 13.4223 31.66 12.6479 31.6405 11.8636C31.6113 10.8907 31.6893 9.91778 32.0011 8.98457C32.3909 7.83295 33.1022 6.97916 34.3203 6.77068C35.4311 6.57212 36.4056 6.91959 37.1364 7.83295C37.4385 8.2102 37.6528 8.63709 37.5749 9.16327C37.3215 9.17319 37.3215 8.98457 37.2631 8.86543C36.6102 7.59468 35.704 7.00894 34.5834 7.14793C33.4627 7.27699 32.498 8.17049 32.1765 9.4611C31.8452 10.7914 31.8647 12.1416 32.0011 13.4918C32.157 15.0008 32.3032 16.5197 32.4591 18.0287C32.4688 18.1479 32.4883 18.3067 32.2642 18.3762C32.0985 17.8302 32.2349 17.2544 32.0888 16.7084C31.9913 16.351 32.0011 15.9538 31.9621 15.5766C31.9134 15.1199 31.7185 14.9809 31.3092 15.1497C29.2921 16.0035 27.2848 16.8672 25.2677 17.721C23.4455 18.4954 21.6135 19.2697 19.7816 20.0242C19.3723 20.193 19.2164 20.4213 19.1482 20.8979C18.8851 22.8735 18.5343 24.8491 18.2322 26.8247C17.9594 28.6018 17.706 30.3888 17.4234 32.3247C18.2614 31.8283 18.9923 31.4014 19.7134 30.9646C23.7378 28.5224 27.7623 26.0603 31.8062 23.6479C32.3909 23.3004 32.498 22.9331 32.3714 22.3175C32.1472 21.285 32.157 20.2327 32.196 19.1804C32.2057 19.0017 32.118 18.7437 32.4005 18.7833C32.3908 21.4142 32.7417 23.7968 33.6089 26.239C33.1217 25.5838 32.9463 24.8094 32.654 23.9556C27.694 26.9538 22.7536 29.942 17.7547 32.97C18.3102 33.377 18.8266 33.5657 19.4405 33.5657C22.9875 33.5557 26.5345 33.5061 30.0814 33.5955C31.3872 33.6252 32.5565 33.2976 33.7356 32.8608C34.0766 32.7317 34.252 32.4935 34.3885 32.146C34.6711 31.4014 34.6223 30.7263 34.369 29.9619C34.0182 28.9294 33.5992 27.8969 33.6089 26.7652C33.6089 26.6758 33.6284 26.5865 33.6479 26.4376C34.0572 26.7056 34.0182 27.1126 34.0571 27.4601C34.2715 29.5052 35.0803 31.3419 35.8014 33.2281C36.1912 34.2408 36.2886 35.3031 36.5419 36.3554C36.5809 36.5341 36.6783 36.6533 36.6394 36.8518C36.2593 36.2363 36.3471 35.5214 36.006 34.9059C35.9476 34.896 35.9086 34.8761 35.8794 34.8861C34.9731 35.164 34.9536 35.174 35.2849 36.0575C35.8306 37.4971 36.3958 38.9167 36.9805 40.3463C36.883 39.4032 36.7173 39.2047 36.8343 38.2417C37.3507 42.4908 38.9294 45.8562 38.4909 50.3634C40.4495 48.8544 42.0963 47.1766 43.6944 45.3003C42.2327 44.6947 43.9965 45.1315 44.1524 44.7741C44.318 44.4068 43.977 44.377 43.8016 44.2579C43.3533 43.96 42.8564 43.7317 42.4666 43.3544C42.4958 43.3048 42.5251 43.2552 42.5543 43.2055C43.022 43.4835 43.4995 43.7416 43.9575 44.0494C44.3473 44.3075 44.6006 44.2976 44.9319 43.8905C45.7894 42.868 48.0793 40.8726 48.2839 40.9222C48.3522 40.9818 48.3132 41.0115 48.2645 41.0413C46.53 42.2624 40.9757 49.0331 39.173 50.3734C37.8282 51.3761 37.458 52.7262 37.3605 54.265C37.3118 55.0493 37.4677 55.8138 37.5846 56.5881C37.7308 57.4915 37.6431 58.4347 37.6918 59.348C37.8477 62.0087 38.1498 64.6594 38.8417 67.2406C39.3094 68.968 40.2059 70.487 41.1511 71.9761C41.9209 73.1873 43.0902 73.9518 44.0744 74.9247C46.569 77.357 49.1123 79.7396 51.6458 82.1421C51.714 82.2017 51.792 82.2414 51.9869 82.3705C51.3925 80.1665 50.5155 78.2008 49.9308 76.116C50.4278 75.9572 50.6519 76.1359 50.7981 76.5826C51.3925 78.3895 52.0161 80.1765 52.6398 81.9734C52.6885 82.1322 52.7567 82.2811 52.8347 82.4896C53.2342 81.9436 53.3414 81.338 53.546 80.7821C54.043 79.4517 54.5107 78.1115 54.9687 76.7613C55.1149 76.3344 55.3877 76.1657 55.8944 76.1061C55.2903 78.2306 54.4425 80.1963 53.8773 82.301C54.4912 81.7351 55.1246 81.1891 55.7288 80.6133C58.8275 77.7044 61.9262 74.7857 65.0249 71.8669C65.8337 71.1124 66.6912 70.4076 67.4221 69.5835C68.1529 68.7496 68.6401 67.7271 69.2248 66.774C71.3685 63.2794 73.5123 59.7849 75.6561 56.2804C77.9655 52.5078 80.2652 48.7253 82.5746 44.9528C83.7147 43.0864 84.8743 41.22 86.0242 39.3535C86.2093 39.0557 86.3847 38.748 86.5309 38.4998C85.6052 39.423 84.6307 40.3463 83.705 41.3292C81.2591 43.9302 78.8425 46.5512 76.4064 49.1622C73.8924 51.8724 71.3783 54.5926 68.8447 57.293C68.4062 57.7596 68.4355 58.3453 68.3868 58.9013C68.0554 62.4256 67.2954 65.8209 65.5609 68.9184C65.4439 69.1269 65.5607 69.5338 65.3074 69.7125C65.2879 69.3452 65.5023 68.9878 65.6484 68.7197C67.2173 65.8804 67.6754 62.7135 67.997 59.497C68.2503 56.9952 68.3868 54.4834 68.5524 51.9717C68.7181 49.4302 69.0201 47.5341 69.2345 44.9926C69.3735 45.5387 69.176 45.0323 69.2832 44.9926C69.215 49.0332 68.7181 52.2695 68.6499 56.4888C75.3053 49.3409 81.8828 42.2822 88.509 35.1541C87.9048 34.7074 87.3884 34.2705 86.6868 34.2705C82.8962 34.2606 79.1154 34.2606 75.3248 34.2705C74.7206 34.2705 74.2042 34.6478 73.6293 34.7769C72.3235 35.0846 71.5537 35.7498 71.2614 37.2588C70.8521 39.3238 70.0433 41.2895 69.5463 43.3445C69.5171 43.4835 69.5074 43.6523 69.1955 43.821C69.79 41.4483 70.3941 39.2046 71.0567 36.9312ZM26.7391 34.2705C24.303 34.2705 21.8669 34.2705 19.421 34.2705C18.6025 34.2705 17.9789 34.7272 17.248 35.164C23.9327 42.3617 30.5589 49.4898 37.1754 56.6278C36.7856 54.9203 37.2241 53.3318 37.5164 51.7335C37.6041 51.2867 38.0036 51.0187 38.0621 50.562C38.257 49.1919 38.2278 47.8219 38.0426 46.4618C37.8672 45.1414 37.76 43.831 37.1754 42.5602C36.1717 40.3761 35.3824 38.0927 34.5054 35.8491C34.4274 35.6604 34.408 35.4023 34.1936 35.3328C33.1022 34.9456 32.1083 34.2705 30.8902 34.2904C29.5455 34.2904 28.2008 34.2705 26.7391 34.2705ZM76.2018 60.182C83.8609 51.9022 91.52 43.6324 99.2376 35.303C98.4093 34.7868 97.7272 34.35 96.8015 34.4095C95.5542 34.489 94.2874 34.4195 93.0304 34.4393C92.3288 34.4492 91.6467 34.5386 90.9646 34.7272C89.8342 35.0449 89.0742 35.6803 88.4505 36.7227C85.5272 41.627 82.5259 46.4817 79.5441 51.3463C76.9326 55.6053 74.3114 59.8444 71.6999 64.0935C71.3101 64.7388 70.9398 65.394 70.5598 66.0393C70.5987 66.0691 70.6377 66.0989 70.6767 66.1287C72.4989 64.163 74.3211 62.1973 76.2018 60.182ZM29.7306 60.043C31.7964 62.2966 33.872 64.5502 35.9378 66.7938C35.9378 66.5655 35.8599 66.4166 35.7624 66.2776C33.9695 63.3886 32.1667 60.4997 30.364 57.6206C28.269 54.275 26.1739 50.9293 24.0789 47.5737C21.594 43.5927 19.1384 39.6017 16.6341 35.6505C16.1372 34.8662 15.2796 34.4691 14.4124 34.4294C12.6292 34.34 10.8264 34.3698 9.04321 34.4095C8.23443 34.4294 7.52308 34.8563 6.802 35.174C6.87021 35.4718 7.05535 35.5909 7.19177 35.7398C9.18938 37.9041 11.1967 40.0683 13.1943 42.2326C15.4843 44.7145 17.7742 47.1965 20.0739 49.6784C21.8474 51.5945 23.6209 53.5105 25.4041 55.4166C26.8268 56.9455 28.2495 58.4645 29.7306 60.043ZM31.4846 51.4654C27.4212 47.0972 23.3675 42.7191 19.3041 38.3508C19.4113 38.7281 19.5769 39.0557 19.7718 39.3635C21.633 42.3418 23.5137 45.3102 25.3749 48.2885C27.5089 51.7037 29.6137 55.1287 31.7477 58.5439C34.0961 62.3164 36.4543 66.0691 38.8027 69.8417C39.0268 70.1991 39.3094 70.4473 39.7284 70.7649C39.2509 69.7126 38.8612 68.7695 38.6273 67.7668C37.9062 64.709 37.4774 61.6016 37.4092 58.4446C37.3995 58.0376 37.2923 57.7199 37.0195 57.4221C35.1875 55.4663 33.3653 53.4907 31.4846 51.4654ZM81.8341 33.5756C83.4809 33.5756 85.1179 33.5657 86.7647 33.5855C87.4079 33.5955 87.9048 33.2778 88.4895 32.9204C83.6075 29.9818 78.8133 27.0928 73.8729 24.1244C73.7754 27.2119 72.7133 29.9222 72.2261 32.7516C73.6293 33.2281 74.9837 33.6749 76.4649 33.6054C78.2091 33.516 79.9631 33.5756 81.8341 33.5756ZM15.6889 23.7571C12.6876 26.7652 9.6766 29.7633 6.59736 32.8409C7.49385 33.1686 8.20519 33.655 9.08219 33.655C10.5926 33.655 12.1127 33.6153 13.6231 33.6649C14.5196 33.6947 15.3284 33.4962 16.1274 33.1189C16.5562 32.9204 16.7218 32.6225 16.79 32.1659C17.209 29.3265 17.6573 26.4971 18.086 23.6578C18.2127 22.8437 18.3199 22.0296 18.4368 21.2156C18.3979 21.1957 18.3589 21.1758 18.3199 21.156C17.4624 21.9998 16.6049 22.8437 15.6889 23.7571ZM87.5638 21.1461C87.3884 21.3049 87.4956 21.4836 87.5248 21.6623C88.1777 25.1668 88.8208 28.6812 89.4737 32.1857C89.5127 32.4041 89.5127 32.702 89.727 32.8012C90.5456 33.1586 91.2667 33.7841 92.2314 33.7742C93.8977 33.7543 95.5542 33.7344 97.2205 33.7841C97.9903 33.8039 98.536 33.4068 99.2279 32.9502C95.3203 28.989 91.4616 25.0874 87.5638 21.1461ZM94.9695 44.0593C98.2826 40.9916 101.605 37.924 104.977 34.8066C103.34 34.6478 101.849 34.7471 100.417 35.3626C100.144 35.4817 99.8807 35.5711 99.6664 35.8093C98.2826 37.3184 96.8989 38.8274 95.5152 40.3265C92.8453 43.2055 90.1753 46.0846 87.5053 48.9636C84.1045 52.627 80.7134 56.2903 77.3224 59.9636C76.8254 60.4997 76.3577 61.0556 75.8802 61.6016C75.9095 61.6314 75.9484 61.6711 75.9777 61.7009C76.7767 60.9663 77.5757 60.2316 78.365 59.497C81.454 56.6278 84.543 53.7587 87.632 50.8896C90.0486 48.6261 92.4847 46.3625 94.9695 44.0593ZM25.219 56.2208C24.5953 55.5457 23.9619 54.8806 23.3383 54.2055C19.9765 50.562 16.6049 46.9185 13.2431 43.275C11.5086 41.3987 9.78379 39.5124 8.03954 37.646C6.87995 36.405 5.84704 35.0052 4.14177 34.479C3.25503 34.201 2.39752 34.3202 1.52052 34.35C1.50103 34.3996 1.48154 34.4592 1.45231 34.5088C10.7972 43.3842 20.1519 52.2497 29.4968 61.1251C29.5357 61.0854 29.5747 61.0457 29.6137 60.996C28.1813 59.4175 26.7293 57.8489 25.219 56.2208ZM67.2856 19.5973C67.4026 19.647 67.5292 19.6867 67.6364 19.7562C68.1237 20.0441 68.4842 19.915 68.8935 19.5179C70.1505 18.2869 71.466 17.1154 72.7425 15.9042C73.0251 15.6362 73.3856 15.4177 73.6 14.9909C73.4441 14.9809 73.3369 14.9611 73.2297 14.9611C71.086 14.9611 68.9519 15.0206 66.8082 14.9511C65.9994 14.9214 65.1808 14.9412 64.3721 14.9611C64.0797 14.971 63.7874 14.9909 63.7387 15.4277C63.6607 16.1127 63.5438 16.7878 63.4366 17.4629C63.3684 17.8699 63.4658 18.138 63.8848 18.2968C64.9957 18.6939 66.0968 19.1407 67.2856 19.5973ZM99.5592 30.0314C96.8405 27.9466 94.112 25.8617 91.3933 23.7868C91.4615 24.035 91.598 24.1839 91.7344 24.3329C93.8684 26.5269 95.983 28.7309 98.1462 30.905C99.1791 31.9475 100.202 33.0097 101.537 33.7047C102.57 34.2408 103.554 34.0422 104.626 33.9231C102.96 32.6424 101.294 31.3617 99.5592 30.0314ZM11.1772 26.3184C8.02005 28.6812 4.86286 31.044 1.67643 33.4366C1.80311 33.5458 1.83234 33.6054 1.88106 33.6054C3.3817 33.8536 4.79465 33.5061 5.90551 32.4935C7.72772 30.8355 9.46222 29.0585 11.187 27.2814C12.3076 26.1298 13.36 24.9087 14.0226 24.174C13.4379 24.6208 12.3368 25.4448 11.1772 26.3184ZM66.2625 20.0044C65.2685 19.6271 64.3038 19.1704 63.2514 18.8627C62.9201 20.6993 62.9396 22.4764 63.0176 24.3825C64.6059 23.0919 66.0871 21.8807 67.6072 20.6497C67.1979 20.2526 66.7302 20.2327 66.2625 20.0044ZM24.5076 16.0333C23.4942 16.8473 22.4808 17.6614 21.4674 18.4854C21.4966 18.5251 21.5161 18.5549 21.5453 18.5946C24.2445 17.4529 26.9437 16.3013 29.6429 15.1596C29.6332 15.11 29.6234 15.0603 29.6137 15.0008C28.8829 15.0008 28.1423 15.0603 27.4212 14.9909C26.3006 14.8618 25.3456 15.1199 24.5076 16.0333ZM79.4369 16.341C80.8596 16.9367 82.2921 17.5324 83.7147 18.128C82.6916 17.2147 81.5417 16.4999 80.5575 15.5964C79.32 14.4647 77.9558 15.1894 76.6598 14.971C76.65 15.0306 76.6403 15.0802 76.6208 15.1398C77.5368 15.527 78.443 15.9141 79.4369 16.341ZM33.6771 34.3202C34.252 34.6379 34.827 34.6478 35.4116 34.3202C35.5383 34.2507 35.7137 34.2308 35.7332 34.0422C35.7527 33.8238 35.5773 33.7742 35.4311 33.6848C34.5736 33.1289 33.8233 33.5955 32.9463 33.9429C33.2191 34.0918 33.4043 34.1911 33.6771 34.3202ZM6.64609 34.4492C6.89944 34.3202 7.22101 34.3202 7.4159 34.0621C6.56813 33.2976 5.79832 33.2678 4.67771 33.9926C5.32084 34.2507 5.80807 34.8464 6.64609 34.4492ZM99.491 33.6054C99.2376 33.794 98.8771 33.8238 98.7114 34.1613C99.7151 34.9258 100.319 34.9556 101.303 34.2606C101.05 34.1117 100.816 33.9628 100.573 33.8536C100.241 33.7245 99.9782 33.3473 99.491 33.6054ZM88.431 33.7245C88.3141 33.794 88.1387 33.8039 88.0997 33.9826C88.8403 34.7371 89.386 34.757 90.5358 34.1018C89.9219 33.4168 89.3275 33.3076 88.431 33.7245ZM17.5988 34.2308C17.7158 34.1415 17.9204 34.1117 17.8912 33.8933C16.9752 33.3572 16.4977 33.4068 15.7084 34.0918C16.2736 34.6677 16.8777 34.6974 17.5988 34.2308ZM72.2845 33.5458C71.8558 33.8139 72.0214 34.2606 71.8558 34.7272C72.4892 34.479 73.0154 34.35 73.5221 34.0323C73.142 33.7245 72.723 33.7245 72.2845 33.5458Z" fill="url(#paint0_linear_1309_502)"/>
<path d="M48.2256 1.24101C47.4948 1.90617 47.1537 2.75995 46.9393 3.64352C46.4229 5.83756 45.8967 8.04152 45.5264 10.2753C45.273 11.8041 45.3218 13.3926 45.2146 14.9512C45.1074 16.5397 45.3997 18.0983 45.4582 19.6669C45.4679 19.9846 45.4484 20.3023 45.1756 20.5703C45.1756 19.9747 45.1756 19.3691 45.1756 18.7734C45.1756 18.1877 45.0879 18.1281 44.5617 18.3167C43.0805 18.8528 41.6091 19.3989 40.128 19.935C39.9233 20.0045 39.67 20.2229 39.5336 19.8258C39.4166 19.4783 39.6018 19.3492 39.8844 19.2499C41.4142 18.694 42.9344 18.1083 44.474 17.5722C44.854 17.4332 45.0099 17.2545 44.9612 16.8375C44.9222 16.4007 44.9417 15.9639 44.9515 15.5171C44.9515 15.2788 44.893 15.0902 44.6299 15.0902C42.7882 15.0902 40.9465 15.0902 38.9879 15.0902C39.3094 16.4106 39.5628 17.463 39.5336 18.7734C38.6955 15.666 38.4225 12.7374 37.4676 9.64989C37.7794 9.85837 37.7308 10.0966 37.8185 10.3944C38.1499 11.4864 38.4422 12.5884 38.6176 13.7202C38.6858 14.1868 38.8807 14.3853 39.3777 14.3754C41.044 14.3357 42.7005 14.3556 44.3668 14.3655C44.7761 14.3655 44.9612 14.2662 44.9807 13.7996C45.0976 11.129 45.5556 8.51805 46.1598 5.91698C46.4424 4.69587 46.5593 3.43504 47.0952 2.28342C47.4655 1.49913 47.8748 0.744622 48.6933 0.387223C49.9406 -0.148876 51.1976 -0.0793815 52.4449 0.297873C53.2927 0.555994 53.7702 1.94588 53.3999 2.85923C53.205 2.61104 53.2342 2.30328 53.1952 2.05508C53.0783 1.18144 52.6008 0.6652 51.7823 0.526211C50.5253 0.317729 49.3072 0.287945 48.2256 1.24101Z" fill="url(#paint1_linear_1309_502)"/>
<path d="M46.5591 31.4908C46.5883 32.1361 46.7637 32.7318 46.5688 33.3076C46.4324 33.3175 46.3739 33.2679 46.3739 33.1885C46.5201 31.6596 45.9354 30.2697 45.6626 28.8203C45.6528 28.7607 45.6138 28.7111 45.6236 28.6515C45.6528 27.3907 44.9902 26.5964 44.045 25.9214C43.09 25.2264 42.1936 24.4322 41.1509 23.5784C42.1253 25.9313 42.0864 28.3437 42.671 30.6172C42.8659 31.3916 43.0511 32.1659 43.2557 32.9403C43.4701 33.7544 43.5188 33.7643 44.3276 33.7544C45.0194 33.7444 45.7113 33.7544 46.4811 33.7544C45.8769 34.2905 45.1851 34.3599 44.4835 34.3699C43.6455 34.3798 43.1777 34.0025 42.9341 33.0991C42.3982 31.0937 42.0084 29.0585 41.6089 27.0233C41.336 25.6434 41.1084 24.2646 40.6505 22.9343C40.5822 22.7457 40.6541 22.6749 40.7321 22.3573C42.3594 23.5188 43.509 24.7896 45.1559 26.0008C45.1948 24.3925 44.9902 23.2309 45.3995 21.712C45.4287 22.4069 45.38 22.7445 45.3995 23.4394C45.4579 26.0206 46.0329 28.5224 46.5103 31.0441C46.5396 31.1731 46.5396 31.3022 46.5591 31.4908Z" fill="url(#paint2_linear_1309_502)"/>
<path d="M52.1816 12.6182C52.2596 9.61006 52.7955 6.71116 53.2535 3.80233C53.2827 3.59384 53.3119 3.39529 53.4581 3.19673C53.6043 3.37543 53.5556 3.56406 53.5361 3.74276C53.2243 6.09564 52.8637 8.44851 52.6006 10.8113C52.4837 11.8438 52.5519 12.9061 52.5227 13.9584C52.5129 14.3357 52.7175 14.3952 53.0196 14.3952C54.1305 14.3853 55.2316 14.3853 56.3425 14.3952C56.5276 14.3952 56.7128 14.3357 56.8687 14.4449C56.4886 17.9692 56.1183 21.4936 55.7383 25.0576C55.446 24.9286 55.5434 24.7896 55.5532 24.6705C55.6798 22.0694 56.2548 19.508 56.2645 16.897C56.2645 16.4106 56.1281 16.1723 55.6896 16.0234C55.027 15.795 54.3741 15.5171 53.7212 15.2689C53.0683 15.0207 52.5421 15.388 52.5519 16.1028C52.5714 17.1452 52.6006 18.1976 52.6298 19.24C52.6396 19.4485 52.6493 19.647 52.396 19.925C52.318 17.4133 52.2498 15.0405 52.1816 12.6182ZM55.9722 15.0703C55.8942 15.1001 55.787 15.0902 55.7578 15.2391C55.9624 15.388 56.1671 15.4972 56.4302 15.3086C56.3522 15.0703 56.1866 15.0802 55.9722 15.0703Z" fill="url(#paint3_linear_1309_502)"/>
<path d="M53.2827 23.7472C53.4386 26.0901 53.156 28.3735 53.2145 30.6569C53.2242 31.1434 53.2827 31.6298 53.4289 32.1758C54.1012 31.6397 54.7444 31.3121 54.7346 30.2598C54.7151 28.8004 54.949 27.341 55.3096 25.9114C55.3583 25.7029 55.3875 25.4647 55.5824 25.2959C55.7091 25.5739 55.6311 25.8221 55.5824 26.0901C55.2511 28.0459 54.8613 29.9818 54.9685 31.9872C55.0075 32.7119 55.2511 33.4069 55.2121 34.1415C55.1926 34.5089 55.2121 34.896 54.8223 35.0747C54.4813 35.2336 54.2377 34.9854 53.9356 34.8365C53.3899 34.5585 53.3607 34.072 53.2632 33.6154C52.8734 31.8184 52.8442 29.9917 52.9806 28.1551C53.1658 25.7427 52.9027 23.3699 52.5324 20.9972C52.5032 20.8086 52.396 20.6001 52.6006 20.342C53.0683 21.4439 53.1268 22.5856 53.2827 23.7472ZM54.7249 32.9998C54.6469 32.7417 54.7639 32.434 54.5203 32.1758C54.2766 32.424 53.9356 32.5134 53.8187 32.8708C54.4131 33.1686 54.4715 33.1785 54.7249 32.9998ZM54.1207 34.2905C54.3059 34.2408 54.5105 34.221 54.6372 33.9827C54.3449 33.8636 54.111 33.6749 53.7894 33.6948C53.8089 33.9529 53.8674 34.1415 54.1207 34.2905Z" fill="url(#paint4_linear_1309_502)"/>
<path d="M61.9942 31.9276C62.0624 31.5007 62.0429 31.1036 62.2963 30.776C62.2573 31.4511 62.3353 32.1262 62.2184 32.8112C62.0819 33.6054 62.1599 33.6749 62.9199 33.6848C63.3584 33.6948 63.8067 33.6948 64.2452 33.7245C64.635 33.7444 64.8591 33.5856 64.9468 33.1785C65.2878 31.6199 65.6386 30.0612 66.0089 28.5025C66.1941 27.7282 66.4672 27.1028 66.7985 26.3781C66.8667 26.2391 66.9446 26.3284 67.0421 26.1299C67.159 26.4575 66.9444 26.4277 66.8567 26.6957C66.1941 28.721 65.8335 30.8256 65.3073 32.8906C65.0345 33.9529 64.8299 35.0251 64.3719 36.0278C63.8164 37.2489 63.4462 38.5395 63.1636 39.8599C63.2708 37.9935 63.8359 36.2462 64.5668 34.4195C63.7677 34.4195 63.0369 34.4096 62.3061 34.4195C62.0722 34.4195 62.0137 34.618 61.9845 34.8166C61.8383 36.276 61.6922 37.7354 61.5362 39.1947C61.4973 39.5621 61.7506 39.7408 61.9845 39.9195C62.2866 40.1577 62.5984 40.3761 62.9492 40.6442C61.7409 40.9718 59.9576 38.1325 60.0746 36.6731C60.4351 37.5864 60.6203 38.4402 61.2731 39.1848C61.3316 38.5594 61.3608 38.053 61.4193 37.5567C61.6532 35.6902 61.7019 33.8139 61.9942 31.9276Z" fill="url(#paint5_linear_1309_502)"/>
<path d="M59.7335 6.046C60.9029 5.70845 61.9747 5.8673 62.9589 6.5126C63.6215 6.9395 63.9626 7.95212 63.7092 8.65699C63.4949 8.53786 63.5533 8.32938 63.5338 8.16061C63.3877 7.02884 62.7251 6.35376 61.6239 6.21477C59.7043 5.9765 58.6227 6.64166 57.8918 8.48822C57.3169 9.9476 57.2195 11.4864 57.083 13.0252C57.0538 13.3627 56.9467 13.6903 56.9077 14.0179C56.7421 14.0179 56.8005 13.9286 56.8005 13.8591C56.7712 12.0026 56.8882 10.1561 57.5605 8.39887C57.9698 7.35646 58.6032 6.48282 59.7335 6.046Z" fill="url(#paint6_linear_1309_502)"/>
<path d="M61.2536 14.4151C59.9576 14.2761 58.7104 14.2563 57.4826 14.6434C58.9052 13.879 60.4156 14.2563 61.8968 14.2066C61.7311 14.4052 61.507 14.3952 61.2536 14.4151Z" fill="url(#paint7_linear_1309_502)"/>
<path d="M51.5482 32.017C51.9867 32.2155 52.3667 32.424 52.5129 32.9105C52.0354 32.6325 51.6067 32.2652 51.0707 32.0765C51.2266 31.8184 51.3728 31.9773 51.5482 32.017Z" fill="url(#paint8_linear_1309_502)"/>
<path d="M41.4239 72.5917C41.3265 72.6512 40.5957 71.7279 39.7966 70.1395C39.3971 69.3453 38.9781 68.3922 38.6176 67.3399C38.257 66.2875 37.9452 65.126 37.7211 63.9446C37.4969 62.7632 37.3703 61.5619 37.3215 60.4302C37.2923 59.8643 37.2923 59.3183 37.3021 58.802C37.3021 58.2858 37.3118 57.7993 37.3021 57.3625C37.2923 56.9157 37.2728 56.5186 37.2338 56.1513C37.1949 55.784 37.1656 55.4564 37.1364 55.1883C37.0779 54.6324 37.0779 54.2849 37.0779 54.2353C37.0779 54.1856 37.0584 53.858 37.1267 53.312C37.1656 53.034 37.2338 52.7064 37.3508 52.3589C37.4677 52.0015 37.6431 51.6243 37.8672 51.247C38.0914 50.8698 38.3739 50.4826 38.6955 50.1152C39.0171 49.738 39.3874 49.3806 39.7771 49.0331C40.5567 48.3283 41.4142 47.673 42.1743 46.9284C42.9441 46.1839 43.6554 45.3797 44.318 44.6153C44.9904 43.8508 45.614 43.136 46.1987 42.5602C46.7736 41.9844 47.2901 41.5377 47.6799 41.2696C47.7773 41.2001 47.865 41.1406 47.943 41.0909C48.0209 41.0413 48.0891 41.0016 48.1476 40.9718C48.2645 40.9122 48.3327 40.8924 48.3522 40.9221C48.4302 41.0314 47.6311 41.7164 46.5787 42.9276C46.0525 43.5331 45.4581 44.2579 44.815 45.0422C44.1719 45.8265 43.4605 46.6703 42.6712 47.4447C41.8819 48.229 41.0147 48.9041 40.2644 49.5791C39.8941 49.9167 39.5433 50.2542 39.2412 50.5918C38.9391 50.9293 38.6858 51.2768 38.4811 51.6143C38.2765 51.9519 38.1206 52.2795 38.0134 52.5873C37.9062 52.895 37.8477 53.1631 37.8088 53.4013C37.7406 53.8679 37.76 54.1757 37.76 54.2154C37.76 54.2551 37.7698 54.5728 37.8283 55.1089C37.8575 55.377 37.8965 55.7046 37.9354 56.0818C37.9744 56.4591 38.0037 56.886 38.0134 57.3426C38.0231 57.7993 38.0231 58.2957 38.0231 58.812C38.0231 59.3282 38.0231 59.8544 38.0524 60.4103C38.1011 61.5123 38.2278 62.6738 38.4324 63.8155C38.637 64.9672 38.9196 66.089 39.2412 67.1314C39.5628 68.1738 39.933 69.117 40.2741 69.9112C40.9562 71.5095 41.5409 72.5122 41.4239 72.5917Z" fill="url(#paint9_linear_1309_502)"/>
<path d="M32.2348 18.3663C32.1081 18.3564 32.0594 17.8302 31.9717 17.0459C31.9327 16.6588 31.8645 16.2021 31.7963 15.7156C31.728 15.2292 31.6501 14.703 31.5721 14.1768C31.4942 13.6507 31.426 13.1146 31.3772 12.6082C31.3578 12.3501 31.3285 12.1119 31.3188 11.8736C31.309 11.7545 31.309 11.6452 31.2993 11.5261C31.2993 11.4169 31.2993 11.3077 31.2993 11.1985C31.2993 10.7815 31.309 10.4241 31.3383 10.166C31.3578 9.90789 31.3772 9.75898 31.3772 9.73912C31.3772 9.71926 31.3967 9.57035 31.4455 9.33208C31.4942 9.09382 31.5721 8.74634 31.7865 8.35916C31.9911 7.97198 32.3225 7.5848 32.7512 7.29689C33.18 7.00899 33.7062 6.81043 34.2519 6.77072C34.5247 6.75087 34.7975 6.76079 35.0606 6.82036C35.3237 6.87 35.5673 6.95935 35.7915 7.06855C36.0156 7.17776 36.2105 7.30682 36.3859 7.45574C36.5613 7.59473 36.7074 7.75357 36.8341 7.90249C37.0777 8.21025 37.2142 8.49815 37.2824 8.71656C37.3116 8.82577 37.3213 8.91512 37.3213 8.97468C37.3213 9.03425 37.4968 9.0839 37.4676 9.10376C37.3409 9.1534 36.9413 8.72649 36.4541 8.27974C36.3372 8.17053 36.2007 8.06133 36.0448 7.95212C35.8889 7.85285 35.7233 7.75357 35.5381 7.68408C35.353 7.60465 35.1581 7.54509 34.9535 7.5153C34.7488 7.48552 34.5442 7.47559 34.3396 7.49545C33.9205 7.53516 33.5113 7.694 33.18 7.91241C33.0143 8.02162 32.8681 8.15068 32.7415 8.28967C32.6148 8.41873 32.5173 8.56765 32.4296 8.70663C32.264 8.98461 32.1958 9.27252 32.1471 9.481C32.0983 9.68948 32.0788 9.81854 32.0788 9.8384C32.0788 9.85825 32.0594 9.99724 32.0496 10.2355C32.0301 10.4738 32.0301 10.8014 32.0399 11.1985C32.0399 11.2978 32.0496 11.3971 32.0496 11.5063C32.0496 11.6155 32.0594 11.7247 32.0691 11.8339C32.0788 12.0622 32.1081 12.3005 32.1276 12.5387C32.1763 13.0351 32.2445 13.5514 32.303 14.0775C32.3712 14.6037 32.4296 15.1398 32.4686 15.6362C32.5076 16.1425 32.5271 16.6091 32.5173 17.0162C32.4784 17.8402 32.3517 18.3763 32.2348 18.3663Z" fill="url(#paint10_linear_1309_502)"/>
<path d="M52.381 19.9269C52.2543 19.9269 52.1524 19.2598 52.0744 18.4755C51.9964 17.6912 51.9672 16.6488 51.9575 15.5866C51.9575 14.5342 51.9867 13.472 52.0257 12.6678C52.0647 11.8637 52.1036 11.3176 52.1036 11.2779C52.1036 11.2382 52.1329 10.722 52.2011 9.97739C52.2595 9.2328 52.3667 8.25989 52.5032 7.28697C52.6298 6.32397 52.8052 5.36098 52.9611 4.65611C53.1268 3.95124 53.2925 3.48464 53.4094 3.50449C53.5361 3.52435 53.5361 4.01081 53.4776 4.73553C53.4191 5.46026 53.3119 6.41332 53.2048 7.37632C52.9806 9.3023 52.7857 11.2481 52.776 11.3276C52.776 11.3673 52.7565 11.9133 52.7273 12.7174C52.7078 13.5117 52.6786 14.564 52.6591 15.6064C52.6396 16.6488 52.6201 17.6912 52.5909 18.4656C52.5616 19.2598 52.5077 19.9269 52.381 19.9269Z" fill="url(#paint11_linear_1309_502)"/>
<path d="M46.598 33.9827C46.3544 34.0224 45.9939 32.4538 45.7016 30.8554C45.5554 30.0612 45.419 29.2571 45.3215 28.6416C45.2241 28.026 45.1754 27.5991 45.1656 27.5694C45.1656 27.5396 45.1071 27.1425 45.0389 26.5667C44.9805 25.9908 44.9123 25.2264 44.9025 24.462C44.8928 23.6975 44.9415 22.9331 45.0487 22.3672C45.0974 22.0892 45.1559 21.851 45.2241 21.6921C45.2923 21.5333 45.3508 21.4439 45.4092 21.4539C45.4677 21.4638 45.5164 21.5631 45.5359 21.7219C45.5554 21.8808 45.5651 22.119 45.5749 22.3871C45.5846 22.943 45.5846 23.6678 45.6236 24.4123C45.6821 25.8916 45.838 27.4006 45.8477 27.4602C45.8575 27.4899 45.9257 27.9069 46.0329 28.5125C46.1401 29.1181 46.2862 29.9222 46.4129 30.7264C46.6565 32.3446 46.8417 33.943 46.598 33.9827Z" fill="url(#paint12_linear_1309_502)"/>
<path d="M45.2728 21.0468C45.1559 21.0468 45.0292 20.193 44.961 18.9024C44.8928 17.6019 44.9123 15.8745 45.0194 14.1272C45.1266 12.3898 45.341 10.6425 45.5456 9.33208C45.6041 9.00447 45.6528 8.69671 45.6918 8.42866C45.7405 8.16061 45.7795 7.92234 45.8185 7.72379C45.8867 7.32668 45.9354 7.08841 45.9452 7.05863C45.9549 6.98913 46.1108 6.1552 46.3934 4.95395C46.4714 4.65611 46.5396 4.3285 46.6273 3.99095C46.715 3.65341 46.8124 3.28608 46.9488 2.90883C47.0171 2.7202 47.095 2.53157 47.1924 2.34295C47.2412 2.2536 47.2899 2.15432 47.3484 2.06497C47.3971 1.97562 47.4653 1.88627 47.5238 1.79692C47.7674 1.43952 48.0694 1.12183 48.4105 0.863712C48.7516 0.605591 49.1316 0.38718 49.5409 0.25812C49.9404 0.129059 50.3594 0.0595646 50.7687 0.0893478C51.1779 0.109203 51.558 0.218409 51.8893 0.377253C52.2206 0.536097 52.6396 0.714796 52.8637 0.943134C53.0878 1.17147 53.1171 1.43952 53.234 1.66786C53.2632 1.72743 53.2925 1.77707 53.3119 1.83663C53.3314 1.8962 53.3509 1.94584 53.3704 1.99548C53.4094 2.09475 53.4289 2.20396 53.4484 2.28338C53.4776 2.46208 53.4873 2.60107 53.4679 2.70035C53.4581 2.79962 53.4289 2.84926 53.3996 2.84926C53.3704 2.84926 53.3314 2.80955 53.2925 2.73013C53.2632 2.65071 53.2048 2.53157 53.1463 2.38266C53.1073 2.31316 53.0781 2.23374 53.0294 2.15432C53.0099 2.11461 52.9806 2.0749 52.9514 2.02526C52.9222 1.98555 52.8929 1.94584 52.8637 1.8962C52.737 1.72743 52.5714 1.5388 52.3765 1.37003C52.1719 1.20126 51.9282 1.05234 51.6554 0.943134C51.3826 0.833929 51.0707 0.754507 50.7589 0.754507C50.4373 0.754507 50.106 0.804146 49.7845 0.923279C49.4629 1.03248 49.1511 1.22111 48.8685 1.43952C48.5859 1.65793 48.3325 1.92598 48.1377 2.22381C48.0889 2.29331 48.0402 2.37273 47.9915 2.45215C47.9428 2.53157 47.9038 2.60107 47.8648 2.68049C47.7869 2.83933 47.7186 3.00811 47.6504 3.16695C47.4068 3.83211 47.2509 4.53698 47.1047 5.13264C46.8124 6.31405 46.637 7.13805 46.6273 7.20754C46.6175 7.23733 46.5786 7.47559 46.5103 7.8727C46.4811 8.07126 46.4324 8.2996 46.3934 8.56764C46.3544 8.83569 46.3057 9.13353 46.257 9.46114C46.0718 10.7617 45.8672 12.4792 45.7405 14.1967C45.6041 15.9142 45.5359 17.6218 45.4872 18.9124C45.4482 20.1831 45.3995 21.0468 45.2728 21.0468Z" fill="url(#paint13_linear_1309_502)"/>
<path d="M39.6795 18.9521C39.4359 19.0017 39.0753 17.8302 38.783 16.6389C38.6368 16.0432 38.5004 15.4376 38.403 14.971C38.3055 14.5144 38.2471 14.1967 38.2373 14.1669C38.2276 14.1173 38.0035 12.9954 37.7793 11.8835C37.6721 11.3276 37.5552 10.7815 37.4967 10.3546C37.4285 9.93767 37.3994 9.55043 37.5163 9.50079C37.6332 9.46108 37.8281 9.78876 37.9937 10.1859C38.1691 10.583 38.3348 11.1389 38.4712 11.7048C38.6076 12.2707 38.7051 12.8366 38.783 13.2734C38.8512 13.7102 38.8999 14.0081 38.8999 14.0279C38.9097 14.0478 38.9876 14.3655 39.0948 14.8221C39.202 15.2788 39.3482 15.8844 39.4749 16.49C39.738 17.6912 39.9231 18.9024 39.6795 18.9521Z" fill="url(#paint14_linear_1309_502)"/>
<path d="M46.1011 33.8933C46.1303 33.9529 46.0524 34.0522 45.877 34.1713C45.7016 34.2904 45.419 34.4195 45.0584 34.5089C44.8733 34.5486 44.6784 34.5783 44.4543 34.5783C44.2301 34.5783 43.9768 34.5585 43.7234 34.4195C43.5968 34.35 43.4798 34.2607 43.3824 34.1515C43.2849 34.0422 43.207 33.933 43.1388 33.8139C43.0023 33.5756 42.9244 33.3473 42.8269 33.1289C42.6418 32.6821 42.4664 32.2553 42.3007 31.8284C42.2228 31.61 42.1448 31.4015 42.0766 31.1831C42.0182 30.9746 41.9694 30.7661 41.9305 30.5775C41.8622 30.2002 41.833 29.8925 41.794 29.674C41.7648 29.4556 41.7453 29.3266 41.7453 29.3067C41.7356 29.2372 41.4725 27.48 41.1314 25.7625C40.9658 24.8988 40.7806 24.045 40.6734 23.3898C40.5565 22.7445 40.5175 22.2977 40.6345 22.258C40.7514 22.2183 40.956 22.6154 41.1801 23.2409C41.4043 23.8663 41.6381 24.7201 41.833 25.5937C42.0279 26.4674 42.1741 27.3509 42.2715 28.026C42.369 28.7011 42.4177 29.1677 42.4177 29.2074C42.4177 29.2273 42.4469 29.3564 42.4761 29.5748C42.5151 29.7932 42.5541 30.1009 42.6223 30.4385C42.6613 30.6072 42.7003 30.7859 42.7587 30.9746C42.8172 31.1632 42.8854 31.3518 42.9634 31.5603C43.129 31.9773 43.3044 32.424 43.4798 32.8608C43.5675 33.0892 43.6455 33.3076 43.7332 33.4764C43.8209 33.6451 43.9183 33.7643 44.0255 33.8338C44.2496 33.9827 44.6589 33.9827 44.9707 33.9628C45.6139 33.933 46.0426 33.7742 46.1011 33.8933Z" fill="url(#paint15_linear_1309_502)"/>
<path d="M56.7225 14.2463C56.4789 14.1967 56.6835 12.36 56.9564 10.5135C57.0246 10.0469 57.0928 9.5902 57.1707 9.15338C57.2487 8.70663 57.3461 8.27974 57.4923 7.91241C57.6385 7.54509 57.8334 7.24726 57.9893 7.05863C58.1452 6.87 58.2621 6.77072 58.2719 6.7608C58.3011 6.74094 58.6616 6.37361 59.3048 6.06585C59.4607 5.98643 59.6458 5.91694 59.831 5.84744C60.0259 5.78788 60.2305 5.73824 60.4546 5.69853C60.8931 5.62903 61.3706 5.62903 61.8383 5.75809C62.0624 5.81766 62.2963 5.89708 62.5009 6.01621C62.7056 6.13535 62.8907 6.26441 63.0564 6.42325C63.3779 6.73101 63.6021 7.07848 63.7287 7.41603C63.8554 7.74364 63.8749 8.04148 63.8457 8.24003C63.8359 8.33931 63.8067 8.41873 63.7775 8.46837C63.7482 8.51801 63.7093 8.71661 63.6801 8.70668C63.5436 8.69675 63.5338 8.13083 63.2513 7.65429C63.1148 7.41603 62.9102 7.15791 62.6374 6.93949C62.5009 6.83029 62.3548 6.74094 62.1891 6.65159C62.0332 6.57217 61.8578 6.5126 61.6824 6.47289C61.3219 6.38354 60.9418 6.38354 60.5813 6.43318C60.4059 6.46296 60.2305 6.50267 60.0648 6.55231C59.9089 6.60195 59.753 6.66152 59.6166 6.72108C59.3437 6.84022 59.1294 6.97921 58.9735 7.08841C58.8273 7.19762 58.7396 7.26711 58.7298 7.27704C58.7201 7.28697 58.6324 7.36639 58.5155 7.5153C58.3985 7.66422 58.2621 7.88263 58.1549 8.19039C58.038 8.48822 57.96 8.86548 57.8918 9.29237C57.8236 9.72919 57.7457 10.1859 57.6677 10.6425C57.3461 12.4792 56.9661 14.296 56.7225 14.2463Z" fill="url(#paint16_linear_1309_502)"/>
<path d="M55.6344 25.1215C55.381 25.0917 55.3778 23.5089 55.4947 22.1786C55.5532 21.5134 55.6214 20.8383 55.6701 20.332C55.7286 19.8257 55.7675 19.4782 55.7675 19.4485C55.7773 19.3988 55.904 18.1479 56.0891 16.9169C56.2742 15.6858 56.5081 14.4747 56.7615 14.5044C57.0148 14.5342 56.9466 15.7653 56.8102 16.9963C56.742 17.6118 56.6543 18.2373 56.5861 18.7039C56.5081 19.1705 56.4594 19.4981 56.4594 19.5279C56.4594 19.5577 56.4302 19.9051 56.3912 20.4214C56.3522 20.9376 56.2937 21.6028 56.2158 22.2679C56.0501 23.5983 55.8805 25.2018 55.6344 25.1215Z" fill="url(#paint17_linear_1309_502)"/>
<path d="M62.3822 30.4971C62.2585 30.4671 62.3251 29.8085 62.3441 28.8205C62.3726 27.8325 62.3061 26.5152 62.2395 25.1779C62.1634 23.8406 62.1349 22.4734 62.23 21.4255C62.2395 21.2958 62.249 21.166 62.268 21.0463C62.287 20.9265 62.2965 20.8167 62.3156 20.707C62.3441 20.4874 62.3726 20.2978 62.4012 20.1481C62.4582 19.8387 62.4963 19.6491 62.5058 19.6291C62.5153 19.5992 62.5534 19.4296 62.6104 19.1501C62.677 18.8707 62.7626 18.4815 62.8577 18.0224C62.9528 17.5633 63.0384 17.0444 63.0955 16.4756C63.1621 15.9067 63.2001 15.2979 63.2191 14.6792C63.2667 13.4517 63.2857 12.2042 63.3713 11.2761C63.4569 10.348 63.6091 9.73922 63.7232 9.7492C63.8469 9.75918 63.8659 10.3679 63.8849 11.2861C63.904 12.2042 63.942 13.4317 63.9135 14.6892C63.8945 15.3179 63.8659 15.9466 63.7993 16.5454C63.7328 17.1442 63.6376 17.7031 63.533 18.1721C63.4284 18.6412 63.3238 19.0304 63.2572 19.3098C63.1906 19.5892 63.1526 19.7589 63.1431 19.7788C63.1335 19.7988 63.105 19.9884 63.0575 20.2878C63.0289 20.4375 63.0099 20.6171 62.9909 20.8167C62.9814 20.9165 62.9623 21.0263 62.9528 21.1361C62.9433 21.2459 62.9338 21.3656 62.9243 21.4954C62.8482 22.4933 62.8863 23.8206 62.9338 25.1579C62.9814 26.4952 63.0004 27.8525 62.8577 28.8704C62.7341 29.8783 62.4963 30.527 62.3822 30.4971Z" fill="url(#paint18_linear_1309_502)"/>
<path d="M61.5947 39.4131C61.0978 39.3723 61.4876 34.9822 61.4876 34.9005C61.4973 34.8189 61.7799 30.7453 62.2866 30.7964C62.7836 30.8372 62.1794 34.8801 62.1794 34.9618C62.1697 35.0435 62.0917 39.4539 61.5947 39.4131Z" fill="url(#paint19_linear_1309_502)"/>
<path d="M54.8223 34.1117C54.8321 34.1713 54.7151 34.2507 54.5008 34.2408C54.2864 34.2408 53.9648 34.1217 53.692 33.8536C53.4094 33.5856 53.2047 33.1587 53.0878 32.7119C53.0293 32.4935 52.9806 32.2652 52.9514 32.0368C52.9222 31.8085 52.8734 31.5702 52.854 31.3419C52.7468 30.3988 52.7273 29.4556 52.737 28.7508C52.737 28.036 52.7565 27.5495 52.7565 27.5197C52.7565 27.48 52.7663 27.0333 52.7857 26.378C52.8052 25.7228 52.8247 24.869 52.8052 24.0251C52.7955 23.8167 52.7955 23.5983 52.7857 23.3997C52.776 23.1912 52.7662 22.9927 52.7565 22.7941C52.737 22.5955 52.7273 22.4069 52.7175 22.2282C52.7078 22.0495 52.6883 21.8808 52.6785 21.7219C52.6591 21.5631 52.6591 21.4141 52.6493 21.2851C52.6396 21.156 52.6298 21.0468 52.6298 20.9475C52.6298 20.7589 52.5405 20.3654 52.599 20.3455C52.6575 20.3257 52.8539 20.6894 52.9416 20.8681C52.9806 20.9575 53.0293 21.0667 53.0781 21.1858C53.1268 21.3149 53.1658 21.4539 53.2047 21.6127C53.2437 21.7715 53.2924 21.9403 53.3217 22.1289C53.3509 22.3176 53.3899 22.5062 53.4191 22.7147C53.4386 22.9232 53.4678 23.1316 53.4873 23.3401C53.5068 23.5585 53.5166 23.777 53.5263 23.9954C53.5653 24.869 53.5361 25.7427 53.5068 26.3979C53.4678 27.0531 53.4484 27.5098 53.4484 27.5396C53.4484 27.5793 53.4581 28.0558 53.4678 28.7607C53.4776 29.4656 53.5068 30.3789 53.5848 31.2823C53.6043 31.5107 53.6335 31.7291 53.653 31.9475C53.6725 32.1659 53.7017 32.3843 53.7407 32.5729C53.8089 32.9601 53.9356 33.2778 54.0915 33.4962C54.2571 33.7146 54.4423 33.8536 54.5787 33.9231C54.7151 34.0125 54.8126 34.0422 54.8223 34.1117Z" fill="url(#paint20_linear_1309_502)"/>
<path d="M54.8008 34.082C54.5867 34.082 54.4715 32.9819 54.4303 31.8618C54.4138 31.3018 54.4138 30.7318 54.4303 30.3017C54.4468 29.8717 54.4715 29.5717 54.4715 29.5517C54.4715 29.5317 54.4879 29.2517 54.5291 28.8517C54.5703 28.4516 54.6444 27.9216 54.7514 27.4116C54.8585 26.9016 55.0067 26.4015 55.1632 26.0515C55.3196 25.7015 55.4926 25.2595 55.5914 25.3095C55.6902 25.3595 55.6572 25.8515 55.5914 26.2215C55.5337 26.5915 55.4349 27.0716 55.3526 27.5716C55.1796 28.5516 55.0561 29.5817 55.0561 29.6217C55.0561 29.6417 55.0479 29.9317 55.0479 30.3517C55.0479 30.7718 55.0479 31.3318 55.0479 31.8818C55.0396 32.9719 55.0149 34.082 54.8008 34.082Z" fill="url(#paint21_linear_1309_502)"/>
<path d="M67.1003 25.693C66.9834 25.6632 66.9736 25.2562 67.0613 24.6705C67.149 24.0748 67.3342 23.3004 67.5778 22.536C67.6947 22.1587 67.8311 21.7716 67.9773 21.4142C68.1235 21.0568 68.2794 20.7291 68.445 20.4512C68.7666 19.8952 69.0687 19.5676 69.0882 19.5378C69.1077 19.518 69.3708 19.1804 69.8677 18.8329C70.1211 18.6542 70.4329 18.4855 70.7934 18.3564C71.154 18.2373 71.5632 18.1678 71.9725 18.2075C72.0797 18.2174 72.1772 18.2373 72.2746 18.2472C72.372 18.277 72.4695 18.2968 72.5669 18.3266C72.7618 18.3862 73.1711 18.4856 73.327 18.5849C73.7655 18.8329 73.8727 19.0117 74.0188 19.2798C74.1748 19.5379 74.0227 19.8151 74.0383 19.9746C74.0578 20.1733 74.2429 20.6698 74.1065 20.1733C74.087 20.2229 74.1358 20.5605 74.1065 20.5704C73.9604 20.5704 73.7168 19.9548 73.405 19.6272C73.249 19.4584 73.0347 19.2896 72.7813 19.1606C72.6546 19.101 72.5182 19.0414 72.372 19.0017C72.3038 18.9819 72.2259 18.9719 72.1577 18.9521C72.0797 18.9421 72.0115 18.9322 71.9335 18.9322C71.6315 18.9124 71.3196 18.962 71.0273 19.0613C70.7447 19.1606 70.4816 19.2896 70.2672 19.4286C69.8482 19.7066 69.6046 19.9846 69.5851 19.9945C69.5656 20.0143 69.322 20.3122 69.0492 20.8086C68.9128 21.0568 68.7666 21.3645 68.6399 21.6921C68.5035 22.0297 68.3768 22.3871 68.2502 22.7643C67.9968 23.499 67.7629 24.2436 67.568 24.7896C67.3829 25.3555 67.227 25.7129 67.1003 25.693Z" fill="url(#paint22_linear_1309_502)"/>
<path d="M63.1051 39.8401C63.0466 39.8401 62.9979 39.7209 62.9589 39.5124C62.9297 39.304 62.9297 39.0061 62.9687 38.6587C63.0077 38.3013 63.0954 37.9041 63.222 37.4772C63.339 37.0504 63.4949 36.6135 63.6508 36.1767C63.8067 35.7399 63.9529 35.313 64.0795 34.906C64.138 34.7074 64.2062 34.5089 64.2549 34.3103C64.3037 34.1217 64.3524 33.943 64.3914 33.7742C64.557 33.0991 64.6545 32.6325 64.6642 32.5928C64.674 32.563 64.7617 32.1163 64.8981 31.4809C65.0345 30.8356 65.2196 29.9917 65.4632 29.1578C65.7069 28.3239 66.0284 27.5098 66.3402 26.9439C66.4182 26.8049 66.4962 26.6759 66.5741 26.5667C66.6521 26.4574 66.7203 26.3681 66.7885 26.2986C66.9152 26.1596 67.0126 26.0901 67.0613 26.1199C67.1198 26.1497 67.1101 26.2688 67.0613 26.4475C67.0419 26.5369 67.0029 26.6461 66.9639 26.7652C66.9249 26.8843 66.8762 27.0233 66.8275 27.1623C66.6228 27.7481 66.3695 28.5323 66.1551 29.3464C65.9407 30.1605 65.7556 30.9944 65.5997 31.6298C65.4535 32.2652 65.3366 32.7119 65.3268 32.7417C65.3171 32.7715 65.2391 33.258 65.0832 33.9529C65.0442 34.1316 64.9955 34.3202 64.9468 34.5089C64.8981 34.7074 64.8396 34.9159 64.7714 35.1244C64.6447 35.5513 64.4791 35.998 64.3231 36.4249C64.1575 36.8617 63.9918 37.2787 63.8457 37.6758C63.6995 38.0729 63.5826 38.4402 63.4949 38.7579C63.3974 39.0756 63.339 39.3437 63.2805 39.5323C63.222 39.7308 63.1733 39.8401 63.1051 39.8401Z" fill="url(#paint23_linear_1309_502)"/>
<path d="M69.1759 44.4267C69.1174 44.4167 69.0784 44.2281 69.0784 43.8806C69.0784 43.5431 69.1077 43.0566 69.1856 42.4808C69.2636 41.905 69.3903 41.2399 69.5462 40.5251C69.7021 39.8202 69.9067 39.0657 70.1113 38.3211C70.316 37.5765 70.5303 36.8319 70.7252 36.137C70.9201 35.4421 71.0955 34.7769 71.2417 34.211C71.534 33.0693 71.7192 32.285 71.7387 32.2354C71.7484 32.1758 71.9238 31.4511 72.1674 30.3789C72.4013 29.3166 72.6936 27.9069 72.9664 26.5071C73.2295 25.1073 73.4927 23.7075 73.6875 22.6551C73.785 22.1289 73.8824 21.6921 73.9604 21.3943C74.0383 21.0965 74.1163 20.9178 74.1845 20.9277C74.243 20.9376 74.2722 21.1163 74.2819 21.434C74.2917 21.7517 74.2625 22.1984 74.2137 22.7246C74.1163 23.7968 73.9214 25.2165 73.6778 26.6262C73.4342 28.0459 73.1224 29.4556 72.8788 30.5278C72.6254 31.6 72.4305 32.3247 72.4208 32.3843C72.411 32.4439 72.2356 33.2381 71.953 34.3897C71.8166 34.9655 71.6412 35.6307 71.4463 36.3356C71.2514 37.0404 71.0371 37.785 70.8227 38.5296C70.6083 39.2742 70.3939 40.0088 70.2088 40.6938C70.0236 41.3789 69.858 42.0242 69.7313 42.5801C69.5949 43.1361 69.5072 43.5927 69.4195 43.9204C69.3123 44.248 69.2343 44.4267 69.1759 44.4267Z" fill="url(#paint24_linear_1309_502)"/>
<path d="M65.2878 69.7424C65.1709 69.6829 65.4827 68.9284 65.8433 67.7867C66.0284 67.2109 66.2233 66.5457 66.389 65.811C66.5546 65.0764 66.7008 64.2822 66.8665 63.488C67.1783 61.8896 67.5193 60.2813 67.7629 59.0701C68.0065 57.8589 68.1235 57.025 68.1332 56.9654C68.1332 56.9356 68.1722 56.7272 68.2112 56.3797C68.2502 56.0322 68.2989 55.5656 68.3281 54.9997C68.3573 54.4338 68.3671 53.7786 68.3573 53.0638C68.3573 52.349 68.3671 51.5846 68.3963 50.8201C68.4645 49.3012 68.6107 47.7922 68.7958 46.6703C68.981 45.5485 69.1856 44.8238 69.3026 44.8436C69.4292 44.8635 69.3903 45.6081 69.322 46.7299C69.2441 47.8517 69.1466 49.3409 69.1077 50.84C69.0882 51.5945 69.0784 52.3391 69.0784 53.0539C69.0784 53.7687 69.0687 54.4438 69.0297 55.0394C68.9907 55.6252 68.9323 56.1216 68.8835 56.469C68.8348 56.8264 68.7958 57.0349 68.7958 57.0647C68.7861 57.1243 68.6886 57.988 68.4548 59.219C68.2209 60.4501 67.8896 62.0484 67.5583 63.6468C67.3926 64.441 67.2172 65.2452 67.0126 65.9898C66.808 66.7343 66.5741 67.4193 66.3305 67.9852C65.853 69.117 65.395 69.802 65.2878 69.7424Z" fill="url(#paint25_linear_1309_502)"/>
<path d="M38.5199 50.701C38.4614 50.6911 38.4127 50.5819 38.3932 50.3933C38.3835 50.3039 38.3737 50.1947 38.364 50.0656C38.364 50.0061 38.364 49.9366 38.3543 49.8671C38.3445 49.7976 38.3445 49.7281 38.3348 49.6487C38.325 49.4998 38.3153 49.331 38.3055 49.1622C38.2958 48.9934 38.2763 48.8048 38.2666 48.6162C38.2568 48.5169 38.2568 48.4276 38.2471 48.3283C38.2373 48.229 38.2276 48.1297 38.2081 48.0305C38.1789 47.8319 38.1691 47.6333 38.1399 47.4348C38.0327 46.6306 37.8768 45.8265 37.7598 45.211C37.6916 44.9032 37.6429 44.6451 37.6039 44.4565C37.565 44.2678 37.5357 44.1586 37.5357 44.1388C37.526 44.109 37.4383 43.7119 37.3116 43.146C37.1849 42.5702 37.0193 41.8157 36.8926 41.0512C36.7562 40.2868 36.6782 39.5224 36.6587 38.9366C36.649 38.3509 36.7074 37.9637 36.8341 37.9538C36.9608 37.9439 37.068 38.3112 37.1849 38.8572C37.3019 39.4132 37.4383 40.1478 37.5942 40.8924C37.7404 41.637 37.8963 42.3915 38.0132 42.9673C38.1301 43.5431 38.1983 43.9402 38.1983 43.97C38.1983 43.9899 38.2276 44.0991 38.2763 44.2877C38.325 44.4763 38.3835 44.7344 38.4614 45.0422C38.5979 45.6676 38.7635 46.4916 38.8512 47.3355C38.8805 47.544 38.8805 47.7624 38.8999 47.961C38.9097 48.0602 38.9097 48.1694 38.9194 48.2687C38.9194 48.368 38.9194 48.4673 38.9194 48.5665C38.9194 48.7651 38.9194 48.9537 38.9097 49.1424C38.8902 49.3211 38.8805 49.4998 38.861 49.6487C38.8512 49.7281 38.8415 49.7976 38.8317 49.877C38.822 49.9465 38.8025 50.016 38.7928 50.0756C38.7635 50.2046 38.7343 50.3138 38.7051 50.4032C38.6466 50.6117 38.5784 50.7109 38.5199 50.701Z" fill="url(#paint26_linear_1309_502)"/>
<path d="M56.1768 49.5593C56.1573 49.4998 56.3327 49.4005 56.6445 49.2714C56.9564 49.1424 57.4046 48.9835 57.9405 48.785C58.4765 48.5864 59.0806 48.3382 59.7043 48.0106C60.0161 47.8517 60.3279 47.673 60.6203 47.4546C60.7762 47.3554 60.9126 47.2362 61.0588 47.127C61.1952 47.0079 61.3413 46.8888 61.468 46.7597C61.7409 46.5115 61.9747 46.2435 62.0917 45.9754C62.2086 45.7074 62.2281 45.3698 62.2378 45.0124C62.2378 44.6451 62.2378 44.2976 62.2086 43.9899C62.1794 43.6821 62.1112 43.414 62.0137 43.1857C61.9065 42.9673 61.7798 42.7886 61.6337 42.6794C61.4973 42.5702 61.3511 42.5106 61.2244 42.4808C61.088 42.4511 60.9711 42.4411 60.8834 42.4411C60.7957 42.4411 60.7469 42.4411 60.7274 42.4411C60.6982 42.4411 60.5228 42.4511 60.211 42.5007C60.0551 42.5305 59.8504 42.5603 59.6166 42.5801C59.4996 42.6 59.3827 42.6099 59.2463 42.6198C59.1781 42.6298 59.1196 42.6298 59.0514 42.6397C58.9832 42.6397 58.915 42.6496 58.8468 42.6496C58.2816 42.6794 57.6385 42.6595 56.9564 42.59C56.2742 42.5205 55.5629 42.4113 54.8516 42.2724C54.15 42.1334 53.4581 41.9745 52.8052 41.8256C52.1621 41.6767 51.5579 41.5278 51.0415 41.3888C50.0183 41.1108 49.346 40.8825 49.3655 40.7633C49.3849 40.6343 50.0963 40.6938 51.1389 40.8626C51.6651 40.942 52.2693 41.0512 52.9222 41.1704C53.575 41.2895 54.2669 41.4285 54.9685 41.5576C55.6603 41.6866 56.3522 41.7859 57.0148 41.8554C57.6677 41.9249 58.2816 41.9447 58.8078 41.9249C58.876 41.9249 58.9345 41.9249 59.0027 41.915C59.0612 41.915 59.1294 41.905 59.1878 41.905C59.3048 41.8951 59.4217 41.8852 59.5289 41.8752C59.7433 41.8554 59.9381 41.8256 60.1038 41.8058C60.4351 41.7561 60.6592 41.7561 60.6885 41.7561C60.708 41.7561 60.7664 41.7462 60.8834 41.7462C61.0003 41.7462 61.1562 41.7462 61.3706 41.7958C61.5752 41.8455 61.8383 41.9348 62.0722 42.1234C62.306 42.3121 62.5107 42.5702 62.6568 42.8879C62.7251 43.0467 62.7933 43.2155 62.8322 43.3942C62.8712 43.5729 62.9102 43.7516 62.9199 43.9303C62.9589 44.2976 62.9492 44.6649 62.9492 45.0323C62.9492 45.2209 62.9394 45.4294 62.9102 45.6379C62.881 45.8463 62.8322 46.0747 62.7348 46.2931C62.6374 46.5115 62.5009 46.7001 62.3645 46.8689C62.2183 47.0377 62.0722 47.1767 61.926 47.3157C61.7798 47.4546 61.6142 47.5837 61.4583 47.7128C61.2926 47.8319 61.1367 47.951 60.9613 48.0602C60.63 48.2786 60.289 48.4573 59.9479 48.6162C59.2755 48.9339 58.6227 49.1523 58.0575 49.3012C57.4923 49.4501 57.0246 49.5395 56.6835 49.5891C56.3912 49.6288 56.1865 49.6189 56.1768 49.5593Z" fill="url(#paint27_linear_1309_502)"/>
<path d="M45.9647 56.9059C45.8477 56.8761 45.8087 56.5683 45.9159 56.1216C46.0134 55.6748 46.2667 55.1089 46.637 54.6126C46.9976 54.1162 47.475 53.6893 47.8648 53.4311C48.2546 53.173 48.4982 53.034 48.5177 53.0241C48.5372 53.0142 48.7613 52.8752 49.0634 52.6469C49.3655 52.4185 49.7455 52.071 50.0963 51.6938C50.4568 51.3165 50.7979 50.9194 51.0805 50.6414C51.3631 50.3635 51.5872 50.1947 51.6944 50.2642C51.7918 50.3337 51.7041 50.6017 51.5092 50.9591C51.3143 51.3165 51.0025 51.7633 50.6322 52.1803C50.2717 52.5972 49.8429 52.9745 49.4921 53.2227C49.1413 53.4709 48.8782 53.6098 48.8587 53.6198C48.8393 53.6297 48.5762 53.8084 48.2351 54.0467C47.9038 54.2849 47.5043 54.6523 47.173 55.0692C46.8416 55.4862 46.5786 55.9528 46.3934 56.3102C46.218 56.6875 46.0913 56.9356 45.9647 56.9059Z" fill="url(#paint28_linear_1309_502)"/>
<path d="M51.7918 61.9591C51.6651 61.9194 51.6944 61.5322 51.7431 60.9564C51.7821 60.3905 51.821 59.636 51.7723 58.8815C51.7431 58.5042 51.7041 58.1369 51.6456 57.7894C51.5872 57.442 51.519 57.1243 51.4508 56.8463C51.3046 56.3003 51.1682 55.923 51.1584 55.8932C51.1487 55.8634 51.022 55.516 50.8369 54.9898C50.7492 54.7217 50.6517 54.414 50.564 54.0665C50.4763 53.719 50.4178 53.3418 50.4081 52.9447C50.3984 52.5575 50.4471 52.1604 50.5445 51.8129C50.642 51.4654 50.8076 51.1478 50.983 50.9194C51.1584 50.6911 51.3533 50.5322 51.4995 50.4627C51.6554 50.3933 51.7528 50.3932 51.7918 50.4429C51.8698 50.5521 51.6262 50.7804 51.4313 51.1974C51.3338 51.4059 51.2364 51.664 51.1877 51.9618C51.1292 52.2597 51.1097 52.5774 51.1292 52.905C51.1487 53.2227 51.2072 53.5602 51.2754 53.8779C51.3533 54.1956 51.441 54.4934 51.519 54.7515C51.6846 55.2777 51.7918 55.6351 51.8016 55.6649C51.8113 55.6947 51.977 56.0719 52.1426 56.6676C52.2206 56.9654 52.3083 57.3129 52.3667 57.6901C52.4252 58.0674 52.4739 58.4744 52.4837 58.8715C52.5129 59.6757 52.4155 60.4898 52.2595 61.0656C52.1134 61.6414 51.9087 61.9889 51.7918 61.9591Z" fill="url(#paint29_linear_1309_502)"/>
<path d="M52.8345 71.5791C52.5811 71.5691 52.6201 68.9978 52.6688 66.4166C52.6883 65.126 52.698 63.8255 52.7078 62.8426C52.7078 62.3463 52.698 61.9392 52.698 61.6414C52.698 61.3436 52.6883 61.1649 52.6883 61.1351C52.6883 61.1152 52.6883 60.9464 52.6786 60.6685C52.6786 60.5295 52.6688 60.3607 52.6688 60.1721C52.6591 59.9835 52.6493 59.775 52.6493 59.5466C52.6201 58.6333 52.5519 57.442 52.4544 56.2506C52.4252 55.9528 52.4057 55.655 52.3765 55.367C52.3472 55.0791 52.318 54.7912 52.2888 54.5133C52.2401 53.9573 52.1718 53.4411 52.1329 53.0042C52.1134 52.7858 52.0842 52.5774 52.0744 52.3987C52.0549 52.22 52.0452 52.0611 52.0452 51.9221C52.0354 51.6541 52.0647 51.4952 52.1231 51.4853C52.1816 51.4754 52.2595 51.6044 52.357 51.8526C52.4057 51.9718 52.4544 52.1306 52.5032 52.3093C52.5519 52.488 52.6103 52.6866 52.6591 52.905C52.7565 53.3418 52.8735 53.858 52.9514 54.4239C52.9904 54.7019 53.0391 54.9898 53.0781 55.2876C53.1073 55.5855 53.1463 55.8833 53.1755 56.1811C53.2925 57.3824 53.3607 58.6035 53.3802 59.5268C53.3802 59.7551 53.3899 59.9735 53.3899 60.1622C53.3899 60.3508 53.3899 60.5196 53.3899 60.6585C53.3899 60.9365 53.3899 61.1053 53.3899 61.1351C53.3899 61.1549 53.3996 61.3436 53.4094 61.6414C53.4191 61.9392 53.4289 62.3562 53.4386 62.8526C53.4484 63.8453 53.4484 65.1558 53.3996 66.4464C53.2925 69.0376 53.0781 71.5989 52.8345 71.5791Z" fill="url(#paint30_linear_1309_502)"/>
<path d="M36.7074 37.4971C36.5808 37.517 36.4054 36.9312 36.0643 36.0874C35.8987 35.6605 35.694 35.1641 35.4894 34.628C35.392 34.3599 35.2848 34.072 35.1776 33.7941C35.0801 33.5062 34.9729 33.2083 34.8755 32.9204C34.4857 31.739 34.1349 30.5477 33.8913 29.6244C33.6477 28.7111 33.5015 28.0757 33.4918 28.026C33.482 28.0062 33.4431 27.8473 33.3846 27.5793C33.3261 27.3212 33.2384 26.9538 33.1507 26.5269C32.9656 25.6632 32.7512 24.5215 32.5856 23.3898C32.2445 21.1064 32.1276 18.8329 32.3712 18.8032C32.6245 18.7734 32.9071 21.017 33.2969 23.2607C33.6574 25.5143 34.1349 27.7679 34.1544 27.8573C34.1642 27.9069 34.3298 28.5224 34.5832 29.4358C34.8365 30.3392 35.1873 31.5206 35.5576 32.6921C35.6551 32.98 35.7428 33.2778 35.8305 33.5657C35.9182 33.8536 36.0156 34.1316 36.1033 34.4096C36.2787 34.9556 36.4444 35.4718 36.5613 35.9285C36.6782 36.3852 36.7464 36.7724 36.7659 37.0504C36.7951 37.3283 36.7659 37.4872 36.7074 37.4971Z" fill="url(#paint31_linear_1309_502)"/>
<path d="M65.7751 52.766C65.7263 52.9149 64.6544 52.6071 63.5923 52.2696C63.0564 52.1008 62.5302 51.9221 62.1209 51.7831C61.7214 51.6441 61.4388 51.5449 61.4193 51.5349C61.3413 51.5052 57.4533 50.1649 57.5605 49.877C57.658 49.5891 61.4778 51.1081 61.5557 51.1378C61.5752 51.1478 61.8578 51.2371 62.2671 51.3662C62.6763 51.4952 63.2123 51.6739 63.7385 51.8526C64.7909 52.22 65.8238 52.6171 65.7751 52.766Z" fill="url(#paint32_linear_1309_502)"/>
<path d="M44.4406 44.5526C44.3485 44.6718 44.0621 44.5526 43.7962 44.4136C43.6633 44.3441 43.5303 44.2647 43.4383 44.2052C43.336 44.1456 43.2746 44.1059 43.2644 44.1059C43.2542 44.096 43.0087 43.957 42.7837 43.7981C42.5587 43.6393 42.3303 43.2844 42.4019 43.1454C42.4735 43.0064 42.7633 43.272 43.0087 43.4109C43.1315 43.4804 43.2542 43.5599 43.336 43.6293C43.4281 43.6988 43.4792 43.7386 43.4894 43.7485C43.4996 43.7485 43.5712 43.7882 43.6735 43.8378C43.7758 43.8875 43.919 43.9669 44.0417 44.0463C44.3507 44.2872 45.3252 43.8901 44.4406 44.5526Z" fill="url(#paint33_linear_1309_502)"/>
<path d="M44.0938 45.2112C44.084 45.2807 43.9184 45.3105 43.6845 45.2906C43.4506 45.2708 43.1485 45.2013 42.8465 45.102C42.5444 45.0027 42.2618 44.8836 42.0474 44.7843C41.8331 44.685 41.6869 44.6155 41.6771 44.6056C41.6576 44.5957 41.1315 44.3475 40.6442 44.0695C40.4006 43.9305 40.157 43.7915 39.9816 43.6724C39.8062 43.5533 39.699 43.444 39.7283 43.3746C39.7575 43.3051 39.9037 43.315 40.1083 43.3746C40.3129 43.4341 40.576 43.5533 40.8391 43.6724C41.3556 43.9305 41.8428 44.2184 41.8623 44.2283C41.872 44.2283 42.0182 44.2978 42.2326 44.3773C42.4469 44.4666 42.7295 44.5758 43.0121 44.685C43.2947 44.7942 43.5869 44.814 43.8013 44.8934C44.0449 44.943 44.8248 44.4965 44.0938 45.2112Z" fill="url(#paint34_linear_1309_502)"/>
<path d="M62.9493 40.6244C62.9072 40.6863 62.6281 40.6163 62.4075 40.5028C62.1869 40.3893 61.9243 40.1934 61.6827 39.9664C61.4412 39.7395 61.2206 39.492 61.063 39.296C60.916 39.1 60.8109 38.9556 60.8109 38.9453C60.8109 38.935 60.7059 38.8009 60.6009 38.6049C60.4853 38.409 60.3488 38.1305 60.2437 37.852C60.1387 37.5735 60.0652 37.2744 60.0337 37.0578C60.0126 36.8309 60.0337 36.6761 60.1072 36.6555C60.1912 36.6349 60.2647 36.7587 60.3593 36.9546C60.4538 37.1506 60.5483 37.4085 60.6639 37.6663C60.8845 38.182 61.1681 38.6875 61.1891 38.7081C61.1891 38.7184 61.2941 38.8422 61.4412 39.0278C61.5987 39.2032 61.7983 39.4404 62.0189 39.657C62.2394 39.8736 62.4495 40.0799 62.6281 40.2449C62.7856 40.3996 63.0018 40.5625 62.9493 40.6244Z" fill="url(#paint35_linear_1309_502)"/>
<path d="M51.1877 9.87811C51.2072 9.9476 51.0707 10.037 50.8564 10.1164C50.642 10.1958 50.3496 10.2554 50.0476 10.2951C49.7455 10.3348 49.4434 10.3447 49.2193 10.3447C48.9952 10.3447 48.8295 10.3348 48.8198 10.3348C48.81 10.3348 48.6639 10.3348 48.4495 10.3149C48.2351 10.2951 47.9623 10.2653 47.6894 10.2157C47.1437 10.1164 46.6273 9.9476 46.6468 9.79868C46.676 9.64977 47.2022 9.70934 47.7381 9.77883C48.2741 9.84832 48.81 9.91782 48.8295 9.91782C48.8393 9.91782 48.9952 9.91782 49.2095 9.90789C49.4337 9.89796 49.7163 9.88803 50.0086 9.85825C50.2912 9.8384 50.5738 9.80861 50.7881 9.79868C51.022 9.78876 51.1682 9.79868 51.1877 9.87811Z" fill="url(#paint36_linear_1309_502)"/>
<path d="M42.5833 34.5684C42.6515 34.6975 42.1643 35.0648 41.6284 35.3825C41.3653 35.5413 41.0924 35.6903 40.8781 35.7995C40.6637 35.9087 40.5175 35.9682 40.5078 35.9782C40.498 35.9782 40.3616 36.0477 40.157 36.1271C39.9523 36.2164 39.6795 36.3058 39.3969 36.3852C39.1143 36.4646 38.8317 36.5143 38.6174 36.5242C38.403 36.5341 38.2471 36.5043 38.2373 36.4348C38.2276 36.3554 38.3543 36.2859 38.5394 36.2164C38.7343 36.137 38.9974 36.0576 39.2605 35.9682C39.7867 35.7995 40.3226 35.6009 40.3421 35.591C40.3519 35.591 40.4883 35.5116 40.6929 35.4024C40.8976 35.2931 41.1704 35.1442 41.4335 34.9953C41.9694 34.6975 42.5151 34.4294 42.5833 34.5684Z" fill="url(#paint37_linear_1309_502)"/>
<path d="M51.938 20.8086C51.86 20.8284 51.7723 20.6696 51.5482 20.5703C51.441 20.5207 51.3046 20.4809 51.1584 20.471C51.0025 20.4611 50.8369 20.471 50.6517 20.4809C50.2912 20.5008 49.9209 20.5207 49.6383 20.5306C49.3557 20.5405 49.1706 20.5504 49.1511 20.5504C49.1218 20.5504 48.4397 20.5802 47.7576 20.5901C47.0755 20.5901 46.4032 20.5703 46.3934 20.4214C46.3837 20.2725 47.056 20.1831 47.7381 20.1533C48.0792 20.1335 48.4202 20.1335 48.6833 20.1335C48.9464 20.1335 49.1218 20.1335 49.1413 20.1335C49.1511 20.1335 49.346 20.1136 49.6286 20.0938C49.9111 20.0739 50.2814 20.0541 50.642 20.0441C50.8271 20.0441 51.022 20.0441 51.2169 20.0838C51.4118 20.1235 51.5969 20.203 51.7236 20.3122C51.8503 20.4214 51.9282 20.5504 51.9575 20.6497C51.9867 20.7291 51.977 20.7986 51.938 20.8086Z" fill="url(#paint38_linear_1309_502)"/>
<path d="M51.7334 21.7914C51.7528 21.8311 51.7139 21.8708 51.6456 21.9304C51.6067 21.9602 51.5677 21.99 51.519 22.0297C51.4703 22.0694 51.402 22.0992 51.3338 22.129C51.061 22.2679 50.681 22.397 50.2814 22.4963C49.8819 22.5856 49.4726 22.6154 49.1608 22.6253C49.0049 22.6253 48.8685 22.6253 48.7808 22.6253C48.6833 22.6253 48.6249 22.6154 48.6249 22.6154C48.6151 22.6154 48.5664 22.6154 48.4787 22.6055C48.391 22.6055 48.2741 22.5856 48.1279 22.5658C47.8356 22.5261 47.4653 22.4466 47.1047 22.3275C47.017 22.2977 46.9294 22.2679 46.8417 22.2282C46.754 22.1984 46.676 22.1587 46.5883 22.119C46.4226 22.0495 46.2862 21.9602 46.1595 21.8907C45.9257 21.7318 45.7893 21.5929 45.8185 21.5333C45.8575 21.4638 46.0329 21.5035 46.2862 21.5929C46.4129 21.6326 46.5591 21.6921 46.715 21.7418C46.7929 21.7716 46.8709 21.8013 46.9586 21.8212C47.0463 21.851 47.1242 21.8708 47.2119 21.9006C47.553 21.9999 47.9038 22.0793 48.1669 22.119C48.3033 22.1389 48.4105 22.1587 48.4982 22.1687C48.5762 22.1786 48.6346 22.1885 48.6346 22.1885C48.6444 22.1885 48.6931 22.1885 48.7808 22.1885C48.8685 22.1885 48.9952 22.1786 49.1413 22.1786C49.4337 22.1587 49.8137 22.119 50.1937 22.0495C50.5738 21.98 50.9441 21.8907 51.2169 21.8113C51.2851 21.7914 51.3533 21.7815 51.4118 21.7616C51.4702 21.7517 51.519 21.7418 51.5677 21.7318C51.6651 21.7418 51.7236 21.7517 51.7334 21.7914Z" fill="url(#paint39_linear_1309_502)"/>
<path d="M60.9516 26.4177C60.9126 26.5667 60.289 26.4574 59.6653 26.378C59.3535 26.3383 59.0417 26.2986 58.8078 26.2688C58.5642 26.239 58.3985 26.2192 58.3888 26.2192C58.379 26.2192 58.2231 26.1993 57.9893 26.1596C57.7651 26.1199 57.4533 26.0504 57.1707 25.9412C56.8784 25.832 56.6056 25.693 56.4302 25.554C56.245 25.415 56.1476 25.286 56.1866 25.2264C56.2645 25.0973 56.7615 25.3555 57.2974 25.5242C57.5703 25.6136 57.8431 25.6831 58.0575 25.7228C58.2719 25.7625 58.4278 25.7923 58.4375 25.7923C58.4473 25.7923 58.6129 25.8022 58.8565 25.8221C59.1001 25.8419 59.4217 25.8816 59.7433 25.9313C60.3864 26.0603 61.0003 26.2688 60.9516 26.4177Z" fill="url(#paint40_linear_1309_502)"/>
<path d="M60.8444 24.5712C60.7957 24.6307 60.6495 24.5811 60.4449 24.4918C60.2402 24.4024 59.9869 24.2733 59.7335 24.2237C59.4899 24.1741 59.1976 24.2039 58.9735 24.2138C58.7493 24.2336 58.6032 24.2436 58.5837 24.2436C58.5739 24.2436 58.4278 24.2634 58.2231 24.2833C58.0088 24.3031 57.7359 24.3428 57.4533 24.3528C57.1707 24.3726 56.8882 24.3627 56.6738 24.323C56.4594 24.2833 56.323 24.2237 56.3327 24.1443C56.3327 24.0649 56.4691 24.0252 56.6738 23.9954C56.8687 23.9656 57.1415 23.9358 57.4144 23.906C57.6872 23.8762 57.96 23.8465 58.1744 23.8365C58.3888 23.8167 58.535 23.8167 58.5447 23.8167C58.5544 23.8167 58.7104 23.7869 58.9442 23.7571C59.0612 23.7472 59.1976 23.7273 59.3437 23.7273C59.4899 23.7273 59.6653 23.7372 59.831 23.777C60.172 23.8663 60.4449 24.0549 60.6203 24.2039C60.7957 24.3826 60.8834 24.5116 60.8444 24.5712Z" fill="url(#paint41_linear_1309_502)"/>
<path d="M62.1014 14.2265C62.0917 14.3257 61.4973 14.3456 60.8931 14.3357C60.591 14.3257 60.289 14.3158 60.0551 14.3059C59.8212 14.296 59.6653 14.286 59.6556 14.286C59.6361 14.296 59.0709 14.2463 58.5447 14.3357C58.2816 14.3853 58.0282 14.4647 57.8431 14.5541C57.658 14.6335 57.541 14.7129 57.502 14.6732C57.4631 14.6434 57.5508 14.5044 57.7359 14.3655C57.9113 14.2265 58.1939 14.1073 58.4862 14.0478C58.7786 13.9882 59.0709 13.9783 59.2853 13.9882C59.4997 13.9981 59.6556 14.0081 59.6653 14.0081C59.714 14.0081 62.1112 14.0279 62.1014 14.2265Z" fill="url(#paint42_linear_1309_502)"/>
<path d="M72.0602 27.5793C72.031 27.7282 71.4463 27.6885 70.8617 27.5793C70.5693 27.5296 70.2867 27.4502 70.0626 27.3907C69.8482 27.3311 69.6923 27.2815 69.6826 27.2815C69.6728 27.2815 69.5364 27.2417 69.3318 27.1722C69.1369 27.1028 68.8738 27.0134 68.6204 26.9042C68.1137 26.6858 67.646 26.4078 67.6947 26.2688C67.7532 26.1298 68.2599 26.2986 68.7569 26.4872C69.2538 26.6759 69.7703 26.8744 69.7898 26.8843C69.8093 26.8843 70.3842 27.0233 70.9494 27.1524C71.5243 27.2914 72.0895 27.4304 72.0602 27.5793Z" fill="url(#paint43_linear_1309_502)"/>
<path d="M70.0918 34.3202C70.0334 34.4592 69.4682 34.2805 68.9128 34.0919C68.6302 33.9926 68.3573 33.8933 68.143 33.8139C67.9286 33.7345 67.7922 33.6848 67.7824 33.6848C67.7629 33.6848 67.2562 33.4863 66.7495 33.4267C66.4962 33.3969 66.2136 33.387 66.0089 33.3473C65.8043 33.3076 65.6679 33.248 65.6679 33.1785C65.6679 33.0991 65.8043 33.0594 65.9992 33.0296C66.2038 32.9998 66.4767 32.9701 66.769 32.9899C67.0613 33.0098 67.3537 33.0793 67.5583 33.1488C67.7629 33.2182 67.8994 33.2778 67.9091 33.2778C67.9383 33.2877 68.5132 33.4466 69.0687 33.6749C69.6241 33.9132 70.1503 34.1812 70.0918 34.3202Z" fill="url(#paint44_linear_1309_502)"/>
<path d="M69.7605 35.73C69.7216 35.7995 69.5754 35.7796 69.3708 35.72C69.2733 35.6903 69.1564 35.6406 69.0395 35.6009C68.9225 35.5612 68.8056 35.5215 68.6789 35.5016C68.4158 35.452 68.143 35.4123 67.9383 35.3726C67.724 35.3329 67.5778 35.3031 67.568 35.3031C67.5583 35.3031 67.4219 35.2733 67.2172 35.2237C67.1198 35.1939 67.0029 35.1641 66.8762 35.1244C66.7593 35.0747 66.6326 35.0251 66.5156 34.9655C66.272 34.8563 66.0479 34.7273 65.8823 34.6181C65.7166 34.5089 65.6192 34.3997 65.6484 34.3302C65.6776 34.2607 65.814 34.2607 65.9992 34.3103C66.1843 34.3599 66.4279 34.4592 66.6618 34.5486C66.7787 34.5982 66.8957 34.6478 67.0029 34.6876C67.1101 34.7273 67.2172 34.7571 67.3049 34.7868C67.4901 34.8464 67.6168 34.8762 67.6265 34.8762C67.6363 34.8762 67.7824 34.896 67.9871 34.9258C68.2014 34.9556 68.4743 34.9854 68.7666 35.0648C68.9128 35.1045 69.0687 35.1641 69.1856 35.2336C69.3123 35.3031 69.4097 35.3726 69.4974 35.4321C69.7021 35.5612 69.7995 35.6704 69.7605 35.73Z" fill="url(#paint45_linear_1309_502)"/>
<path d="M68.0553 43.5927C68.0455 43.6722 67.8701 43.7119 67.5973 43.7317C67.3342 43.7516 66.9736 43.7615 66.6033 43.7119C66.2233 43.6622 65.8725 43.5233 65.6094 43.424C65.3561 43.3148 65.1807 43.2353 65.1709 43.2254C65.1612 43.2155 65.0053 43.146 64.7714 43.0368C64.5375 42.9177 64.2354 42.7687 63.9529 42.5404C63.8164 42.4312 63.68 42.3021 63.5826 42.1532C63.4851 42.0142 63.4169 41.8554 63.3877 41.7263C63.3584 41.5873 63.3585 41.4682 63.3779 41.3888C63.3974 41.3094 63.4364 41.2697 63.4754 41.2697C63.5533 41.2697 63.5826 41.4186 63.6898 41.5973C63.7385 41.6866 63.8067 41.7958 63.8944 41.8852C63.9821 41.9845 64.0893 42.0837 64.216 42.1731C64.4596 42.3518 64.7519 42.5106 64.9663 42.6298C65.1904 42.7489 65.3366 42.8283 65.3561 42.8382C65.3658 42.8482 65.5412 42.9177 65.7946 43.007C66.0479 43.1063 66.3695 43.2155 66.691 43.2751C67.0224 43.3346 67.3732 43.3545 67.6363 43.4041C67.8896 43.4538 68.065 43.5232 68.0553 43.5927Z" fill="url(#paint46_linear_1309_502)"/>
<path d="M52.5226 32.8906C52.4155 32.9998 52.2011 32.8807 52.0159 32.7516C51.9185 32.6921 51.8308 32.6226 51.7626 32.5729C51.6944 32.5233 51.6456 32.4935 51.6456 32.4836C51.6359 32.4836 51.48 32.3744 51.3046 32.2553C51.2169 32.1957 51.1389 32.146 51.0707 32.0865C51.0123 32.0269 50.9635 31.9673 50.983 31.8879C50.9928 31.8085 51.061 31.7787 51.1584 31.7688C51.2559 31.7688 51.3728 31.7986 51.48 31.8482C51.5872 31.8979 51.6944 31.9673 51.7626 32.0269C51.8308 32.0865 51.8795 32.1262 51.8795 32.1262C51.8795 32.1262 51.9477 32.156 52.0257 32.2056C52.1036 32.2553 52.2108 32.3247 52.3083 32.4042C52.4934 32.5829 52.6396 32.7814 52.5226 32.8906Z" fill="url(#paint47_linear_1309_502)"/>
<path d="M52.1426 33.804C52.1621 33.8735 52.0452 33.9728 51.8405 34.0522C51.6359 34.1316 51.3631 34.2011 51.0707 34.2408C50.7881 34.2805 50.4958 34.2805 50.2814 34.2805C50.0671 34.2706 49.9111 34.2607 49.9014 34.2607C49.8916 34.2607 49.7552 34.2507 49.5506 34.2309C49.346 34.211 49.0926 34.1713 48.8295 34.1217C48.3131 34.0224 47.8258 33.8635 47.8453 33.7146C47.8648 33.5657 48.3813 33.6154 48.888 33.6848C49.3947 33.7643 49.9014 33.8437 49.9209 33.8437C49.9306 33.8437 50.0768 33.8437 50.2814 33.8437C50.4861 33.8338 50.7589 33.8238 51.0318 33.804C51.2949 33.7841 51.558 33.7543 51.7626 33.7345C51.977 33.7146 52.1231 33.7246 52.1426 33.804Z" fill="url(#paint48_linear_1309_502)"/>
<path d="M38.2471 26.1199C38.2471 26.1993 38.1204 26.2589 37.9255 26.3185C37.7306 26.378 37.4773 26.4475 37.2142 26.5071C36.9511 26.5766 36.688 26.6362 36.4833 26.6858C36.2787 26.7354 36.1423 26.7652 36.1228 26.7652C36.113 26.7652 35.9766 26.795 35.7817 26.8248C35.5868 26.8546 35.3237 26.8843 35.0606 26.8943C34.7975 26.9042 34.5344 26.8645 34.3396 26.8049C34.2421 26.7751 34.1544 26.7255 34.1154 26.6659C34.0765 26.6064 34.0765 26.5567 34.1057 26.5369C34.1349 26.5071 34.1642 26.5071 34.2129 26.4972C34.2519 26.4872 34.3006 26.4872 34.3883 26.4872C34.5637 26.4773 34.7975 26.4773 35.0412 26.4574C35.5186 26.4277 36.0253 26.3582 36.0448 26.3582C36.0546 26.3582 36.191 26.3185 36.3956 26.2589C36.6003 26.1993 36.8634 26.1298 37.1362 26.0802C37.409 26.0206 37.6819 25.9908 37.8963 26.0008C38.1009 26.0008 38.2471 26.0405 38.2471 26.1199Z" fill="url(#paint49_linear_1309_502)"/>
<path d="M38.7343 27.7481C38.7635 27.8176 38.6466 27.9268 38.442 28.0062C38.2373 28.0856 37.9547 28.1352 37.6721 28.1452C37.3896 28.165 37.1167 28.1551 36.9121 28.165C36.7074 28.175 36.571 28.175 36.5613 28.175C36.5418 28.175 36.0448 28.2147 35.5479 28.2742C35.0509 28.3338 34.5637 28.4231 34.515 28.2742C34.4662 28.1253 34.9535 27.9268 35.4699 27.8374C35.7233 27.7878 35.9864 27.7679 36.191 27.758C36.3859 27.7481 36.532 27.7481 36.5418 27.7481C36.5515 27.7481 36.6977 27.7282 36.9121 27.7083C37.1265 27.6885 37.409 27.6885 37.6721 27.6885C37.9352 27.6885 38.1983 27.6786 38.3835 27.6686C38.5686 27.6786 38.7051 27.6786 38.7343 27.7481Z" fill="url(#paint50_linear_1309_502)"/>
<path d="M37.7891 18.1082C37.8183 18.1777 37.7404 18.277 37.5844 18.3663C37.4285 18.4557 37.2142 18.5252 36.9803 18.5748C36.7562 18.6145 36.5223 18.6344 36.3566 18.6443C36.191 18.6542 36.0741 18.6542 36.0643 18.6542C36.0448 18.6542 35.6356 18.6542 35.236 18.6542C35.0411 18.6542 34.8463 18.6542 34.6903 18.6443C34.5442 18.6344 34.4273 18.6046 34.4078 18.5351C34.3883 18.4656 34.476 18.3862 34.6319 18.3266C34.7878 18.2671 34.9924 18.2273 35.2068 18.2174C35.4212 18.2075 35.6258 18.2075 35.7817 18.2174C35.9376 18.2273 36.0448 18.2373 36.0546 18.2373C36.0643 18.2373 36.1812 18.2273 36.3469 18.2075C36.5126 18.1876 36.7269 18.1678 36.9316 18.1479C37.1265 18.1181 37.3213 18.0884 37.4967 18.0685C37.6429 18.0288 37.7598 18.0387 37.7891 18.1082Z" fill="url(#paint51_linear_1309_502)"/>
<path d="M33.6867 18.5847C33.6964 18.684 33.5795 18.7535 33.4431 18.7634C33.3749 18.7734 33.3066 18.7734 33.2579 18.7634C33.2092 18.7634 33.1702 18.7535 33.1702 18.7535C33.1702 18.7535 33.1312 18.7535 33.0923 18.7337C33.0435 18.7237 32.9851 18.7039 32.9266 18.6741C32.8194 18.6145 32.7415 18.555 32.7512 18.4557C32.761 18.3465 32.9071 18.3564 33.0143 18.3961C33.1118 18.4259 33.2189 18.4755 33.2189 18.4755C33.2189 18.4755 33.3456 18.4656 33.4528 18.4656C33.56 18.4656 33.6769 18.4755 33.6867 18.5847Z" fill="url(#paint52_linear_1309_502)"/>
<path d="M60.2695 75.9274C60.2792 76.0267 59.8407 76.0962 59.4022 76.1458C59.1781 76.1657 58.9637 76.1855 58.7883 76.1955C58.6227 76.2054 58.5057 76.2153 58.496 76.2153C58.4667 76.2153 56.8394 76.3245 56.8297 76.116C56.8199 75.9076 58.4473 75.9374 58.4765 75.9374C58.4862 75.9374 58.6032 75.9274 58.7688 75.9076C58.9345 75.8877 59.1586 75.8679 59.3827 75.8579C59.8212 75.8281 60.2597 75.8281 60.2695 75.9274Z" fill="url(#paint53_linear_1309_502)"/>
<path d="M59.2755 46.5016C59.1586 46.3328 59.4412 46.0052 59.6653 45.6577C59.7822 45.4889 59.8894 45.3102 59.9576 45.1713C60.0356 45.0323 60.0746 44.9429 60.0746 44.933C60.0746 44.9231 60.1136 44.8337 60.1623 44.7046C60.211 44.5756 60.2597 44.3969 60.2987 44.2083C60.3377 44.0296 60.3669 43.8409 60.3961 43.692C60.4254 43.5431 60.4741 43.424 60.5715 43.3942C60.669 43.3644 60.7567 43.4538 60.8152 43.6225C60.8736 43.7913 60.8931 44.0296 60.8639 44.2678C60.8346 44.5061 60.7664 44.7245 60.6982 44.8933C60.63 45.0521 60.5618 45.1613 60.5618 45.1713C60.5618 45.1812 60.5228 45.3003 60.4449 45.479C60.3669 45.6478 60.2402 45.8662 60.0843 46.0548C59.9284 46.2435 59.753 46.4023 59.5971 46.4916C59.4607 46.5611 59.334 46.581 59.2755 46.5016Z" fill="url(#paint54_linear_1309_502)"/>
<path d="M58.1257 46.6703C58.0965 46.7696 57.8723 46.7696 57.5605 46.6604C57.4046 46.6009 57.2389 46.5214 57.0538 46.4023C56.9661 46.3427 56.8687 46.2633 56.7907 46.164C56.703 46.0648 56.6348 45.9456 56.5861 45.8166C56.4984 45.5584 56.4886 45.3003 56.5179 45.0621C56.5568 44.8238 56.625 44.6252 56.6933 44.4664C56.7615 44.3075 56.8199 44.1785 56.8687 44.0991C56.9174 44.0097 56.9466 43.9601 56.9466 43.9501C56.9466 43.9402 56.9758 43.8906 57.0246 43.8012C57.0733 43.7119 57.1512 43.5927 57.2779 43.4538C57.3461 43.3843 57.4241 43.3148 57.5215 43.2552C57.619 43.1956 57.7359 43.1559 57.8431 43.1261C58.0575 43.0765 58.2329 43.0666 58.4278 43.0368C59.1878 42.9474 59.9576 42.9077 59.9869 43.1063C60.0161 43.3048 59.2755 43.4835 58.5252 43.6126C58.3401 43.6424 58.1354 43.6722 57.999 43.7019C57.9308 43.7218 57.8723 43.7417 57.8236 43.7615C57.7749 43.7913 57.7359 43.8211 57.6872 43.8608C57.6092 43.9402 57.541 44.0296 57.4923 44.0991C57.4436 44.1686 57.4241 44.2182 57.4143 44.2182C57.4143 44.2281 57.3851 44.2778 57.3461 44.3671C57.3072 44.4565 57.2584 44.5756 57.2 44.7146C57.1512 44.8536 57.1025 45.0124 57.0733 45.1713C57.0538 45.3301 57.0635 45.4989 57.1025 45.6379C57.122 45.7074 57.1512 45.7669 57.2 45.8265C57.2389 45.8861 57.2974 45.9357 57.3559 45.9953C57.4826 46.1045 57.619 46.2137 57.7359 46.2931C57.999 46.4519 58.1647 46.5711 58.1257 46.6703Z" fill="url(#paint55_linear_1309_502)"/>
<path d="M49.4142 48.9239C49.5116 48.8346 49.7065 48.914 49.9599 49.0431C50.223 49.1721 50.5543 49.3508 50.8953 49.4898C51.2364 49.6387 51.5969 49.738 51.8698 49.7976C52.1426 49.8572 52.3375 49.877 52.3472 49.877C52.357 49.877 52.4057 49.8869 52.4837 49.8869C52.5226 49.8869 52.5714 49.8969 52.6201 49.8969C52.6688 49.8969 52.737 49.8969 52.7955 49.8969C53.0586 49.9068 53.3996 49.877 53.7504 49.8373C54.1012 49.7976 54.4618 49.7479 54.7444 49.738C55.027 49.7281 55.2218 49.7678 55.2608 49.8869C55.2998 50.0061 55.1439 50.1351 54.8905 50.2543C54.6372 50.3734 54.2766 50.4826 53.8869 50.5521C53.5068 50.6216 53.1073 50.6414 52.8052 50.6216C52.7273 50.6117 52.6591 50.6117 52.6006 50.6017C52.5421 50.5918 52.4837 50.5819 52.4349 50.5819C52.3472 50.572 52.2888 50.562 52.279 50.5521C52.2595 50.5521 52.0354 50.5521 51.7139 50.4925C51.3923 50.4429 50.9733 50.3238 50.5835 50.1351C50.1937 49.9465 49.8429 49.6884 49.6286 49.4501C49.4142 49.2218 49.3265 49.0034 49.4142 48.9239Z" fill="url(#paint56_linear_1309_502)"/>
<defs>
<linearGradient id="paint0_linear_1309_502" x1="38.7601" y1="-16.4963" x2="67.8843" y2="140.825" gradientUnits="userSpaceOnUse">
<stop stop-color="#BFA07F"/>
<stop offset="0.463" stop-color="#AE9881"/>
<stop offset="0.9833" stop-color="#DECDBB"/>
</linearGradient>
<linearGradient id="paint1_linear_1309_502" x1="16.7919" y1="-36.0727" x2="110.72" y2="398.153" gradientUnits="userSpaceOnUse">
<stop stop-color="#BFA07F"/>
<stop offset="0.463" stop-color="#AE9881"/>
<stop offset="0.9833" stop-color="#DECDBB"/>
</linearGradient>
<linearGradient id="paint2_linear_1309_502" x1="-136.875" y1="-186.061" x2="-40.9495" y2="539.93" gradientUnits="userSpaceOnUse">
<stop stop-color="#BFA07F"/>
<stop offset="0.463" stop-color="#AE9881"/>
<stop offset="0.9833" stop-color="#DECDBB"/>
</linearGradient>
<linearGradient id="paint3_linear_1309_502" x1="-152.642" y1="-53.5257" x2="-127.323" y2="372.679" gradientUnits="userSpaceOnUse">
<stop stop-color="#BFA07F"/>
<stop offset="0.463" stop-color="#AE9881"/>
<stop offset="0.9833" stop-color="#DECDBB"/>
</linearGradient>
<linearGradient id="paint4_linear_1309_502" x1="-372.244" y1="-168.429" x2="-334.767" y2="461.792" gradientUnits="userSpaceOnUse">
<stop stop-color="#BFA07F"/>
<stop offset="0.463" stop-color="#AE9881"/>
<stop offset="0.9833" stop-color="#DECDBB"/>
</linearGradient>
<linearGradient id="paint5_linear_1309_502" x1="-168.913" y1="-219.965" x2="-84.5557" y2="411.815" gradientUnits="userSpaceOnUse">
<stop stop-color="#BFA07F"/>
<stop offset="0.463" stop-color="#AE9881"/>
<stop offset="0.9833" stop-color="#DECDBB"/>
</linearGradient>
<linearGradient id="paint6_linear_1309_502" x1="-69.0927" y1="-195.77" x2="189.716" y2="890.61" gradientUnits="userSpaceOnUse">
<stop stop-color="#BFA07F"/>
<stop offset="0.463" stop-color="#AE9881"/>
<stop offset="0.9833" stop-color="#DECDBB"/>
</linearGradient>
<linearGradient id="paint7_linear_1309_502" x1="-165.053" y1="-4605.89" x2="6433.75" y2="-1978.73" gradientUnits="userSpaceOnUse">
<stop stop-color="#BFA07F"/>
<stop offset="0.463" stop-color="#AE9881"/>
<stop offset="0.9833" stop-color="#DECDBB"/>
</linearGradient>
<linearGradient id="paint8_linear_1309_502" x1="-953.339" y1="-3443.57" x2="2392.61" y2="4747.7" gradientUnits="userSpaceOnUse">
<stop stop-color="#BFA07F"/>
<stop offset="0.463" stop-color="#AE9881"/>
<stop offset="0.9833" stop-color="#DECDBB"/>
</linearGradient>
<linearGradient id="paint9_linear_1309_502" x1="38.6784" y1="-4.64688" x2="115.508" y2="222.387" gradientUnits="userSpaceOnUse">
<stop offset="0.0543534" stop-color="#BFA07F"/>
<stop offset="0.463" stop-color="#AE9881"/>
<stop offset="0.9833" stop-color="#DECDBB"/>
</linearGradient>
<linearGradient id="paint10_linear_1309_502" x1="40.752" y1="-5.32485" x2="119.085" y2="220.542" gradientUnits="userSpaceOnUse">
<stop offset="0.0543534" stop-color="#BFA07F"/>
<stop offset="0.463" stop-color="#AE9881"/>
<stop offset="0.9833" stop-color="#DECDBB"/>
</linearGradient>
<linearGradient id="paint11_linear_1309_502" x1="41.761" y1="-5.27594" x2="117.328" y2="220.096" gradientUnits="userSpaceOnUse">
<stop offset="0.0543534" stop-color="#BFA07F"/>
<stop offset="0.463" stop-color="#AE9881"/>
<stop offset="0.9833" stop-color="#DECDBB"/>
</linearGradient>
<linearGradient id="paint12_linear_1309_502" x1="51.6926" y1="48.7755" x2="52.3461" y2="53.9433" gradientUnits="userSpaceOnUse">
<stop offset="0.0543534" stop-color="#BFA07F"/>
<stop offset="0.463" stop-color="#AE9881"/>
<stop offset="0.9833" stop-color="#DECDBB"/>
</linearGradient>
<linearGradient id="paint13_linear_1309_502" x1="51.6926" y1="48.7755" x2="52.3461" y2="53.9433" gradientUnits="userSpaceOnUse">
<stop offset="0.0543534" stop-color="#BFA07F"/>
<stop offset="0.463" stop-color="#AE9881"/>
<stop offset="0.9833" stop-color="#DECDBB"/>
</linearGradient>
<linearGradient id="paint14_linear_1309_502" x1="42.0072" y1="-4.49825" x2="117.791" y2="220.663" gradientUnits="userSpaceOnUse">
<stop offset="0.0543534" stop-color="#BFA07F"/>
<stop offset="0.463" stop-color="#AE9881"/>
<stop offset="0.9833" stop-color="#DECDBB"/>
</linearGradient>
<linearGradient id="paint15_linear_1309_502" x1="51.6926" y1="48.7755" x2="52.3461" y2="53.9433" gradientUnits="userSpaceOnUse">
<stop offset="0.0543534" stop-color="#BFA07F"/>
<stop offset="0.463" stop-color="#AE9881"/>
<stop offset="0.9833" stop-color="#DECDBB"/>
</linearGradient>
<linearGradient id="paint16_linear_1309_502" x1="51.6926" y1="48.7755" x2="52.3461" y2="53.9433" gradientUnits="userSpaceOnUse">
<stop offset="0.0543534" stop-color="#BFA07F"/>
<stop offset="0.463" stop-color="#AE9881"/>
<stop offset="0.9833" stop-color="#DECDBB"/>
</linearGradient>
<linearGradient id="paint17_linear_1309_502" x1="40.67" y1="-5.20202" x2="113.349" y2="218.368" gradientUnits="userSpaceOnUse">
<stop offset="0.0543534" stop-color="#BFA07F"/>
<stop offset="0.463" stop-color="#AE9881"/>
<stop offset="0.9833" stop-color="#DECDBB"/>
</linearGradient>
<linearGradient id="paint18_linear_1309_502" x1="51.6926" y1="48.7755" x2="52.3461" y2="53.9433" gradientUnits="userSpaceOnUse">
<stop offset="0.0543534" stop-color="#BFA07F"/>
<stop offset="0.463" stop-color="#AE9881"/>
<stop offset="0.9833" stop-color="#DECDBB"/>
</linearGradient>
<linearGradient id="paint19_linear_1309_502" x1="51.6926" y1="48.7755" x2="52.3461" y2="53.9433" gradientUnits="userSpaceOnUse">
<stop offset="0.0543534" stop-color="#BFA07F"/>
<stop offset="0.463" stop-color="#AE9881"/>
<stop offset="0.9833" stop-color="#DECDBB"/>
</linearGradient>
<linearGradient id="paint20_linear_1309_502" x1="43.2136" y1="-3.57357" x2="118.719" y2="218.87" gradientUnits="userSpaceOnUse">
<stop offset="0.0543534" stop-color="#BFA07F"/>
<stop offset="0.463" stop-color="#AE9881"/>
<stop offset="0.9833" stop-color="#DECDBB"/>
</linearGradient>
<linearGradient id="paint21_linear_1309_502" x1="41.3296" y1="-2.99872" x2="115.211" y2="218.839" gradientUnits="userSpaceOnUse">
<stop offset="0.0543534" stop-color="#BFA07F"/>
<stop offset="0.463" stop-color="#AE9881"/>
<stop offset="0.9833" stop-color="#DECDBB"/>
</linearGradient>
<linearGradient id="paint22_linear_1309_502" x1="41.0898" y1="-5.32484" x2="118.914" y2="220.941" gradientUnits="userSpaceOnUse">
<stop offset="0.0543534" stop-color="#BFA07F"/>
<stop offset="0.463" stop-color="#AE9881"/>
<stop offset="0.9833" stop-color="#DECDBB"/>
</linearGradient>
<linearGradient id="paint23_linear_1309_502" x1="51.6926" y1="48.7755" x2="52.3461" y2="53.9433" gradientUnits="userSpaceOnUse">
<stop offset="0.0543534" stop-color="#BFA07F"/>
<stop offset="0.463" stop-color="#AE9881"/>
<stop offset="0.9833" stop-color="#DECDBB"/>
</linearGradient>
<linearGradient id="paint24_linear_1309_502" x1="51.6926" y1="48.7755" x2="52.3461" y2="53.9433" gradientUnits="userSpaceOnUse">
<stop offset="0.0543534" stop-color="#BFA07F"/>
<stop offset="0.463" stop-color="#AE9881"/>
<stop offset="0.9833" stop-color="#DECDBB"/>
</linearGradient>
<linearGradient id="paint25_linear_1309_502" x1="51.6926" y1="48.7755" x2="52.3461" y2="53.9433" gradientUnits="userSpaceOnUse">
<stop offset="0.0543534" stop-color="#BFA07F"/>
<stop offset="0.463" stop-color="#AE9881"/>
<stop offset="0.9833" stop-color="#DECDBB"/>
</linearGradient>
<linearGradient id="paint26_linear_1309_502" x1="51.6926" y1="48.7755" x2="52.3461" y2="53.9433" gradientUnits="userSpaceOnUse">
<stop offset="0.0543534" stop-color="#BFA07F"/>
<stop offset="0.463" stop-color="#AE9881"/>
<stop offset="0.9833" stop-color="#DECDBB"/>
</linearGradient>
<linearGradient id="paint27_linear_1309_502" x1="51.6926" y1="48.7755" x2="52.3461" y2="53.9433" gradientUnits="userSpaceOnUse">
<stop offset="0.0543534" stop-color="#BFA07F"/>
<stop offset="0.463" stop-color="#AE9881"/>
<stop offset="0.9833" stop-color="#DECDBB"/>
</linearGradient>
<linearGradient id="paint28_linear_1309_502" x1="51.6926" y1="48.7755" x2="52.3461" y2="53.9433" gradientUnits="userSpaceOnUse">
<stop offset="0.0543534" stop-color="#BFA07F"/>
<stop offset="0.463" stop-color="#AE9881"/>
<stop offset="0.9833" stop-color="#DECDBB"/>
</linearGradient>
<linearGradient id="paint29_linear_1309_502" x1="51.6926" y1="48.7755" x2="52.3461" y2="53.9433" gradientUnits="userSpaceOnUse">
<stop offset="0.0543534" stop-color="#BFA07F"/>
<stop offset="0.463" stop-color="#AE9881"/>
<stop offset="0.9833" stop-color="#DECDBB"/>
</linearGradient>
<linearGradient id="paint30_linear_1309_502" x1="51.6926" y1="48.7755" x2="52.3461" y2="53.9433" gradientUnits="userSpaceOnUse">
<stop offset="0.0543534" stop-color="#BFA07F"/>
<stop offset="0.463" stop-color="#AE9881"/>
<stop offset="0.9833" stop-color="#DECDBB"/>
</linearGradient>
<linearGradient id="paint31_linear_1309_502" x1="51.6926" y1="48.7755" x2="52.3461" y2="53.9433" gradientUnits="userSpaceOnUse">
<stop offset="0.0543534" stop-color="#BFA07F"/>
<stop offset="0.463" stop-color="#AE9881"/>
<stop offset="0.9833" stop-color="#DECDBB"/>
</linearGradient>
<linearGradient id="paint32_linear_1309_502" x1="51.6926" y1="48.7755" x2="52.3461" y2="53.9433" gradientUnits="userSpaceOnUse">
<stop offset="0.0543534" stop-color="#BFA07F"/>
<stop offset="0.463" stop-color="#AE9881"/>
<stop offset="0.9833" stop-color="#DECDBB"/>
</linearGradient>
<linearGradient id="paint33_linear_1309_502" x1="22.0759" y1="-20.0984" x2="213.4" y2="206.605" gradientUnits="userSpaceOnUse">
<stop offset="0.45452" stop-color="#BFA07F"/>
<stop offset="0.463" stop-color="#AE9881"/>
<stop offset="0.9833" stop-color="#DECDBB"/>
</linearGradient>
<linearGradient id="paint34_linear_1309_502" x1="35.4941" y1="-6.05221" x2="116.462" y2="217.679" gradientUnits="userSpaceOnUse">
<stop offset="0.435762" stop-color="#BFA07F"/>
<stop offset="0.463" stop-color="#AE9881"/>
<stop offset="0.9833" stop-color="#DECDBB"/>
</linearGradient>
<linearGradient id="paint35_linear_1309_502" x1="40.2625" y1="-5.29407" x2="118.53" y2="218.961" gradientUnits="userSpaceOnUse">
<stop offset="0.0543534" stop-color="#BFA07F"/>
<stop offset="0.463" stop-color="#AE9881"/>
<stop offset="0.9833" stop-color="#DECDBB"/>
</linearGradient>
<linearGradient id="paint36_linear_1309_502" x1="51.6926" y1="48.7755" x2="52.3461" y2="53.9433" gradientUnits="userSpaceOnUse">
<stop offset="0.0543534" stop-color="#BFA07F"/>
<stop offset="0.463" stop-color="#AE9881"/>
<stop offset="0.9833" stop-color="#DECDBB"/>
</linearGradient>
<linearGradient id="paint37_linear_1309_502" x1="51.6926" y1="48.7755" x2="52.3461" y2="53.9433" gradientUnits="userSpaceOnUse">
<stop offset="0.0543534" stop-color="#BFA07F"/>
<stop offset="0.463" stop-color="#AE9881"/>
<stop offset="0.9833" stop-color="#DECDBB"/>
</linearGradient>
<linearGradient id="paint38_linear_1309_502" x1="51.6926" y1="48.7755" x2="52.3461" y2="53.9433" gradientUnits="userSpaceOnUse">
<stop offset="0.0543534" stop-color="#BFA07F"/>
<stop offset="0.463" stop-color="#AE9881"/>
<stop offset="0.9833" stop-color="#DECDBB"/>
</linearGradient>
<linearGradient id="paint39_linear_1309_502" x1="51.6926" y1="48.7755" x2="52.3461" y2="53.9433" gradientUnits="userSpaceOnUse">
<stop offset="0.0543534" stop-color="#BFA07F"/>
<stop offset="0.463" stop-color="#AE9881"/>
<stop offset="0.9833" stop-color="#DECDBB"/>
</linearGradient>
<linearGradient id="paint40_linear_1309_502" x1="51.6926" y1="48.7755" x2="52.3461" y2="53.9433" gradientUnits="userSpaceOnUse">
<stop offset="0.0543534" stop-color="#BFA07F"/>
<stop offset="0.463" stop-color="#AE9881"/>
<stop offset="0.9833" stop-color="#DECDBB"/>
</linearGradient>
<linearGradient id="paint41_linear_1309_502" x1="51.6926" y1="48.7755" x2="52.3461" y2="53.9433" gradientUnits="userSpaceOnUse">
<stop offset="0.0543534" stop-color="#BFA07F"/>
<stop offset="0.463" stop-color="#AE9881"/>
<stop offset="0.9833" stop-color="#DECDBB"/>
</linearGradient>
<linearGradient id="paint42_linear_1309_502" x1="51.6926" y1="48.7755" x2="52.3461" y2="53.9433" gradientUnits="userSpaceOnUse">
<stop offset="0.0543534" stop-color="#BFA07F"/>
<stop offset="0.463" stop-color="#AE9881"/>
<stop offset="0.9833" stop-color="#DECDBB"/>
</linearGradient>
<linearGradient id="paint43_linear_1309_502" x1="51.6926" y1="48.7755" x2="52.3461" y2="53.9433" gradientUnits="userSpaceOnUse">
<stop offset="0.0543534" stop-color="#BFA07F"/>
<stop offset="0.463" stop-color="#AE9881"/>
<stop offset="0.9833" stop-color="#DECDBB"/>
</linearGradient>
<linearGradient id="paint44_linear_1309_502" x1="51.6926" y1="48.7755" x2="52.3461" y2="53.9433" gradientUnits="userSpaceOnUse">
<stop offset="0.0543534" stop-color="#BFA07F"/>
<stop offset="0.463" stop-color="#AE9881"/>
<stop offset="0.9833" stop-color="#DECDBB"/>
</linearGradient>
<linearGradient id="paint45_linear_1309_502" x1="51.6926" y1="48.7755" x2="52.3461" y2="53.9433" gradientUnits="userSpaceOnUse">
<stop offset="0.0543534" stop-color="#BFA07F"/>
<stop offset="0.463" stop-color="#AE9881"/>
<stop offset="0.9833" stop-color="#DECDBB"/>
</linearGradient>
<linearGradient id="paint46_linear_1309_502" x1="51.6926" y1="48.7755" x2="52.3461" y2="53.9433" gradientUnits="userSpaceOnUse">
<stop offset="0.0543534" stop-color="#BFA07F"/>
<stop offset="0.463" stop-color="#AE9881"/>
<stop offset="0.9833" stop-color="#DECDBB"/>
</linearGradient>
<linearGradient id="paint47_linear_1309_502" x1="51.6926" y1="48.7755" x2="52.3461" y2="53.9433" gradientUnits="userSpaceOnUse">
<stop offset="0.0543534" stop-color="#BFA07F"/>
<stop offset="0.463" stop-color="#AE9881"/>
<stop offset="0.9833" stop-color="#DECDBB"/>
</linearGradient>
<linearGradient id="paint48_linear_1309_502" x1="51.6926" y1="48.7755" x2="52.3461" y2="53.9433" gradientUnits="userSpaceOnUse">
<stop offset="0.0543534" stop-color="#BFA07F"/>
<stop offset="0.463" stop-color="#AE9881"/>
<stop offset="0.9833" stop-color="#DECDBB"/>
</linearGradient>
<linearGradient id="paint49_linear_1309_502" x1="51.6926" y1="48.7755" x2="52.3461" y2="53.9433" gradientUnits="userSpaceOnUse">
<stop offset="0.0543534" stop-color="#BFA07F"/>
<stop offset="0.463" stop-color="#AE9881"/>
<stop offset="0.9833" stop-color="#DECDBB"/>
</linearGradient>
<linearGradient id="paint50_linear_1309_502" x1="51.6926" y1="48.7755" x2="52.3461" y2="53.9433" gradientUnits="userSpaceOnUse">
<stop offset="0.0543534" stop-color="#BFA07F"/>
<stop offset="0.463" stop-color="#AE9881"/>
<stop offset="0.9833" stop-color="#DECDBB"/>
</linearGradient>
<linearGradient id="paint51_linear_1309_502" x1="51.6926" y1="48.7755" x2="52.3461" y2="53.9433" gradientUnits="userSpaceOnUse">
<stop offset="0.0543534" stop-color="#BFA07F"/>
<stop offset="0.463" stop-color="#AE9881"/>
<stop offset="0.9833" stop-color="#DECDBB"/>
</linearGradient>
<linearGradient id="paint52_linear_1309_502" x1="51.6926" y1="48.7755" x2="52.3461" y2="53.9433" gradientUnits="userSpaceOnUse">
<stop offset="0.0543534" stop-color="#BFA07F"/>
<stop offset="0.463" stop-color="#AE9881"/>
<stop offset="0.9833" stop-color="#DECDBB"/>
</linearGradient>
<linearGradient id="paint53_linear_1309_502" x1="51.6926" y1="48.7755" x2="52.3461" y2="53.9433" gradientUnits="userSpaceOnUse">
<stop offset="0.0543534" stop-color="#BFA07F"/>
<stop offset="0.463" stop-color="#AE9881"/>
<stop offset="0.9833" stop-color="#DECDBB"/>
</linearGradient>
<linearGradient id="paint54_linear_1309_502" x1="51.6926" y1="48.7755" x2="52.3461" y2="53.9433" gradientUnits="userSpaceOnUse">
<stop offset="0.0543534" stop-color="#BFA07F"/>
<stop offset="0.463" stop-color="#AE9881"/>
<stop offset="0.9833" stop-color="#DECDBB"/>
</linearGradient>
<linearGradient id="paint55_linear_1309_502" x1="51.6926" y1="48.7755" x2="52.3461" y2="53.9433" gradientUnits="userSpaceOnUse">
<stop offset="0.0543534" stop-color="#BFA07F"/>
<stop offset="0.463" stop-color="#AE9881"/>
<stop offset="0.9833" stop-color="#DECDBB"/>
</linearGradient>
<linearGradient id="paint56_linear_1309_502" x1="51.6926" y1="48.7755" x2="52.3461" y2="53.9433" gradientUnits="userSpaceOnUse">
<stop offset="0.0543534" stop-color="#BFA07F"/>
<stop offset="0.463" stop-color="#AE9881"/>
<stop offset="0.9833" stop-color="#DECDBB"/>
</linearGradient>
</defs>
</svg>
