<svg width="117" height="14" viewBox="0 0 117 14" fill="none" xmlns="http://www.w3.org/2000/svg">
<path d="M1.29691 1.39411V6.03787H10.68V7.17672H1.29691V13.7349H0.0136719V0.245442H11.183V1.39411H1.29691Z" fill="white"/>
<path d="M29.5249 7C29.5249 8.21085 29.2957 9.25806 28.8371 10.1417C28.3786 11.0187 27.7489 11.7452 26.9482 12.3212C26.1475 12.8906 25.203 13.3128 24.1148 13.5877C23.0266 13.8626 21.8529 14 20.5936 14C19.3275 14 18.1469 13.8626 17.0518 13.5877C15.9568 13.3128 15.0055 12.8906 14.1979 12.3212C13.3903 11.7452 12.7573 11.0187 12.2987 10.1417C11.8402 9.25806 11.6109 8.21085 11.6109 7C11.6109 6.19495 11.717 5.46517 11.9291 4.81066C12.1413 4.1496 12.439 3.56054 12.8223 3.04348C13.2055 2.51987 13.6675 2.06826 14.2082 1.68864C14.7557 1.30902 15.3614 0.994857 16.0252 0.746143C16.696 0.490884 17.4146 0.304348 18.1811 0.186536C18.9476 0.0621786 19.7518 0 20.5936 0C21.8529 0 23.0266 0.137447 24.1148 0.412342C25.203 0.687237 26.1475 1.11267 26.9482 1.68864C27.7489 2.25806 28.3786 2.98457 28.8371 3.86816C29.2957 4.74521 29.5249 5.78915 29.5249 7ZM28.2006 7C28.2006 6.04441 28.0364 5.20009 27.7079 4.46704C27.3862 3.73399 26.9071 3.11875 26.2706 2.62132C25.6342 2.11734 24.8403 1.73773 23.8889 1.48247C22.9445 1.22066 21.846 1.08976 20.5936 1.08976C19.3411 1.08976 18.2358 1.22066 17.2777 1.48247C16.3264 1.74427 15.5291 2.12716 14.8857 2.63114C14.2424 3.12856 13.7565 3.74708 13.428 4.48668C13.0995 5.21973 12.9352 6.0575 12.9352 7C12.9352 7.95559 13.0995 8.79991 13.428 9.53296C13.7565 10.266 14.2424 10.8845 14.8857 11.3885C15.5291 11.8859 16.3264 12.2655 17.2777 12.5273C18.2358 12.7826 19.3411 12.9102 20.5936 12.9102C21.846 12.9102 22.9445 12.7826 23.8889 12.5273C24.8403 12.2655 25.6342 11.8859 26.2706 11.3885C26.9071 10.8845 27.3862 10.266 27.7079 9.53296C28.0364 8.79991 28.2006 7.95559 28.2006 7Z" fill="white"/>
<path d="M32.6836 7.96213V13.7349H31.4003V0.245442H38.4222C39.4967 0.245442 40.4172 0.327256 41.1838 0.490884C41.9503 0.647966 42.5765 0.890136 43.0624 1.21739C43.5552 1.5381 43.9145 1.94063 44.1404 2.42496C44.3662 2.9093 44.4791 3.47546 44.4791 4.12342C44.4791 5.13137 44.2019 5.93969 43.6476 6.54839C43.0932 7.15054 42.2001 7.56288 40.9682 7.78541L45.7829 13.7349H44.1711L39.6233 7.92286C39.4317 7.93595 39.2367 7.94577 39.0382 7.95231C38.8397 7.95886 38.6344 7.96213 38.4222 7.96213H32.6836ZM43.1548 4.12342C43.1548 3.54745 43.0487 3.08275 42.8366 2.72931C42.6244 2.36933 42.2788 2.09116 41.7997 1.89481C41.3206 1.69846 40.691 1.56755 39.9108 1.5021C39.1374 1.43011 38.1861 1.39411 37.0569 1.39411H32.6836V6.81346H37.0158C38.145 6.81346 39.0998 6.78401 39.88 6.72511C40.6602 6.65965 41.2933 6.53202 41.7792 6.34222C42.2651 6.14586 42.6141 5.87424 42.8263 5.52735C43.0453 5.17391 43.1548 4.70594 43.1548 4.12342Z" fill="white"/>
<ellipse cx="113.698" cy="10.4816" rx="3.30178" ry="3.21209" fill="#FF0000"/>
<path fill-rule="evenodd" clip-rule="evenodd" d="M64.1894 0.269531L67.7946 9.61619L71.6976 0.269531H75.652L69.9824 13.7311H65.7507L62.0633 4.67833L58.3863 13.7311H54.1545L48.4746 0.269531H52.4393L56.2601 9.42024L59.9475 0.269531H64.1894ZM76.1931 13.7311V0.269531H90.4803V3.23107H79.9746L79.9746 5.38477L79.9746 5.38492L79.9746 8.3463H82.3977V5.38492H87.2438V8.34645H79.9746V10.7695H90.6241V13.7311H76.1931ZM108.297 11.3797C108.441 10.9943 108.513 10.5404 108.513 10.0179C108.513 9.50842 108.441 9.06427 108.297 8.68544C108.154 8.30008 107.928 7.97677 107.619 7.71551C107.311 7.44771 106.911 7.2387 106.418 7.08848C105.932 6.93172 105.346 6.83048 104.661 6.78476C105.634 6.61494 106.346 6.2753 106.798 5.76584C107.25 5.24984 107.476 4.55423 107.476 3.679C107.476 3.18914 107.407 2.76459 107.27 2.40535C107.14 2.04611 106.955 1.73913 106.716 1.4844C106.483 1.22967 106.205 1.02393 105.884 0.867169C105.569 0.710411 105.226 0.589578 104.857 0.504667C104.487 0.413226 104.096 0.351176 103.686 0.318518C103.282 0.28586 102.878 0.269531 102.474 0.269531H92.4182V13.7311H102.659C103.186 13.7311 103.696 13.7115 104.189 13.6723C104.682 13.6331 105.144 13.5645 105.576 13.4665C106.014 13.362 106.411 13.2249 106.767 13.0551C107.13 12.8787 107.438 12.6534 107.691 12.379C107.952 12.0982 108.154 11.7651 108.297 11.3797ZM103.675 3.77698C103.73 3.9272 103.758 4.08723 103.758 4.25705C103.758 4.42687 103.73 4.59016 103.675 4.74691C103.621 4.89714 103.521 5.02777 103.378 5.13881C103.234 5.24984 103.039 5.33802 102.792 5.40334C102.546 5.46865 102.231 5.50131 101.847 5.50131H96.2288V2.9736H101.847C102.231 2.9736 102.546 3.00952 102.792 3.08137C103.039 3.15321 103.234 3.24792 103.378 3.36549C103.521 3.48306 103.621 3.62022 103.675 3.77698ZM104.477 8.86179C104.586 9.04468 104.641 9.28961 104.641 9.5966C104.641 9.90358 104.586 10.1518 104.477 10.3412C104.367 10.5241 104.196 10.6678 103.963 10.7723C103.73 10.8768 103.429 10.9454 103.059 10.978C102.689 11.0107 102.248 11.027 101.734 11.027H96.2288V8.17598H101.734C102.248 8.17598 102.689 8.19231 103.059 8.22497C103.429 8.25763 103.73 8.32621 103.963 8.43071C104.196 8.52869 104.367 8.67238 104.477 8.86179Z" fill="white"/>
</svg>
