<svg width="176" height="137" viewBox="0 0 176 137" fill="none" xmlns="http://www.w3.org/2000/svg">
    <path d="M117.759 60.2971C118.868 57.172 119.121 53.9286 119.858 50.7946C120.291 48.9532 120.753 47.1188 121.214 45.2844C121.859 42.7137 121.98 40.0732 122.251 37.4521C122.383 36.177 122.441 34.8896 122.78 33.6411C123.095 34.8764 122.847 36.1005 122.715 37.3184C122.644 37.9738 122.853 38.3389 123.409 38.6648C130.6 42.8768 137.777 47.1114 144.963 51.3331C145.61 51.7131 146.169 52.2834 146.964 52.3808C147.183 51.9735 147.039 51.6222 146.967 51.2599C146.034 46.5525 145.102 41.8451 144.312 37.1098C144.139 36.0714 143.883 35.0477 143.696 34.0112C143.541 33.1496 143.125 32.6796 142.262 32.3286C136.35 29.9254 130.468 27.4451 124.589 24.9593C123.993 24.7068 123.603 24.7553 123.134 25.2083C121.697 26.5967 120.216 27.939 118.58 29.4597C120.312 29.615 121.912 29.7191 122.847 31.2206C123.168 31.7356 123.269 32.3522 123.128 32.9577C122.911 33.0066 122.849 32.9142 122.829 32.7798C122.583 31.1618 121.746 30.3077 120.176 30.0764C117.753 29.7197 116.006 30.6175 114.841 32.8061C113.798 34.7657 113.295 36.9233 112.606 39.0133C112.328 39.8583 112.082 40.7218 111.61 41.4858C111.286 41.3804 111.379 41.1683 111.429 41.0102C111.938 39.3829 112.466 37.7618 112.968 36.1322C113.115 35.6564 113.494 35.1638 112.955 34.6178C112.321 34.7642 111.897 35.2837 111.407 35.6691C109.397 37.2511 107.428 38.8856 105.405 40.4499C104.723 40.9779 104.433 41.5607 104.508 42.4296C104.702 44.6779 104.453 46.8865 103.795 49.0467C103.73 49.26 103.71 49.4767 103.442 49.5473C103.007 49.3472 103.184 48.9938 103.247 48.6734C103.702 46.3619 104.149 44.0617 104.048 41.6717C103.935 39.0096 103.774 36.3489 103.999 33.6728C104.197 31.3166 104.672 29.0147 105.026 26.6895C105.309 24.8391 105.419 22.9874 105.258 21.1225C105.13 19.6326 105.035 18.1457 105.314 16.6611C105.37 16.3619 105.364 16.044 105.689 15.7893C105.943 16.3711 105.61 16.8924 105.613 17.4203C105.622 19.0685 105.684 20.7122 105.761 22.3584C105.798 23.1532 106.016 23.4244 106.831 23.4186C111.861 23.3832 116.891 23.4007 121.92 23.4009C125.171 23.4009 128.422 23.4052 131.673 23.3972C132.142 23.396 132.546 23.466 132.955 23.7619C137.816 27.2838 142.71 30.7579 147.478 34.4135C153.174 38.7802 158.937 43.0566 164.67 47.374C168.237 50.0606 171.804 52.7483 175.366 55.4416C176.206 56.077 176.198 56.2857 175.42 56.9962C170.072 61.8846 164.732 66.7833 159.378 71.666C152.61 77.8379 145.83 83.996 139.059 90.1636C133.839 94.918 128.622 99.6749 123.408 104.437C116.989 110.301 110.568 116.164 104.161 122.042C100.776 125.148 97.4202 128.288 94.0458 131.406C92.1665 133.143 90.258 134.848 88.4002 136.609C87.6754 137.295 87.1631 136.975 86.5923 136.441C84.5201 134.501 82.4379 132.573 80.3607 130.639C76.411 126.963 72.4621 123.285 68.5128 119.608C62.3038 113.827 56.0936 108.046 49.8862 102.263C43.4079 96.2278 36.9281 90.194 30.4568 84.1511C25.4072 79.4359 20.3765 74.6996 15.3241 69.9871C10.4302 65.4224 5.52139 60.8738 0.613894 56.324C-0.215665 55.5549 -0.222252 55.2979 0.702752 54.6151C4.51929 51.7984 8.34266 48.9912 12.16 46.1755C18.5555 41.4582 24.9762 36.7749 31.3314 32.0024C34.8777 29.3393 38.3209 26.5343 41.7886 23.7651C42.1693 23.461 42.5369 23.3992 42.9699 23.3996C45.8221 23.4024 48.6743 23.4042 51.5264 23.397C51.8547 23.3962 52.1995 23.4808 52.5558 23.2691C52.482 22.0179 52.3821 20.7542 52.339 19.4889C52.2851 17.8974 52.4176 16.3158 52.938 14.8043C53.5851 12.9238 54.7693 11.5405 56.7849 11.1896C58.6331 10.868 60.2412 11.4281 61.4645 12.9229C61.9718 13.543 62.3286 14.2325 62.1983 15.0923C61.781 15.1104 61.7808 14.8009 61.6754 14.5997C60.5895 12.5291 59.0838 11.5795 57.2212 11.7949C55.3596 12.0101 53.7607 13.4648 53.225 15.561C52.6734 17.7206 52.7124 19.9247 52.9394 22.1288C53.1934 24.5944 53.4482 27.0598 53.693 29.5261C53.7127 29.7246 53.7493 29.9719 53.3757 30.0898C53.0993 29.2 53.329 28.2621 53.0881 27.3799C52.9271 26.791 52.9402 26.1528 52.8791 25.5363C52.806 24.7969 52.4691 24.5653 51.7921 24.8464C48.4487 26.2346 45.1118 27.6384 41.7698 29.03C38.7388 30.292 35.7103 31.5605 32.6666 32.7901C31.9859 33.065 31.7257 33.4421 31.6201 34.2092C31.1759 37.434 30.6088 40.6414 30.1076 43.8583C29.6556 46.7601 29.2311 49.6662 28.7578 52.814C30.1477 52.0064 31.3607 51.3161 32.5599 50.6021C39.2468 46.6207 45.9157 42.6078 52.6314 38.6771C53.5997 38.1106 53.7866 37.5195 53.5629 36.5177C53.188 34.839 53.2098 33.122 53.2729 31.411C53.2835 31.1234 53.2519 30.7829 53.7382 30.4994C53.7191 34.7931 54.1808 38.9243 55.6102 42.9106C54.8 41.8423 54.512 40.5826 54.0293 39.1985C45.7949 44.088 37.5983 48.955 29.297 53.8843C30.2176 54.5446 31.0747 54.8537 32.0943 54.8499C37.981 54.8283 43.8699 54.7532 49.7533 54.8955C51.9154 54.9477 53.8547 54.4105 55.8176 53.7031C56.39 53.4968 56.6819 53.1067 56.8984 52.5398C57.3599 51.3318 57.2876 50.2221 56.8627 48.9806C56.2862 47.2965 55.5771 45.6121 55.605 43.7655C55.6072 43.6193 55.6418 43.4736 55.6748 43.2264C56.3547 43.6709 56.2929 44.3287 56.3528 44.8989C56.703 48.2252 58.0586 51.2306 59.2437 54.2887C59.8833 55.9393 60.4311 57.6168 60.8466 59.338C60.9169 59.6292 60.9044 59.9409 60.8492 60.2627C60.2116 59.2588 60.1558 58.0265 59.5861 57.0316C59.4878 57.0116 59.4218 56.9758 59.3706 56.9913C57.8638 57.444 57.8295 57.4585 58.3852 58.9064C59.2845 61.2486 60.2342 63.5711 61.2061 65.8965C61.0475 64.3638 60.8013 62.8392 60.9897 61.277C61.8533 68.2045 64.4328 74.8847 63.7116 82.2221C66.9568 79.7677 69.7036 77.025 72.3565 73.9783C69.9268 72.9853 67.4833 72.3243 65.2419 71.1782C65.2709 71.0972 65.2998 71.0164 65.3289 70.9354C66.3474 71.2897 67.3672 71.6398 68.3838 71.9992C69.5991 72.4287 70.8137 72.8595 72.0238 73.3032C72.4328 73.453 72.8514 73.7011 73.121 73.1279C73.4027 72.5294 72.8273 72.4777 72.5335 72.2855C71.7877 71.7981 70.9578 71.4315 70.3114 70.8077C70.3609 70.7257 70.4104 70.6438 70.46 70.5621C71.2377 71.0158 72.0355 71.4379 72.7867 71.9329C73.4342 72.3598 73.8466 72.3346 74.3992 71.6813C75.8146 70.0077 77.2688 68.3524 79.1297 67.149C79.3768 66.989 79.5896 66.7226 79.9259 66.7969C80.0472 66.8882 80.0012 66.9912 79.9324 67.039C77.0511 69.0342 74.9442 71.8032 72.7591 74.4832C70.4034 77.3723 67.8281 80.0558 64.8457 82.2395C62.6066 83.8786 61.9972 86.066 61.8388 88.5878C61.7584 89.8683 62.0101 91.1064 62.2147 92.3681C62.4534 93.8388 62.3091 95.3694 62.3961 96.8701C62.648 101.212 63.153 105.527 64.3089 109.724C65.0821 112.53 66.5728 115.006 68.1404 117.437C69.4158 119.415 71.3575 120.662 72.9968 122.233C77.1387 126.204 81.366 130.082 85.5618 133.994C85.6674 134.092 85.8051 134.156 86.1273 134.365C85.1349 130.777 83.6786 127.569 82.7166 124.177C83.5493 123.913 83.9087 124.209 84.153 124.933C85.1434 127.869 86.1819 130.788 87.205 133.713C87.2941 133.967 87.4006 134.215 87.5309 134.547C88.1976 133.661 88.3726 132.666 88.7189 131.757C89.5462 129.588 90.3273 127.399 91.082 125.202C91.3208 124.506 91.7729 124.235 92.6181 124.135C91.6226 127.589 90.2004 130.798 89.2737 134.224C90.2995 133.308 91.3376 132.405 92.3491 131.473C97.4964 126.728 102.637 121.975 107.779 117.225C109.116 115.991 110.553 114.848 111.764 113.497C112.977 112.145 113.783 110.466 114.749 108.917C118.306 103.217 121.871 97.5221 125.427 91.821C129.261 85.6737 133.084 79.5193 136.919 73.3722C138.82 70.3256 140.737 67.2893 142.643 64.2464C142.947 63.7603 143.236 63.2642 143.484 62.8524C141.951 64.3526 140.328 65.858 138.798 67.4549C134.74 71.6895 130.722 75.9625 126.69 80.2223C122.508 84.6407 118.337 89.0696 114.141 93.4738C113.415 94.2358 113.463 95.1913 113.377 96.0912C112.826 101.836 111.571 107.364 108.679 112.41C108.484 112.75 108.444 113.19 108.008 113.484C107.983 112.884 108.237 112.426 108.476 112.001C111.081 107.372 112.174 102.316 112.719 97.0777C113.144 92.9995 113.365 88.9104 113.64 84.8225C113.919 80.6755 114.333 76.5378 114.691 72.3962C114.699 72.3131 114.753 72.234 114.928 72.1638C114.808 78.7501 113.903 85.292 113.799 92.1735C124.85 80.5213 135.759 69.0201 146.763 57.4176C145.763 56.6874 144.909 55.9802 143.743 55.9772C137.456 55.9615 131.169 55.958 124.882 55.9714C123.882 55.9736 123.027 56.584 122.075 56.8018C119.905 57.2985 118.637 58.3801 118.141 60.8406C117.465 64.1975 116.126 67.4114 115.288 70.7538C115.232 70.9776 115.216 71.2564 114.701 71.522C115.664 67.6559 116.67 64.0037 117.759 60.2971ZM44.1991 55.9665C40.152 55.9652 36.105 55.9641 32.0581 55.9624C30.7015 55.9617 29.6595 56.7014 28.443 57.4104C39.5457 69.1429 50.5372 80.7578 61.5287 92.3727C60.8841 89.5878 61.6018 87.0018 62.0982 84.3947C62.2381 83.66 62.8992 83.231 63.0067 82.4924C63.3316 80.2613 63.2798 78.0242 62.9794 75.8083C62.6876 73.6543 62.5053 71.5168 61.532 69.4462C59.8618 65.8926 58.5577 62.162 57.094 58.5081C56.97 58.1981 56.9323 57.7809 56.5803 57.6595C54.7711 57.0354 53.1135 55.9283 51.0973 55.9581C48.8597 55.9914 46.6212 55.9664 44.1991 55.9665ZM126.311 98.1766C139.029 84.6948 151.748 71.2131 164.555 57.6377C163.187 56.7897 162.048 56.0853 160.51 56.1771C158.432 56.3014 156.341 56.1892 154.256 56.2198C153.097 56.2368 151.966 56.3783 150.819 56.6926C148.936 57.2089 147.683 58.241 146.644 59.9512C141.788 67.9406 136.81 75.8542 131.857 83.7832C127.527 90.7157 123.169 97.6308 118.831 104.558C118.177 105.602 117.563 106.671 116.931 107.728C116.994 107.774 117.057 107.82 117.119 107.866C120.153 104.668 123.188 101.47 126.311 98.1766ZM49.1573 97.9565C52.5931 101.624 56.029 105.292 59.465 108.96C59.4707 108.586 59.3277 108.349 59.1796 108.115C56.1957 103.411 53.2162 98.7042 50.2257 94.0047C46.7521 88.546 43.2632 83.0974 39.7909 77.638C35.6711 71.1597 31.5888 64.6571 27.4256 58.2078C26.606 56.9379 25.1753 56.2893 23.7327 56.2204C20.7648 56.0787 17.7851 56.1168 14.8124 56.1808C13.4668 56.2098 12.2835 56.9023 11.0898 57.4309C11.2067 57.9235 11.516 58.1079 11.7438 58.3502C15.0645 61.8801 18.3934 65.4022 21.7157 68.9308C25.5229 72.9744 29.3222 77.0257 33.131 81.0676C36.0739 84.1907 39.0225 87.3077 41.9753 90.421C44.3329 92.9066 46.7004 95.3822 49.1573 97.9565ZM52.0731 83.984C45.3345 76.8631 38.5958 69.7421 31.8569 62.621C32.0321 63.2394 32.3177 63.7691 32.6405 64.2746C35.737 69.1251 38.8505 73.9645 41.938 78.821C45.4726 84.3809 48.9784 89.9598 52.5105 95.5215C56.4092 101.661 60.3275 107.787 64.2239 113.927C64.5908 114.506 65.0674 114.921 65.7644 115.43C64.9738 113.718 64.3273 112.175 63.9339 110.546C62.7296 105.557 62.0209 100.497 61.9109 95.3589C61.8965 94.6903 61.7192 94.1738 61.263 93.6941C58.2224 90.496 55.1976 87.2829 52.0731 83.984ZM135.653 54.8369C138.381 54.8382 141.111 54.8201 143.839 54.8507C144.912 54.8626 145.732 54.3446 146.697 53.7621C138.601 48.9791 130.626 44.268 122.43 39.4264C122.272 44.4543 120.511 48.8703 119.689 53.4825C122.024 54.2644 124.264 54.9942 126.731 54.8723C129.637 54.7286 132.555 54.8372 135.653 54.8369ZM25.8516 38.8285C20.8643 43.7214 15.8771 48.6144 10.7587 53.6359C12.2388 54.1731 13.4311 54.9651 14.8865 54.9681C17.3987 54.9731 19.9126 54.908 22.4222 54.9881C23.908 55.0355 25.2506 54.7127 26.5843 54.091C27.2949 53.7597 27.5737 53.2796 27.6854 52.5451C28.388 47.9237 29.1181 43.3069 29.8336 38.6878C30.0391 37.3604 30.2261 36.0301 30.4215 34.7013C30.358 34.6675 30.2943 34.6337 30.2307 34.5999C28.8013 35.9771 27.3719 37.3545 25.8516 38.8285ZM145.162 34.5816C144.871 34.8398 145.045 35.1325 145.099 35.4181C146.178 41.1356 147.253 46.8538 148.338 52.5701C148.406 52.9275 148.397 53.4117 148.753 53.5652C150.115 54.152 151.312 55.1674 152.912 55.1512C155.67 55.123 158.43 55.0933 161.187 55.1663C162.466 55.2003 163.368 54.5466 164.514 53.8099C158.038 47.3639 151.643 40.9981 145.162 34.5816ZM157.466 71.9082C162.971 66.9097 168.476 61.9109 174.076 56.8259C171.356 56.5653 168.879 56.724 166.497 57.7262C166.043 57.9169 165.604 58.0687 165.247 58.4534C162.959 60.9196 160.656 63.3723 158.348 65.8196C153.921 70.5135 149.486 75.2 145.056 79.891C139.417 85.8616 133.777 91.831 128.145 97.8085C127.326 98.6774 126.549 99.5868 125.753 100.478C125.809 100.531 125.864 100.585 125.92 100.638C127.242 99.4428 128.567 98.2519 129.885 97.0515C135.013 92.3781 140.139 87.7016 145.266 83.0267C149.3 79.3493 153.333 75.6728 157.466 71.9082ZM41.6769 91.7289C40.6343 90.6319 39.5867 89.5398 38.5496 88.4376C32.9636 82.501 27.3794 76.5626 21.796 70.6236C18.9191 67.5637 16.0592 64.4872 13.1643 61.4452C11.2436 59.4268 9.52943 57.1503 6.6901 56.2798C5.22199 55.8295 3.79196 56.0134 2.34198 56.0681C2.30643 56.1566 2.27089 56.2449 2.23534 56.3333C17.7542 70.7892 33.2729 85.2449 48.7917 99.7006C48.8573 99.6321 48.9229 99.5636 48.9885 99.4951C46.5811 96.9386 44.1737 94.3819 41.6769 91.7289ZM111.504 32.0604C111.701 32.1461 111.908 32.2139 112.094 32.3202C112.9 32.7824 113.5 32.5816 114.177 31.9335C116.272 29.9288 118.454 28.0192 120.574 26.0414C121.048 25.599 121.649 25.2563 122.001 24.5571C121.736 24.535 121.56 24.5072 121.383 24.5076C117.83 24.5124 114.277 24.6076 110.723 24.4837C109.376 24.4367 108.025 24.4663 106.677 24.5027C106.198 24.5158 105.699 24.5526 105.62 25.2673C105.496 26.3757 105.298 27.4759 105.117 28.5772C105.008 29.2398 105.16 29.6822 105.86 29.9325C107.708 30.5925 109.535 31.3134 111.504 32.0604ZM165.077 49.0625C160.558 45.6696 156.04 42.2769 151.522 38.884C151.632 39.286 151.855 39.5388 152.092 39.7777C155.633 43.3496 159.151 46.9454 162.729 50.4795C164.452 52.1809 166.135 53.901 168.362 55.0448C170.077 55.926 171.712 55.5912 173.487 55.4023C170.721 53.3128 167.954 51.2231 165.077 49.0625ZM18.3664 43.0024C13.1264 46.8555 7.88639 50.7083 2.59683 54.5978C2.80046 54.7723 2.8603 54.868 2.93344 54.88C5.42707 55.2878 7.77219 54.7249 9.62206 53.0759C12.6541 50.3735 15.5223 47.477 18.3903 44.5917C20.2516 42.7191 21.9899 40.7207 23.0936 39.5257C22.1125 40.2451 20.2902 41.581 18.3664 43.0024ZM109.806 32.7219C108.154 32.1108 106.55 31.3582 104.804 30.8591C104.262 33.8509 104.283 36.7523 104.413 39.8542C107.051 37.7485 109.514 35.7835 112.035 33.7713C111.354 33.1229 110.582 33.0895 109.806 32.7219ZM40.4948 26.2478C38.8115 27.5774 37.1283 28.907 35.445 30.2366C35.4856 30.2963 35.5263 30.3558 35.5668 30.4154C40.0484 28.5499 44.53 26.6844 49.0115 24.8188C48.9939 24.7346 48.9762 24.6502 48.9587 24.566C47.7454 24.566 46.521 24.6705 45.321 24.5418C43.4666 24.3426 41.8848 24.7596 40.4948 26.2478ZM131.673 26.7479C134.041 27.7206 136.409 28.6933 138.777 29.6659C137.074 28.1816 135.173 27.0128 133.536 25.5428C131.479 23.6969 129.211 24.8873 127.066 24.5177C127.047 24.6084 127.027 24.6989 127.008 24.7894C128.518 25.4271 130.029 26.0645 131.673 26.7479ZM55.7049 56.0412C56.6616 56.5665 57.6172 56.5756 58.5762 56.0436C58.7849 55.9279 59.0797 55.9001 59.1093 55.5971C59.1436 55.2477 58.8513 55.1673 58.6134 55.0166C57.1855 54.1128 55.9414 54.8701 54.4872 55.4377C54.9472 55.6697 55.264 55.8295 55.7049 56.0412ZM10.8419 56.2516C11.2674 56.0487 11.7889 56.0343 12.1196 55.6175C10.7057 54.3754 9.43153 54.3277 7.58092 55.501C8.63968 55.9298 9.45406 56.9045 10.8419 56.2516ZM164.963 54.8873C164.541 55.1908 163.938 55.2479 163.666 55.7873C165.33 57.0354 166.333 57.0764 167.961 55.9505C167.538 55.7151 167.162 55.459 166.751 55.2886C166.217 55.0674 165.776 54.4613 164.963 54.8873ZM146.613 55.0823C146.413 55.201 146.132 55.2093 146.057 55.4976C147.292 56.7225 148.186 56.7651 150.106 55.6946C149.088 54.5813 148.092 54.3883 146.613 55.0823ZM29.0138 55.9018C29.2149 55.7515 29.5461 55.7132 29.5014 55.3466C27.9859 54.4755 27.1831 54.5481 25.8805 55.6763C26.8167 56.6055 27.8225 56.6643 29.0138 55.9018ZM119.8 54.7803C119.08 55.2145 119.368 55.9495 119.082 56.7096C120.128 56.2975 121.003 56.091 121.845 55.5734C121.233 55.0732 120.53 55.0683 119.8 54.7803Z" fill="url(#paint0_linear_359_1562)"></path>
    <path d="M80.1936 2.02031C78.9857 3.09713 78.41 4.49518 78.062 5.93754C77.1979 9.51897 76.3242 13.1077 75.7094 16.7381C75.2866 19.2352 75.3754 21.8133 75.1944 24.35C75.0091 26.9448 75.494 29.4742 75.6069 32.0362C75.6301 32.5605 75.5915 33.0654 75.1434 33.5128C75.1434 32.5355 75.1497 31.5579 75.1416 30.5806C75.1338 29.6342 74.9971 29.5301 74.1179 29.8435C71.6634 30.7185 69.2151 31.6117 66.7591 32.4825C66.4241 32.6014 66.0012 32.9532 65.7791 32.3092C65.5864 31.7506 65.8901 31.5383 66.3608 31.3705C68.9005 30.4654 71.4249 29.5162 73.9733 28.6374C74.6094 28.4181 74.8567 28.1236 74.7897 27.4393C74.7204 26.7305 74.7597 26.01 74.7667 25.2947C74.7704 24.9037 74.6736 24.5968 74.2276 24.5959C71.1666 24.5899 68.1055 24.5927 64.859 24.5927C65.3873 26.7412 65.7769 28.8133 65.7336 30.953C64.3479 25.885 63.7721 20.6299 62.1907 15.6047C62.7043 15.9412 62.7676 16.4698 62.9142 16.9436C63.4641 18.7202 63.953 20.5149 64.2463 22.3561C64.3663 23.1089 64.6813 23.4403 65.5143 23.4225C68.2728 23.3639 71.0333 23.3846 73.7928 23.4117C74.4712 23.4184 74.7752 23.2478 74.8085 22.4861C74.9984 18.1348 75.7617 13.8734 76.7684 9.64347C77.2415 7.65629 77.4294 5.59633 78.3286 3.72756C78.9405 2.45616 79.6285 1.22027 80.9896 0.635796C83.0262 -0.238651 85.1192 -0.135709 87.1908 0.488278C88.5966 0.911716 89.3967 3.17646 88.7742 4.66568C88.4443 4.25801 88.4919 3.76784 88.4329 3.35069C88.2314 1.92448 87.4482 1.0922 86.0795 0.865481C84.0116 0.522885 81.9796 0.476145 80.1936 2.02031Z" fill="url(#paint1_linear_359_1562)"></path>
    <path d="M77.2915 51.2686C77.3418 52.3167 77.6391 53.2855 77.3064 54.2335C77.0854 54.2488 76.9776 54.162 76.9907 54.0317C77.2404 51.5465 76.2574 49.2745 75.8018 46.912C75.7843 46.8209 75.7289 46.7318 75.7313 46.643C75.7852 44.5951 74.6775 43.3008 73.1147 42.1876C71.5241 41.0546 70.0465 39.7582 68.3149 38.3691C69.9283 42.1997 69.8728 46.1278 70.8436 49.8326C71.1735 51.0915 71.4753 52.358 71.817 53.6134C72.1757 54.9322 72.2557 54.9636 73.5922 54.9398C74.74 54.9193 75.8884 54.9356 77.1647 54.9356C76.1654 55.8043 75.0194 55.9243 73.8515 55.9366C72.4581 55.9512 71.6821 55.3458 71.283 53.8699C70.3994 50.6026 69.7515 47.2898 69.088 43.9773C68.6368 41.7252 68.1223 39.4926 67.3538 37.3266C67.2429 37.0137 67.0557 36.7158 67.1917 36.1988C69.8928 38.0947 72.2461 40.3421 74.9701 42.3114C75.0324 39.6983 74.5398 37.2096 75.2148 34.7468C75.2682 35.8803 75.3445 37.0136 75.3706 38.1481C75.4682 42.358 76.4285 46.4336 77.2176 50.5365C77.2584 50.7489 77.2663 50.9681 77.2915 51.2686Z" fill="url(#paint2_linear_359_1562)"></path>
    <path d="M86.6237 20.5309C86.749 15.6232 87.6436 10.902 88.3953 6.16247C88.4479 5.83016 88.4853 5.49777 88.7313 5.17526C88.9715 5.46936 88.8916 5.78095 88.8539 6.05893C88.3331 9.89632 87.7413 13.7249 87.2993 17.5714C87.1052 19.2607 87.2187 20.9856 87.1761 22.6939C87.1608 23.3036 87.4984 23.4073 87.9967 23.4038C89.8352 23.3905 91.6738 23.3932 93.5123 23.3978C93.8117 23.3986 94.1252 23.2961 94.3893 23.471C93.7664 29.2207 93.1448 34.9575 92.5162 40.7583C92.0373 40.5476 92.1911 40.3178 92.2012 40.1201C92.4167 35.8815 93.3614 31.7139 93.3892 27.4534C93.3943 26.6661 93.1572 26.2687 92.4388 26.0277C91.3354 25.6573 90.2582 25.2077 89.1661 24.8021C88.077 24.3974 87.2092 25.0009 87.2283 26.1651C87.2565 27.87 87.3062 29.5748 87.3553 31.2792C87.3649 31.6148 87.3923 31.9431 86.9668 32.4023C86.8476 28.3311 86.7348 24.475 86.6237 20.5309ZM92.9097 24.5267C92.777 24.5719 92.6088 24.5589 92.5468 24.7959C92.8839 25.0311 93.2186 25.2105 93.6599 24.9057C93.5563 24.5249 93.2747 24.5411 92.9097 24.5267Z" fill="url(#paint3_linear_359_1562)"></path>
    <path d="M88.4479 38.6639C88.7089 42.48 88.2398 46.2013 88.3307 49.9296C88.3502 50.7295 88.4393 51.5099 88.6857 52.4042C89.8096 51.5323 90.8739 51.0012 90.853 49.2866C90.8239 46.9121 91.2121 44.5294 91.8082 42.2084C91.8961 41.8659 91.9296 41.4821 92.2619 41.2124C92.4765 41.6643 92.3381 42.0776 92.2654 42.4992C91.7174 45.6781 91.0727 48.8433 91.2537 52.1063C91.3192 53.2858 91.7204 54.4177 91.6505 55.6125C91.6151 56.2147 91.6462 56.845 91.0031 57.1336C90.4347 57.3884 90.0345 56.9856 89.5345 56.7373C88.634 56.2901 88.5865 55.4846 88.4227 54.7434C87.7741 51.8104 87.7239 48.8345 87.9612 45.8502C88.2737 41.9232 87.839 38.0485 87.2092 34.1848C87.1578 33.8701 86.9884 33.5351 87.3148 33.1254C88.1009 34.9083 88.2014 36.7583 88.4479 38.6639ZM90.8469 53.7388C90.7118 53.3218 90.9074 52.8126 90.5056 52.3963C90.1 52.7962 89.534 52.9494 89.336 53.524C90.3241 54.0104 90.4185 54.0294 90.8469 53.7388ZM89.8402 55.8346C90.1521 55.7577 90.4868 55.7185 90.6901 55.3398C90.2054 55.1401 89.8162 54.8438 89.2863 54.8743C89.3192 55.2927 89.4302 55.5974 89.8402 55.8346Z" fill="url(#paint4_linear_359_1562)"></path>
    <path d="M102.913 51.9793C103.032 51.2909 102.995 50.6421 103.41 50.1096C103.347 51.217 103.474 52.317 103.28 53.4175C103.053 54.7122 103.18 54.8205 104.441 54.8362C105.176 54.8453 105.912 54.8584 106.646 54.8985C107.301 54.9343 107.661 54.6753 107.811 54.0014C108.377 51.4593 108.959 48.9205 109.572 46.3898C109.878 45.1263 110.166 43.8505 110.725 42.6665C110.834 42.436 110.842 42.0988 111.252 42.047C111.453 42.5733 111.121 43.0021 110.976 43.4344C109.875 46.7362 109.283 50.1702 108.4 53.5282C107.947 55.252 107.602 56.999 106.842 58.6438C105.926 60.6292 105.31 62.7369 104.833 64.8835C105.013 61.843 105.944 58.9949 107.159 56.0239C105.828 56.0239 104.621 56.0127 103.414 56.0306C103.031 56.0362 102.92 56.3462 102.886 56.6796C102.64 59.0564 102.398 61.4335 102.149 63.81C102.086 64.4146 102.504 64.6982 102.896 64.9957C103.4 65.3778 103.914 65.7446 104.497 66.1717C102.497 66.7113 99.5304 62.0799 99.7328 59.6947C100.337 61.1888 100.636 62.5798 101.726 63.7839C101.821 62.7644 101.877 61.9436 101.976 61.1281C102.343 58.1117 102.434 55.0661 102.913 51.9793Z" fill="url(#paint5_linear_359_1562)"></path>
    <path d="M86.3516 98.7807C87.3349 93.7922 85.1498 89.3781 84.2349 84.6255C82.9971 85.8881 81.7853 87.0476 80.4838 88.1073C79.3115 89.0618 78.19 90.0665 77.5693 91.5276C77.3904 91.9487 76.8754 91.945 76.3213 92.088C76.9565 90.7397 77.6383 89.6239 78.7017 88.754C80.7072 87.1137 82.6763 85.4281 84.3137 83.3902C84.6368 82.9879 84.9202 82.5526 85.2565 82.0845C84.1992 81.4695 83.1192 81.0166 82.5689 79.8554C84.0058 80.2911 85.0663 81.5839 86.6521 81.6561C88.1479 81.7244 89.604 81.5004 91.0621 81.1626C90.2366 81.8573 89.2135 81.8837 88.2587 82.1123C87.8746 82.2043 87.4683 82.2086 87.0712 82.237C85.3417 82.3604 84.6263 83.388 84.9985 85.1416C85.5206 87.6003 86.3549 89.981 86.7639 92.4669C87.247 95.4025 86.908 98.2713 86.0723 101.098C86.0603 101.138 85.9871 101.16 85.8857 101.229C85.7927 100.361 86.2357 99.641 86.3516 98.7807Z" fill="url(#paint6_linear_359_1562)"></path>
    <path d="M103.155 74.2039C103.702 72.8144 103.844 71.5035 103.086 70.2086C102.529 69.2544 101.727 68.7364 100.622 68.6791C99.6666 68.6297 98.7262 68.7618 97.7919 68.9054C94.8645 69.3548 92.0002 68.9851 89.1493 68.3179C86.8551 67.7811 84.5558 67.2669 82.2598 66.7379C82.0897 66.6987 81.928 66.6218 81.8047 66.3715C82.957 66.5635 84.1168 66.7183 85.2599 66.9561C87.3537 67.3919 89.4176 67.9756 91.5402 68.2717C94.1651 68.6375 96.8086 68.6944 99.372 68.0232C102.007 67.3333 104.174 69.3043 104.214 72.0836C104.257 75.0596 102.853 77.0731 100.324 78.4077C98.406 79.4192 96.3287 79.9655 94.2742 80.5737C93.7873 80.7178 93.3284 81.1529 92.6321 80.8501C93.4289 80.3525 94.2383 80.1895 95.0038 79.9262C96.7449 79.3272 98.477 78.7201 100.068 77.7542C101.455 76.9125 102.496 75.7825 103.155 74.2039Z" fill="url(#paint7_linear_359_1562)"></path>
    <path d="M87.8193 90.5745C88.3149 93.7896 88.4661 96.9471 88.5865 100.111C88.6797 102.562 88.5528 105.005 88.4692 107.448C88.38 110.057 87.8948 112.621 87.3505 115.169C87.314 115.34 87.2169 115.498 87.0135 115.639C87.5203 112.115 87.9492 108.588 88.1539 105.046C88.3636 101.417 88.2008 97.7815 87.8408 94.1586C87.4879 90.605 86.9228 87.0792 86.5277 83.5264C87.133 85.8173 87.6143 88.1272 87.8193 90.5745Z" fill="url(#paint8_linear_359_1562)"></path>
    <path d="M99.1605 9.81472C101.105 9.25829 102.874 9.52521 104.515 10.5709C105.611 11.269 106.189 12.9137 105.757 14.0713C105.401 13.8841 105.505 13.5375 105.468 13.2659C105.219 11.4232 104.121 10.3195 102.3 10.0986C99.109 9.71169 97.3221 10.7956 96.1065 13.8096C95.1498 16.1817 94.9943 18.6956 94.7647 21.2001C94.7148 21.744 94.6254 22.2842 94.556 22.8113C94.2798 22.8175 94.2918 22.6637 94.2899 22.5597C94.2381 19.5274 94.4292 16.5216 95.5548 13.6704C96.2348 11.9488 97.2932 10.5281 99.1605 9.81472Z" fill="url(#paint9_linear_359_1562)"></path>
    <path d="M102.772 83.7666C105.049 84.4675 107.259 85.1397 109.469 85.8119C109.436 85.9149 109.404 86.0177 109.371 86.1208C104.584 84.8702 99.854 83.4418 95.3108 81.4328C95.3362 81.3537 95.3616 81.2747 95.387 81.1956C97.8262 82.0432 100.266 82.8906 102.772 83.7666Z" fill="url(#paint10_linear_359_1562)"></path>
    <path d="M95.0121 69.8506C96.5567 69.0446 98.171 68.9824 99.8043 69.0363C98.9095 69.5459 97.8989 69.4892 96.9404 69.6004C95.9292 69.7178 95.1685 70.0029 94.9036 71.087C94.8964 71.1165 94.8769 71.1426 94.864 71.1708C93.7941 73.5182 93.9137 73.9063 96.0606 75.0511C94.6148 75.4031 93.5406 74.3849 93.8129 72.9306C94.0151 71.8495 94.4505 70.8649 95.0121 69.8506Z" fill="url(#paint11_linear_359_1562)"></path>
    <path d="M107.984 69.5326C109.719 70.3616 111.512 70.7704 113.309 71.2374C112.597 71.5293 111.895 71.346 111.232 71.2038C109.305 70.7896 107.55 69.9222 105.83 68.965C105.129 68.5745 105.017 68.0614 105.317 67.0575C105.648 68.7261 106.918 68.9448 107.984 69.5326Z" fill="url(#paint12_linear_359_1562)"></path>
    <path d="M85.68 33.0455C85.9669 33.3279 86.2504 33.5356 86.2002 34.0361C84.5402 32.7754 82.7292 33.5164 80.9829 33.4949C79.6709 33.4789 78.3527 33.7122 77.0123 33.4819C77.1216 33.0876 77.3675 33.1216 77.5636 33.1255C80.0399 33.1754 82.5106 33.0357 84.9824 32.9303C85.1926 32.9213 85.4055 32.9777 85.68 33.0455Z" fill="url(#paint13_linear_359_1562)"></path>
    <path d="M80.0303 36.2776C81.9398 36.2619 83.6983 35.7824 85.4678 35.376C83.8181 36.797 77.486 37.293 76.0735 35.0486C77.4239 35.7045 78.6351 36.185 80.0303 36.2776Z" fill="url(#paint14_linear_359_1562)"></path>
    <path d="M87.2049 55.0882C84.6188 55.9698 82.0623 55.648 79.4089 55.0027C79.7193 54.6867 79.9754 54.7481 80.2029 54.7892C82.3234 55.172 84.4467 55.3221 86.584 54.9338C86.7949 54.8956 87.0133 54.8916 87.2049 55.0882Z" fill="url(#paint15_linear_359_1562)"></path>
    <path d="M68.3476 57.7819C66.8571 58.4126 65.4651 59.1086 63.9836 59.5648C63.9473 59.4797 63.9113 59.3946 63.8752 59.3095C66.1983 58.2644 68.5217 57.2195 70.8448 56.1743C70.8884 56.2436 70.9318 56.3129 70.9753 56.3823C70.5612 56.6233 70.1537 56.8767 69.7313 57.1017C69.2984 57.3324 68.851 57.5353 68.3476 57.7819Z" fill="url(#paint16_linear_359_1562)"></path>
    <path d="M100.033 39.4831C97.7988 38.9299 95.6913 39.7079 93.478 39.6537C93.4089 39.3582 93.5268 39.065 93.976 39.1216C95.6645 39.3342 97.3075 38.7268 98.9894 38.8684C99.8787 38.9433 100.756 39.0303 101.31 40.1986C100.792 39.9037 100.445 39.7064 100.033 39.4831Z" fill="url(#paint17_linear_359_1562)"></path>
    <path d="M100.357 42.9447C98.4048 42.7084 96.5148 42.591 94.6648 42.1811C94.0689 42.0489 93.5199 41.8124 93.2335 41.1393C95.7751 42.524 98.6429 42.1068 101.429 42.7851C101.06 43.0212 100.733 42.9131 100.357 42.9447Z" fill="url(#paint18_linear_359_1562)"></path>
    <path d="M116.089 55.641C116.283 55.7366 116.429 55.7963 116.433 56.1179C113.957 55.3201 111.598 54.1804 108.917 54.1436C109.839 53.4965 113.422 54.2644 116.089 55.641Z" fill="url(#paint19_linear_359_1562)"></path>
    <path d="M110.827 57.0105C110.075 56.8108 109.452 56.5117 108.916 55.9833C111.157 57.0174 113.738 56.902 115.888 58.2339C114.228 57.8021 112.565 57.4122 110.827 57.0105Z" fill="url(#paint20_linear_359_1562)"></path>
    <path d="M117.143 44.6128C115.278 44.4907 113.722 43.7594 112.177 42.7451C114.655 43.4602 117.049 44.1508 119.442 44.8413C119.426 44.9154 119.409 44.9895 119.393 45.0634C118.669 44.9165 117.945 44.7696 117.143 44.6128Z" fill="url(#paint21_linear_359_1562)"></path>
    <path d="M60.7118 42.9367C59.6041 43.1325 58.607 43.3972 57.7005 43.9662C57.0092 44.4001 56.7299 44.2454 56.3902 43.2094C57.136 43.82 57.7513 43.4321 58.383 43.174C59.9263 42.5434 61.5489 42.4294 63.1916 42.4298C62.4535 42.9123 61.5728 42.6788 60.7118 42.9367Z" fill="url(#paint22_linear_359_1562)"></path>
    <path d="M83.4593 15.999C83.9547 16.0377 84.3829 15.8674 84.7702 16.1987C82.3083 16.6297 79.8665 16.2814 77.4254 15.9988C79.4076 15.9988 81.3897 15.9988 83.4593 15.999Z" fill="url(#paint23_linear_359_1562)"></path>
    <path d="M58.0633 45.7308C60.2124 45.2016 62.3372 45.3765 64.4563 45.3189C64.0268 45.7137 63.5125 45.7282 62.9901 45.7443C61.6229 45.7859 60.2512 45.6369 58.8868 45.899C58.4866 45.9757 58.1309 46.1178 57.7715 46.279C57.3739 46.4575 57.1146 46.4297 57.1589 45.8615C57.4112 45.6237 57.7443 45.9406 58.0633 45.7308Z" fill="url(#paint24_linear_359_1562)"></path>
    <path d="M98.1799 75.0021C98.9944 73.8262 99.9965 72.821 100.25 71.3703C100.313 71.0104 100.37 70.6494 100.472 70.0304C100.845 71.1674 100.55 71.9902 100.255 72.7964C99.9525 73.6246 99.454 74.3331 98.7861 74.906C98.6208 75.0477 98.4637 75.3409 98.1799 75.0021Z" fill="url(#paint25_linear_359_1562)"></path>
    <path d="M101.691 23.4528C99.5323 23.2201 97.4613 23.2007 95.4228 23.8178C97.7771 22.5694 100.289 23.1908 102.746 23.1058C102.478 23.4403 102.11 23.4135 101.691 23.4528Z" fill="url(#paint26_linear_359_1562)"></path>
    <path d="M57.9822 29.7657C59.6025 29.834 61.1228 29.6261 62.65 29.4714C60.8033 30.2753 58.851 30.0982 56.7808 30.255C57.1682 29.7685 57.55 29.8152 57.9822 29.7657Z" fill="url(#paint27_linear_359_1562)"></path>
    <path d="M98.5789 124.112C97.1977 124.062 95.8964 124.4 94.5925 124.038C96.32 123.85 98.0449 123.637 100.033 123.738C99.4842 124.234 99.0391 124.025 98.5789 124.112Z" fill="url(#paint28_linear_359_1562)"></path>
    <path d="M85.5777 52.1285C86.3021 52.4514 86.9327 52.7885 87.181 53.5923C86.3829 53.1439 85.6789 52.5395 84.7921 52.2321C85.0336 51.8024 85.2846 52.0682 85.5777 52.1285Z" fill="url(#paint29_linear_359_1562)"></path>
    <path d="M54.6156 29.9749C55.0508 30.0619 55.426 30.1491 55.8809 30.2547C55.5311 30.6392 55.1474 30.7391 54.7667 30.6151C54.5349 30.5397 54.292 30.301 54.6156 29.9749Z" fill="url(#paint30_linear_359_1562)"></path>
    <defs>
        <linearGradient id="paint0_linear_359_1562" x1="24.3571" y1="1.16891e-06" x2="80.0324" y2="162.248" gradientUnits="userSpaceOnUse">
            <stop stop-color="#BFA07F"></stop>
            <stop offset="0.462991" stop-color="#AE9881"></stop>
            <stop offset="0.983337" stop-color="#DECDBB"></stop>
        </linearGradient>
        <linearGradient id="paint1_linear_359_1562" x1="24.3571" y1="1.16891e-06" x2="80.0324" y2="162.248" gradientUnits="userSpaceOnUse">
            <stop stop-color="#BFA07F"></stop>
            <stop offset="0.462991" stop-color="#AE9881"></stop>
            <stop offset="0.983337" stop-color="#DECDBB"></stop>
        </linearGradient>
        <linearGradient id="paint2_linear_359_1562" x1="24.3571" y1="1.16891e-06" x2="80.0324" y2="162.248" gradientUnits="userSpaceOnUse">
            <stop stop-color="#BFA07F"></stop>
            <stop offset="0.462991" stop-color="#AE9881"></stop>
            <stop offset="0.983337" stop-color="#DECDBB"></stop>
        </linearGradient>
        <linearGradient id="paint3_linear_359_1562" x1="24.3571" y1="1.16891e-06" x2="80.0324" y2="162.248" gradientUnits="userSpaceOnUse">
            <stop stop-color="#BFA07F"></stop>
            <stop offset="0.462991" stop-color="#AE9881"></stop>
            <stop offset="0.983337" stop-color="#DECDBB"></stop>
        </linearGradient>
        <linearGradient id="paint4_linear_359_1562" x1="24.3571" y1="1.16891e-06" x2="80.0324" y2="162.248" gradientUnits="userSpaceOnUse">
            <stop stop-color="#BFA07F"></stop>
            <stop offset="0.462991" stop-color="#AE9881"></stop>
            <stop offset="0.983337" stop-color="#DECDBB"></stop>
        </linearGradient>
        <linearGradient id="paint5_linear_359_1562" x1="24.3571" y1="1.16891e-06" x2="80.0324" y2="162.248" gradientUnits="userSpaceOnUse">
            <stop stop-color="#BFA07F"></stop>
            <stop offset="0.462991" stop-color="#AE9881"></stop>
            <stop offset="0.983337" stop-color="#DECDBB"></stop>
        </linearGradient>
        <linearGradient id="paint6_linear_359_1562" x1="24.3571" y1="1.16891e-06" x2="80.0324" y2="162.248" gradientUnits="userSpaceOnUse">
            <stop stop-color="#BFA07F"></stop>
            <stop offset="0.462991" stop-color="#AE9881"></stop>
            <stop offset="0.983337" stop-color="#DECDBB"></stop>
        </linearGradient>
        <linearGradient id="paint7_linear_359_1562" x1="24.3571" y1="1.16891e-06" x2="80.0324" y2="162.248" gradientUnits="userSpaceOnUse">
            <stop stop-color="#BFA07F"></stop>
            <stop offset="0.462991" stop-color="#AE9881"></stop>
            <stop offset="0.983337" stop-color="#DECDBB"></stop>
        </linearGradient>
        <linearGradient id="paint8_linear_359_1562" x1="24.3571" y1="1.16891e-06" x2="80.0324" y2="162.248" gradientUnits="userSpaceOnUse">
            <stop stop-color="#BFA07F"></stop>
            <stop offset="0.462991" stop-color="#AE9881"></stop>
            <stop offset="0.983337" stop-color="#DECDBB"></stop>
        </linearGradient>
        <linearGradient id="paint9_linear_359_1562" x1="24.3571" y1="1.16891e-06" x2="80.0324" y2="162.248" gradientUnits="userSpaceOnUse">
            <stop stop-color="#BFA07F"></stop>
            <stop offset="0.462991" stop-color="#AE9881"></stop>
            <stop offset="0.983337" stop-color="#DECDBB"></stop>
        </linearGradient>
        <linearGradient id="paint10_linear_359_1562" x1="24.3571" y1="1.16891e-06" x2="80.0324" y2="162.248" gradientUnits="userSpaceOnUse">
            <stop stop-color="#BFA07F"></stop>
            <stop offset="0.462991" stop-color="#AE9881"></stop>
            <stop offset="0.983337" stop-color="#DECDBB"></stop>
        </linearGradient>
        <linearGradient id="paint11_linear_359_1562" x1="24.3571" y1="1.16891e-06" x2="80.0324" y2="162.248" gradientUnits="userSpaceOnUse">
            <stop stop-color="#BFA07F"></stop>
            <stop offset="0.462991" stop-color="#AE9881"></stop>
            <stop offset="0.983337" stop-color="#DECDBB"></stop>
        </linearGradient>
        <linearGradient id="paint12_linear_359_1562" x1="24.3571" y1="1.16891e-06" x2="80.0324" y2="162.248" gradientUnits="userSpaceOnUse">
            <stop stop-color="#BFA07F"></stop>
            <stop offset="0.462991" stop-color="#AE9881"></stop>
            <stop offset="0.983337" stop-color="#DECDBB"></stop>
        </linearGradient>
        <linearGradient id="paint13_linear_359_1562" x1="24.3571" y1="1.16891e-06" x2="80.0324" y2="162.248" gradientUnits="userSpaceOnUse">
            <stop stop-color="#BFA07F"></stop>
            <stop offset="0.462991" stop-color="#AE9881"></stop>
            <stop offset="0.983337" stop-color="#DECDBB"></stop>
        </linearGradient>
        <linearGradient id="paint14_linear_359_1562" x1="24.3571" y1="1.16891e-06" x2="80.0324" y2="162.248" gradientUnits="userSpaceOnUse">
            <stop stop-color="#BFA07F"></stop>
            <stop offset="0.462991" stop-color="#AE9881"></stop>
            <stop offset="0.983337" stop-color="#DECDBB"></stop>
        </linearGradient>
        <linearGradient id="paint15_linear_359_1562" x1="24.3571" y1="1.16891e-06" x2="80.0324" y2="162.248" gradientUnits="userSpaceOnUse">
            <stop stop-color="#BFA07F"></stop>
            <stop offset="0.462991" stop-color="#AE9881"></stop>
            <stop offset="0.983337" stop-color="#DECDBB"></stop>
        </linearGradient>
        <linearGradient id="paint16_linear_359_1562" x1="24.3571" y1="1.16891e-06" x2="80.0324" y2="162.248" gradientUnits="userSpaceOnUse">
            <stop stop-color="#BFA07F"></stop>
            <stop offset="0.462991" stop-color="#AE9881"></stop>
            <stop offset="0.983337" stop-color="#DECDBB"></stop>
        </linearGradient>
        <linearGradient id="paint17_linear_359_1562" x1="24.3571" y1="1.16891e-06" x2="80.0324" y2="162.248" gradientUnits="userSpaceOnUse">
            <stop stop-color="#BFA07F"></stop>
            <stop offset="0.462991" stop-color="#AE9881"></stop>
            <stop offset="0.983337" stop-color="#DECDBB"></stop>
        </linearGradient>
        <linearGradient id="paint18_linear_359_1562" x1="24.3571" y1="1.16891e-06" x2="80.0324" y2="162.248" gradientUnits="userSpaceOnUse">
            <stop stop-color="#BFA07F"></stop>
            <stop offset="0.462991" stop-color="#AE9881"></stop>
            <stop offset="0.983337" stop-color="#DECDBB"></stop>
        </linearGradient>
        <linearGradient id="paint19_linear_359_1562" x1="24.3571" y1="1.16891e-06" x2="80.0324" y2="162.248" gradientUnits="userSpaceOnUse">
            <stop stop-color="#BFA07F"></stop>
            <stop offset="0.462991" stop-color="#AE9881"></stop>
            <stop offset="0.983337" stop-color="#DECDBB"></stop>
        </linearGradient>
        <linearGradient id="paint20_linear_359_1562" x1="24.3571" y1="1.16891e-06" x2="80.0324" y2="162.248" gradientUnits="userSpaceOnUse">
            <stop stop-color="#BFA07F"></stop>
            <stop offset="0.462991" stop-color="#AE9881"></stop>
            <stop offset="0.983337" stop-color="#DECDBB"></stop>
        </linearGradient>
        <linearGradient id="paint21_linear_359_1562" x1="24.3571" y1="1.16891e-06" x2="80.0324" y2="162.248" gradientUnits="userSpaceOnUse">
            <stop stop-color="#BFA07F"></stop>
            <stop offset="0.462991" stop-color="#AE9881"></stop>
            <stop offset="0.983337" stop-color="#DECDBB"></stop>
        </linearGradient>
        <linearGradient id="paint22_linear_359_1562" x1="24.3571" y1="1.16891e-06" x2="80.0324" y2="162.248" gradientUnits="userSpaceOnUse">
            <stop stop-color="#BFA07F"></stop>
            <stop offset="0.462991" stop-color="#AE9881"></stop>
            <stop offset="0.983337" stop-color="#DECDBB"></stop>
        </linearGradient>
        <linearGradient id="paint23_linear_359_1562" x1="24.3571" y1="1.16891e-06" x2="80.0324" y2="162.248" gradientUnits="userSpaceOnUse">
            <stop stop-color="#BFA07F"></stop>
            <stop offset="0.462991" stop-color="#AE9881"></stop>
            <stop offset="0.983337" stop-color="#DECDBB"></stop>
        </linearGradient>
        <linearGradient id="paint24_linear_359_1562" x1="24.3571" y1="1.16891e-06" x2="80.0324" y2="162.248" gradientUnits="userSpaceOnUse">
            <stop stop-color="#BFA07F"></stop>
            <stop offset="0.462991" stop-color="#AE9881"></stop>
            <stop offset="0.983337" stop-color="#DECDBB"></stop>
        </linearGradient>
        <linearGradient id="paint25_linear_359_1562" x1="24.3571" y1="1.16891e-06" x2="80.0324" y2="162.248" gradientUnits="userSpaceOnUse">
            <stop stop-color="#BFA07F"></stop>
            <stop offset="0.462991" stop-color="#AE9881"></stop>
            <stop offset="0.983337" stop-color="#DECDBB"></stop>
        </linearGradient>
        <linearGradient id="paint26_linear_359_1562" x1="24.3571" y1="1.16891e-06" x2="80.0324" y2="162.248" gradientUnits="userSpaceOnUse">
            <stop stop-color="#BFA07F"></stop>
            <stop offset="0.462991" stop-color="#AE9881"></stop>
            <stop offset="0.983337" stop-color="#DECDBB"></stop>
        </linearGradient>
        <linearGradient id="paint27_linear_359_1562" x1="24.3571" y1="1.16891e-06" x2="80.0324" y2="162.248" gradientUnits="userSpaceOnUse">
            <stop stop-color="#BFA07F"></stop>
            <stop offset="0.462991" stop-color="#AE9881"></stop>
            <stop offset="0.983337" stop-color="#DECDBB"></stop>
        </linearGradient>
        <linearGradient id="paint28_linear_359_1562" x1="24.3571" y1="1.16891e-06" x2="80.0324" y2="162.248" gradientUnits="userSpaceOnUse">
            <stop stop-color="#BFA07F"></stop>
            <stop offset="0.462991" stop-color="#AE9881"></stop>
            <stop offset="0.983337" stop-color="#DECDBB"></stop>
        </linearGradient>
        <linearGradient id="paint29_linear_359_1562" x1="24.3571" y1="1.16891e-06" x2="80.0324" y2="162.248" gradientUnits="userSpaceOnUse">
            <stop stop-color="#BFA07F"></stop>
            <stop offset="0.462991" stop-color="#AE9881"></stop>
            <stop offset="0.983337" stop-color="#DECDBB"></stop>
        </linearGradient>
        <linearGradient id="paint30_linear_359_1562" x1="24.3571" y1="1.16891e-06" x2="80.0324" y2="162.248" gradientUnits="userSpaceOnUse">
            <stop stop-color="#BFA07F"></stop>
            <stop offset="0.462991" stop-color="#AE9881"></stop>
            <stop offset="0.983337" stop-color="#DECDBB"></stop>
        </linearGradient>
    </defs>
</svg>