<svg width="1923" height="256" viewBox="0 0 1923 256" fill="none" xmlns="http://www.w3.org/2000/svg">
<path d="M1.23926 4.69491H36.6407V252.041H1.23926V4.69491Z" stroke="#6F5734" stroke-width="2"/>
<path d="M359.353 4.69491V252.041H330.324L181.638 67.5917V252.041H146.237V4.69491H175.266L323.952 189.145V4.69491H359.353Z" stroke="#6F5734" stroke-width="2"/>
<path d="M541.143 254.868C522.498 254.868 504.443 252.041 486.979 246.388C469.75 240.498 456.179 232.96 446.267 223.773L459.366 196.212C468.806 204.692 480.842 211.641 495.475 217.059C510.344 222.242 525.566 224.833 541.143 224.833C561.676 224.833 577.016 221.417 587.164 214.586C597.313 207.519 602.387 198.214 602.387 186.671C602.387 178.191 599.555 171.359 593.891 166.177C588.463 160.759 581.618 156.636 573.358 153.81C565.334 150.983 553.887 147.803 539.019 144.269C520.374 139.793 505.269 135.318 493.705 130.842C482.376 126.366 472.582 119.534 464.322 110.347C456.297 100.925 452.285 88.3217 452.285 72.5387C452.285 59.3469 455.707 47.4507 462.552 36.8501C469.632 26.2495 480.252 17.769 494.413 11.4087C508.573 5.04833 526.156 1.86816 547.161 1.86816C561.793 1.86816 576.19 3.75271 590.351 7.52178C604.511 11.2909 616.666 16.7089 626.814 23.7761L615.132 52.0442C604.747 45.4483 593.655 40.5014 581.854 37.2035C570.054 33.6699 558.489 31.9032 547.161 31.9032C527.1 31.9032 511.996 35.5545 501.847 42.8571C491.935 50.1597 486.979 59.5824 486.979 71.1253C486.979 79.6057 489.811 86.555 495.475 91.973C501.139 97.1555 508.101 101.278 516.362 104.34C524.858 107.167 536.305 110.23 550.701 113.528C569.346 118.003 584.332 122.479 595.661 126.955C606.989 131.431 616.666 138.262 624.69 147.449C632.95 156.636 637.08 169.004 637.08 184.551C637.08 197.507 633.54 209.404 626.46 220.24C619.38 230.84 608.641 239.321 594.245 245.681C579.848 251.806 562.148 254.868 541.143 254.868Z" stroke="#6F5734" stroke-width="2"/>
<path d="M724.204 4.69491H759.606V252.041H724.204V4.69491Z" stroke="#6F5734" stroke-width="2"/>
<path d="M869.195 4.69491H973.629C999.826 4.69491 1023.07 9.87741 1043.37 20.2424C1063.67 30.6075 1079.36 45.2127 1090.45 64.0582C1101.78 82.668 1107.45 104.105 1107.45 128.368C1107.45 152.632 1101.78 174.186 1090.45 193.032C1079.36 211.641 1063.67 226.129 1043.37 236.494C1023.07 246.859 999.826 252.041 973.629 252.041H869.195V4.69491ZM971.505 221.3C991.565 221.3 1009.15 217.413 1024.25 209.639C1039.59 201.865 1051.39 191.029 1059.65 177.131C1067.91 162.997 1072.04 146.743 1072.04 128.368C1072.04 109.994 1067.91 93.8575 1059.65 79.959C1051.39 65.8249 1039.59 54.871 1024.25 47.0973C1009.15 39.3235 991.565 35.4366 971.505 35.4366H904.596V221.3H971.505Z" stroke="#6F5734" stroke-width="2"/>
<path d="M1197.08 4.69491H1232.48V252.041H1197.08V4.69491Z" stroke="#6F5734" stroke-width="2"/>
<path d="M1444.73 254.868C1411.69 254.868 1385.96 245.445 1367.56 226.6C1349.15 207.754 1339.94 180.664 1339.94 145.329V4.69491H1375.34V143.916C1375.34 196.919 1398.59 223.42 1445.08 223.42C1467.74 223.42 1485.09 216.942 1497.12 203.985C1509.16 190.794 1515.18 170.77 1515.18 143.916V4.69491H1549.52V145.329C1549.52 180.9 1540.31 208.108 1521.91 226.953C1503.5 245.563 1477.77 254.868 1444.73 254.868Z" stroke="#6F5734" stroke-width="2"/>
<path d="M1887.25 252.041L1886.9 71.8319L1797.33 222.006H1781.05L1691.48 72.892V252.041H1657.5V4.69491H1686.53L1789.9 178.544L1891.86 4.69491H1920.89L1921.24 252.041H1887.25Z" stroke="#6F5734" stroke-width="2"/>
<path d="M981.407 149.385C991.478 149.385 999.642 141.165 999.642 131.026C999.642 120.886 991.478 112.667 981.407 112.667C971.336 112.667 963.172 120.886 963.172 131.026C963.172 141.165 971.336 149.385 981.407 149.385Z" stroke="#6F5734" stroke-width="2"/>
</svg>
